M48
;DRILL file {KiCad (5.0.1-3-g963ef8bb5)} date Monday, September 16, 2019 at 11:21:23 PM
;FORMAT={-:-/ absolute / inch / decimal}
FMAT,2
INCH,TZ
T1C0.0157
T2C0.0300
T3C0.0315
T4C0.0354
T5C0.0390
T6C0.0787
%
G90
G05
M72
T1
X4.1732Y-3.7008
X4.2126Y-2.4016
X4.3307Y-3.5827
X4.5787Y-3.7953
X4.6693Y-3.3859
X4.7323Y-3.7992
X4.937Y-3.6654
X5.Y-3.9291
X5.1969Y-4.2126
X5.1969Y-4.2126
X5.315Y-2.9134
X5.315Y-3.3071
X5.315Y-3.5433
X5.3937Y-2.6378
X5.3937Y-4.1339
X5.4331Y-2.7953
X5.5118Y-2.0472
X5.6063Y-2.5236
X5.7087Y-2.0472
X5.7087Y-3.4252
X5.8268Y-3.3465
X5.8661Y-2.1654
X5.9173Y-4.0551
X5.9732Y-2.5858
X5.9803Y-3.937
X5.9961Y-2.8071
X6.Y-2.7205
X6.0079Y-2.622
X6.0157Y-3.8307
X6.1055Y-3.7354
X6.1811Y-2.874
X6.1993Y-3.6417
X6.4567Y-2.874
T2
X4.0882Y-2.0449
X4.0882Y-2.1449
X4.0882Y-2.2449
X4.0882Y-2.3449
X4.0882Y-2.4449
X4.0882Y-2.5449
X4.0882Y-2.6449
X4.0882Y-2.7449
X4.0882Y-2.8449
X4.0882Y-2.9449
X4.0882Y-3.0449
X4.0882Y-3.1449
X4.0882Y-3.2449
X4.0882Y-3.3449
X4.0882Y-3.4449
X5.1181Y-2.0449
X5.1181Y-2.1449
X5.1181Y-2.2449
X5.1181Y-2.3449
X5.1181Y-2.4449
X5.1181Y-2.5449
X5.1181Y-2.6449
X5.1181Y-2.7449
X5.1181Y-2.8449
X5.1181Y-2.9449
X5.1181Y-3.0449
X5.1181Y-3.1449
X5.1181Y-3.2449
X5.1181Y-3.3449
X5.1181Y-3.4449
T3
X5.5118Y-3.5307
X5.5118Y-3.6307
X5.5118Y-3.7307
X5.5118Y-3.8307
X5.5118Y-3.9307
X5.5118Y-4.0307
X5.5118Y-4.1307
X5.5118Y-4.2307
X5.8118Y-3.5307
X5.8118Y-3.6307
X5.8118Y-3.7307
X5.8118Y-3.8307
X5.8118Y-3.9307
X5.8118Y-4.0307
X5.8118Y-4.1307
X5.8118Y-4.2307
X7.0866Y-3.248
X7.3866Y-3.248
X6.2992Y-2.5591
X6.5992Y-2.5591
X5.5394Y-3.2559
X5.6378Y-3.2559
X6.6929Y-4.626
X6.9929Y-4.626
X7.0866Y-4.626
X7.3866Y-4.626
X6.2992Y-3.937
X6.5992Y-3.937
X5.5354Y-4.3583
X5.6339Y-4.3583
X7.4803Y-4.626
X7.7803Y-4.626
X6.6929Y-2.5591
X6.9929Y-2.5591
X5.5197Y-2.4252
X5.5197Y-2.5252
X5.5197Y-2.6252
X5.5197Y-2.7252
X5.5197Y-2.8252
X5.5197Y-2.9252
X5.5197Y-3.0252
X5.5197Y-3.1252
X5.8197Y-2.4252
X5.8197Y-2.5252
X5.8197Y-2.6252
X5.8197Y-2.7252
X5.8197Y-2.8252
X5.8197Y-2.9252
X5.8197Y-3.0252
X5.8197Y-3.1252
X7.4803Y-3.937
X7.7803Y-3.937
X6.6929Y-3.248
X6.9929Y-3.248
X7.0866Y-2.5591
X7.3866Y-2.5591
X6.2992Y-3.248
X6.5992Y-3.248
X7.4803Y-2.5591
X7.7803Y-2.5591
X7.0866Y-3.937
X7.3866Y-3.937
X6.6929Y-3.937
X6.9929Y-3.937
X7.4803Y-3.248
X7.7803Y-3.248
X6.2992Y-4.626
X6.5992Y-4.626
T4
X6.7898Y-2.0669
X6.8898Y-2.0669
X7.5787Y-3.4449
X7.6787Y-3.4449
X7.5787Y-2.7559
X7.6787Y-2.7559
X7.185Y-2.0669
X7.285Y-2.0669
X7.5787Y-4.1339
X7.6787Y-4.1339
X6.3976Y-4.1339
X6.4976Y-4.1339
X6.3976Y-2.7559
X6.4976Y-2.7559
X6.7913Y-3.4449
X6.8913Y-3.4449
X6.3976Y-2.0669
X6.4976Y-2.0669
X7.5802Y-2.0669
X7.6802Y-2.0669
X6.7913Y-4.1339
X6.8913Y-4.1339
X7.1835Y-4.1339
X7.2835Y-4.1339
X6.3976Y-3.4449
X6.4976Y-3.4449
X6.7913Y-2.7559
X6.8913Y-2.7559
X7.185Y-2.7559
X7.285Y-2.7559
X7.1835Y-3.4449
X7.2835Y-3.4449
T5
X7.4718Y-2.9528
X7.4718Y-3.1299
X7.7277Y-2.9528
X7.7277Y-3.1299
X6.2992Y-3.6417
X6.2992Y-3.8189
X6.5551Y-3.6417
X6.5551Y-3.8189
X6.2992Y-2.2638
X6.2992Y-2.4409
X6.5551Y-2.2638
X6.5551Y-2.4409
X7.0866Y-3.6417
X7.0866Y-3.8189
X7.3425Y-3.6417
X7.3425Y-3.8189
X6.2992Y-4.3307
X6.2992Y-4.5079
X6.5551Y-4.3307
X6.5551Y-4.5079
X7.4803Y-3.6417
X7.4803Y-3.8189
X7.7362Y-3.6417
X7.7362Y-3.8189
X7.4803Y-2.2638
X7.4803Y-2.4409
X7.7362Y-2.2638
X7.7362Y-2.4409
X6.6929Y-3.6417
X6.6929Y-3.8189
X6.9488Y-3.6417
X6.9488Y-3.8189
X7.4803Y-4.3307
X7.4803Y-4.5079
X7.7362Y-4.3307
X7.7362Y-4.5079
X6.6929Y-2.9528
X6.6929Y-3.1299
X6.9488Y-2.9528
X6.9488Y-3.1299
X7.0866Y-2.2638
X7.0866Y-2.4409
X7.3425Y-2.2638
X7.3425Y-2.4409
X6.6929Y-2.2638
X6.6929Y-2.4409
X6.9488Y-2.2638
X6.9488Y-2.4409
X7.0866Y-2.9528
X7.0866Y-3.1299
X7.3425Y-2.9528
X7.3425Y-3.1299
X6.2992Y-2.9528
X6.2992Y-3.1299
X6.5551Y-2.9528
X6.5551Y-3.1299
X7.0866Y-4.3307
X7.0866Y-4.5079
X7.3425Y-4.3307
X7.3425Y-4.5079
X6.6929Y-4.3307
X6.6929Y-4.5079
X6.9488Y-4.3307
X6.9488Y-4.5079
T6
X5.5118Y-1.7717
X5.9118Y-1.7717
T0
M30
