G04 #@! TF.GenerationSoftware,KiCad,Pcbnew,(5.0.1-3-g963ef8bb5)*
G04 #@! TF.CreationDate,2019-09-16T23:21:21-05:00*
G04 #@! TF.ProjectId,smart_home_console,736D6172745F686F6D655F636F6E736F,rev?*
G04 #@! TF.SameCoordinates,Original*
G04 #@! TF.FileFunction,Legend,Top*
G04 #@! TF.FilePolarity,Positive*
%FSLAX46Y46*%
G04 Gerber Fmt 4.6, Leading zero omitted, Abs format (unit mm)*
G04 Created by KiCad (PCBNEW (5.0.1-3-g963ef8bb5)) date Monday, September 16, 2019 at 11:21:21 PM*
%MOMM*%
%LPD*%
G01*
G04 APERTURE LIST*
%ADD10C,0.300000*%
%ADD11C,0.120000*%
%ADD12C,0.150000*%
%ADD13C,0.010000*%
G04 APERTURE END LIST*
D10*
X108321428Y-111782142D02*
X108535714Y-111853571D01*
X108892857Y-111853571D01*
X109035714Y-111782142D01*
X109107142Y-111710714D01*
X109178571Y-111567857D01*
X109178571Y-111425000D01*
X109107142Y-111282142D01*
X109035714Y-111210714D01*
X108892857Y-111139285D01*
X108607142Y-111067857D01*
X108464285Y-110996428D01*
X108392857Y-110925000D01*
X108321428Y-110782142D01*
X108321428Y-110639285D01*
X108392857Y-110496428D01*
X108464285Y-110425000D01*
X108607142Y-110353571D01*
X108964285Y-110353571D01*
X109178571Y-110425000D01*
X109821428Y-111853571D02*
X109821428Y-110853571D01*
X109821428Y-110996428D02*
X109892857Y-110925000D01*
X110035714Y-110853571D01*
X110250000Y-110853571D01*
X110392857Y-110925000D01*
X110464285Y-111067857D01*
X110464285Y-111853571D01*
X110464285Y-111067857D02*
X110535714Y-110925000D01*
X110678571Y-110853571D01*
X110892857Y-110853571D01*
X111035714Y-110925000D01*
X111107142Y-111067857D01*
X111107142Y-111853571D01*
X112464285Y-111853571D02*
X112464285Y-111067857D01*
X112392857Y-110925000D01*
X112250000Y-110853571D01*
X111964285Y-110853571D01*
X111821428Y-110925000D01*
X112464285Y-111782142D02*
X112321428Y-111853571D01*
X111964285Y-111853571D01*
X111821428Y-111782142D01*
X111750000Y-111639285D01*
X111750000Y-111496428D01*
X111821428Y-111353571D01*
X111964285Y-111282142D01*
X112321428Y-111282142D01*
X112464285Y-111210714D01*
X113178571Y-111853571D02*
X113178571Y-110853571D01*
X113178571Y-111139285D02*
X113250000Y-110996428D01*
X113321428Y-110925000D01*
X113464285Y-110853571D01*
X113607142Y-110853571D01*
X113892857Y-110853571D02*
X114464285Y-110853571D01*
X114107142Y-110353571D02*
X114107142Y-111639285D01*
X114178571Y-111782142D01*
X114321428Y-111853571D01*
X114464285Y-111853571D01*
X116107142Y-111853571D02*
X116107142Y-110353571D01*
X116107142Y-111067857D02*
X116964285Y-111067857D01*
X116964285Y-111853571D02*
X116964285Y-110353571D01*
X117892857Y-111853571D02*
X117750000Y-111782142D01*
X117678571Y-111710714D01*
X117607142Y-111567857D01*
X117607142Y-111139285D01*
X117678571Y-110996428D01*
X117750000Y-110925000D01*
X117892857Y-110853571D01*
X118107142Y-110853571D01*
X118250000Y-110925000D01*
X118321428Y-110996428D01*
X118392857Y-111139285D01*
X118392857Y-111567857D01*
X118321428Y-111710714D01*
X118250000Y-111782142D01*
X118107142Y-111853571D01*
X117892857Y-111853571D01*
X119035714Y-111853571D02*
X119035714Y-110853571D01*
X119035714Y-110996428D02*
X119107142Y-110925000D01*
X119250000Y-110853571D01*
X119464285Y-110853571D01*
X119607142Y-110925000D01*
X119678571Y-111067857D01*
X119678571Y-111853571D01*
X119678571Y-111067857D02*
X119750000Y-110925000D01*
X119892857Y-110853571D01*
X120107142Y-110853571D01*
X120250000Y-110925000D01*
X120321428Y-111067857D01*
X120321428Y-111853571D01*
X121607142Y-111782142D02*
X121464285Y-111853571D01*
X121178571Y-111853571D01*
X121035714Y-111782142D01*
X120964285Y-111639285D01*
X120964285Y-111067857D01*
X121035714Y-110925000D01*
X121178571Y-110853571D01*
X121464285Y-110853571D01*
X121607142Y-110925000D01*
X121678571Y-111067857D01*
X121678571Y-111210714D01*
X120964285Y-111353571D01*
X124321428Y-111710714D02*
X124250000Y-111782142D01*
X124035714Y-111853571D01*
X123892857Y-111853571D01*
X123678571Y-111782142D01*
X123535714Y-111639285D01*
X123464285Y-111496428D01*
X123392857Y-111210714D01*
X123392857Y-110996428D01*
X123464285Y-110710714D01*
X123535714Y-110567857D01*
X123678571Y-110425000D01*
X123892857Y-110353571D01*
X124035714Y-110353571D01*
X124250000Y-110425000D01*
X124321428Y-110496428D01*
X125178571Y-111853571D02*
X125035714Y-111782142D01*
X124964285Y-111710714D01*
X124892857Y-111567857D01*
X124892857Y-111139285D01*
X124964285Y-110996428D01*
X125035714Y-110925000D01*
X125178571Y-110853571D01*
X125392857Y-110853571D01*
X125535714Y-110925000D01*
X125607142Y-110996428D01*
X125678571Y-111139285D01*
X125678571Y-111567857D01*
X125607142Y-111710714D01*
X125535714Y-111782142D01*
X125392857Y-111853571D01*
X125178571Y-111853571D01*
X126321428Y-110853571D02*
X126321428Y-111853571D01*
X126321428Y-110996428D02*
X126392857Y-110925000D01*
X126535714Y-110853571D01*
X126750000Y-110853571D01*
X126892857Y-110925000D01*
X126964285Y-111067857D01*
X126964285Y-111853571D01*
X127607142Y-111782142D02*
X127750000Y-111853571D01*
X128035714Y-111853571D01*
X128178571Y-111782142D01*
X128250000Y-111639285D01*
X128250000Y-111567857D01*
X128178571Y-111425000D01*
X128035714Y-111353571D01*
X127821428Y-111353571D01*
X127678571Y-111282142D01*
X127607142Y-111139285D01*
X127607142Y-111067857D01*
X127678571Y-110925000D01*
X127821428Y-110853571D01*
X128035714Y-110853571D01*
X128178571Y-110925000D01*
X129107142Y-111853571D02*
X128964285Y-111782142D01*
X128892857Y-111710714D01*
X128821428Y-111567857D01*
X128821428Y-111139285D01*
X128892857Y-110996428D01*
X128964285Y-110925000D01*
X129107142Y-110853571D01*
X129321428Y-110853571D01*
X129464285Y-110925000D01*
X129535714Y-110996428D01*
X129607142Y-111139285D01*
X129607142Y-111567857D01*
X129535714Y-111710714D01*
X129464285Y-111782142D01*
X129321428Y-111853571D01*
X129107142Y-111853571D01*
X130464285Y-111853571D02*
X130321428Y-111782142D01*
X130250000Y-111639285D01*
X130250000Y-110353571D01*
X131607142Y-111782142D02*
X131464285Y-111853571D01*
X131178571Y-111853571D01*
X131035714Y-111782142D01*
X130964285Y-111639285D01*
X130964285Y-111067857D01*
X131035714Y-110925000D01*
X131178571Y-110853571D01*
X131464285Y-110853571D01*
X131607142Y-110925000D01*
X131678571Y-111067857D01*
X131678571Y-111210714D01*
X130964285Y-111353571D01*
X111321428Y-114403571D02*
X111321428Y-112903571D01*
X111321428Y-113475000D02*
X111464285Y-113403571D01*
X111750000Y-113403571D01*
X111892857Y-113475000D01*
X111964285Y-113546428D01*
X112035714Y-113689285D01*
X112035714Y-114117857D01*
X111964285Y-114260714D01*
X111892857Y-114332142D01*
X111750000Y-114403571D01*
X111464285Y-114403571D01*
X111321428Y-114332142D01*
X112535714Y-113403571D02*
X112892857Y-114403571D01*
X113250000Y-113403571D02*
X112892857Y-114403571D01*
X112750000Y-114760714D01*
X112678571Y-114832142D01*
X112535714Y-114903571D01*
X114964285Y-114403571D02*
X114964285Y-112903571D01*
X115321428Y-112903571D01*
X115535714Y-112975000D01*
X115678571Y-113117857D01*
X115750000Y-113260714D01*
X115821428Y-113546428D01*
X115821428Y-113760714D01*
X115750000Y-114046428D01*
X115678571Y-114189285D01*
X115535714Y-114332142D01*
X115321428Y-114403571D01*
X114964285Y-114403571D01*
X117107142Y-114403571D02*
X117107142Y-113617857D01*
X117035714Y-113475000D01*
X116892857Y-113403571D01*
X116607142Y-113403571D01*
X116464285Y-113475000D01*
X117107142Y-114332142D02*
X116964285Y-114403571D01*
X116607142Y-114403571D01*
X116464285Y-114332142D01*
X116392857Y-114189285D01*
X116392857Y-114046428D01*
X116464285Y-113903571D01*
X116607142Y-113832142D01*
X116964285Y-113832142D01*
X117107142Y-113760714D01*
X117821428Y-113403571D02*
X117821428Y-114403571D01*
X117821428Y-113546428D02*
X117892857Y-113475000D01*
X118035714Y-113403571D01*
X118250000Y-113403571D01*
X118392857Y-113475000D01*
X118464285Y-113617857D01*
X118464285Y-114403571D01*
X120321428Y-114403571D02*
X120321428Y-112903571D01*
X121178571Y-114403571D02*
X120535714Y-113546428D01*
X121178571Y-112903571D02*
X120321428Y-113760714D01*
X121821428Y-114403571D02*
X121821428Y-113403571D01*
X121821428Y-112903571D02*
X121750000Y-112975000D01*
X121821428Y-113046428D01*
X121892857Y-112975000D01*
X121821428Y-112903571D01*
X121821428Y-113046428D01*
X122535714Y-114403571D02*
X122535714Y-113403571D01*
X122535714Y-113689285D02*
X122607142Y-113546428D01*
X122678571Y-113475000D01*
X122821428Y-113403571D01*
X122964285Y-113403571D01*
X123464285Y-114403571D02*
X123464285Y-112903571D01*
X123607142Y-113832142D02*
X124035714Y-114403571D01*
X124035714Y-113403571D02*
X123464285Y-113975000D01*
X124678571Y-114403571D02*
X124678571Y-112903571D01*
X125321428Y-114403571D02*
X125321428Y-113617857D01*
X125250000Y-113475000D01*
X125107142Y-113403571D01*
X124892857Y-113403571D01*
X124750000Y-113475000D01*
X124678571Y-113546428D01*
X126678571Y-114403571D02*
X126678571Y-113617857D01*
X126607142Y-113475000D01*
X126464285Y-113403571D01*
X126178571Y-113403571D01*
X126035714Y-113475000D01*
X126678571Y-114332142D02*
X126535714Y-114403571D01*
X126178571Y-114403571D01*
X126035714Y-114332142D01*
X125964285Y-114189285D01*
X125964285Y-114046428D01*
X126035714Y-113903571D01*
X126178571Y-113832142D01*
X126535714Y-113832142D01*
X126678571Y-113760714D01*
X127392857Y-114403571D02*
X127392857Y-113403571D01*
X127392857Y-113546428D02*
X127464285Y-113475000D01*
X127607142Y-113403571D01*
X127821428Y-113403571D01*
X127964285Y-113475000D01*
X128035714Y-113617857D01*
X128035714Y-114403571D01*
X128035714Y-113617857D02*
X128107142Y-113475000D01*
X128250000Y-113403571D01*
X128464285Y-113403571D01*
X128607142Y-113475000D01*
X128678571Y-113617857D01*
X128678571Y-114403571D01*
X117428571Y-115596428D02*
X117500000Y-115525000D01*
X117642857Y-115453571D01*
X118000000Y-115453571D01*
X118142857Y-115525000D01*
X118214285Y-115596428D01*
X118285714Y-115739285D01*
X118285714Y-115882142D01*
X118214285Y-116096428D01*
X117357142Y-116953571D01*
X118285714Y-116953571D01*
X119214285Y-115453571D02*
X119357142Y-115453571D01*
X119500000Y-115525000D01*
X119571428Y-115596428D01*
X119642857Y-115739285D01*
X119714285Y-116025000D01*
X119714285Y-116382142D01*
X119642857Y-116667857D01*
X119571428Y-116810714D01*
X119500000Y-116882142D01*
X119357142Y-116953571D01*
X119214285Y-116953571D01*
X119071428Y-116882142D01*
X119000000Y-116810714D01*
X118928571Y-116667857D01*
X118857142Y-116382142D01*
X118857142Y-116025000D01*
X118928571Y-115739285D01*
X119000000Y-115596428D01*
X119071428Y-115525000D01*
X119214285Y-115453571D01*
X121142857Y-116953571D02*
X120285714Y-116953571D01*
X120714285Y-116953571D02*
X120714285Y-115453571D01*
X120571428Y-115667857D01*
X120428571Y-115810714D01*
X120285714Y-115882142D01*
X121857142Y-116953571D02*
X122142857Y-116953571D01*
X122285714Y-116882142D01*
X122357142Y-116810714D01*
X122500000Y-116596428D01*
X122571428Y-116310714D01*
X122571428Y-115739285D01*
X122500000Y-115596428D01*
X122428571Y-115525000D01*
X122285714Y-115453571D01*
X122000000Y-115453571D01*
X121857142Y-115525000D01*
X121785714Y-115596428D01*
X121714285Y-115739285D01*
X121714285Y-116096428D01*
X121785714Y-116239285D01*
X121857142Y-116310714D01*
X122000000Y-116382142D01*
X122285714Y-116382142D01*
X122428571Y-116310714D01*
X122500000Y-116239285D01*
X122571428Y-116096428D01*
X107607142Y-118503571D02*
X107607142Y-119717857D01*
X107535714Y-119860714D01*
X107464285Y-119932142D01*
X107321428Y-120003571D01*
X107107142Y-120003571D01*
X106964285Y-119932142D01*
X107607142Y-119432142D02*
X107464285Y-119503571D01*
X107178571Y-119503571D01*
X107035714Y-119432142D01*
X106964285Y-119360714D01*
X106892857Y-119217857D01*
X106892857Y-118789285D01*
X106964285Y-118646428D01*
X107035714Y-118575000D01*
X107178571Y-118503571D01*
X107464285Y-118503571D01*
X107607142Y-118575000D01*
X108321428Y-119503571D02*
X108321428Y-118503571D01*
X108321428Y-118003571D02*
X108250000Y-118075000D01*
X108321428Y-118146428D01*
X108392857Y-118075000D01*
X108321428Y-118003571D01*
X108321428Y-118146428D01*
X108821428Y-118503571D02*
X109392857Y-118503571D01*
X109035714Y-118003571D02*
X109035714Y-119289285D01*
X109107142Y-119432142D01*
X109250000Y-119503571D01*
X109392857Y-119503571D01*
X109892857Y-119503571D02*
X109892857Y-118003571D01*
X110535714Y-119503571D02*
X110535714Y-118717857D01*
X110464285Y-118575000D01*
X110321428Y-118503571D01*
X110107142Y-118503571D01*
X109964285Y-118575000D01*
X109892857Y-118646428D01*
X111892857Y-118503571D02*
X111892857Y-119503571D01*
X111250000Y-118503571D02*
X111250000Y-119289285D01*
X111321428Y-119432142D01*
X111464285Y-119503571D01*
X111678571Y-119503571D01*
X111821428Y-119432142D01*
X111892857Y-119360714D01*
X112607142Y-119503571D02*
X112607142Y-118003571D01*
X112607142Y-118575000D02*
X112750000Y-118503571D01*
X113035714Y-118503571D01*
X113178571Y-118575000D01*
X113250000Y-118646428D01*
X113321428Y-118789285D01*
X113321428Y-119217857D01*
X113250000Y-119360714D01*
X113178571Y-119432142D01*
X113035714Y-119503571D01*
X112750000Y-119503571D01*
X112607142Y-119432142D01*
X113964285Y-119360714D02*
X114035714Y-119432142D01*
X113964285Y-119503571D01*
X113892857Y-119432142D01*
X113964285Y-119360714D01*
X113964285Y-119503571D01*
X115321428Y-119432142D02*
X115178571Y-119503571D01*
X114892857Y-119503571D01*
X114750000Y-119432142D01*
X114678571Y-119360714D01*
X114607142Y-119217857D01*
X114607142Y-118789285D01*
X114678571Y-118646428D01*
X114750000Y-118575000D01*
X114892857Y-118503571D01*
X115178571Y-118503571D01*
X115321428Y-118575000D01*
X116178571Y-119503571D02*
X116035714Y-119432142D01*
X115964285Y-119360714D01*
X115892857Y-119217857D01*
X115892857Y-118789285D01*
X115964285Y-118646428D01*
X116035714Y-118575000D01*
X116178571Y-118503571D01*
X116392857Y-118503571D01*
X116535714Y-118575000D01*
X116607142Y-118646428D01*
X116678571Y-118789285D01*
X116678571Y-119217857D01*
X116607142Y-119360714D01*
X116535714Y-119432142D01*
X116392857Y-119503571D01*
X116178571Y-119503571D01*
X117321428Y-119503571D02*
X117321428Y-118503571D01*
X117321428Y-118646428D02*
X117392857Y-118575000D01*
X117535714Y-118503571D01*
X117750000Y-118503571D01*
X117892857Y-118575000D01*
X117964285Y-118717857D01*
X117964285Y-119503571D01*
X117964285Y-118717857D02*
X118035714Y-118575000D01*
X118178571Y-118503571D01*
X118392857Y-118503571D01*
X118535714Y-118575000D01*
X118607142Y-118717857D01*
X118607142Y-119503571D01*
X120392857Y-117932142D02*
X119107142Y-119860714D01*
X121535714Y-119503571D02*
X121535714Y-118003571D01*
X121535714Y-119432142D02*
X121392857Y-119503571D01*
X121107142Y-119503571D01*
X120964285Y-119432142D01*
X120892857Y-119360714D01*
X120821428Y-119217857D01*
X120821428Y-118789285D01*
X120892857Y-118646428D01*
X120964285Y-118575000D01*
X121107142Y-118503571D01*
X121392857Y-118503571D01*
X121535714Y-118575000D01*
X122892857Y-119503571D02*
X122892857Y-118717857D01*
X122821428Y-118575000D01*
X122678571Y-118503571D01*
X122392857Y-118503571D01*
X122249999Y-118575000D01*
X122892857Y-119432142D02*
X122749999Y-119503571D01*
X122392857Y-119503571D01*
X122249999Y-119432142D01*
X122178571Y-119289285D01*
X122178571Y-119146428D01*
X122249999Y-119003571D01*
X122392857Y-118932142D01*
X122749999Y-118932142D01*
X122892857Y-118860714D01*
X123607142Y-118503571D02*
X123607142Y-119503571D01*
X123607142Y-118646428D02*
X123678571Y-118575000D01*
X123821428Y-118503571D01*
X124035714Y-118503571D01*
X124178571Y-118575000D01*
X124250000Y-118717857D01*
X124250000Y-119503571D01*
X124964285Y-119503571D02*
X124964285Y-118003571D01*
X125107142Y-118932142D02*
X125535714Y-119503571D01*
X125535714Y-118503571D02*
X124964285Y-119075000D01*
X126178571Y-119503571D02*
X126178571Y-118503571D01*
X126178571Y-118003571D02*
X126107142Y-118075000D01*
X126178571Y-118146428D01*
X126249999Y-118075000D01*
X126178571Y-118003571D01*
X126178571Y-118146428D01*
X126892857Y-119503571D02*
X126892857Y-118503571D01*
X126892857Y-118789285D02*
X126964285Y-118646428D01*
X127035714Y-118575000D01*
X127178571Y-118503571D01*
X127321428Y-118503571D01*
X127821428Y-119503571D02*
X127821428Y-118003571D01*
X127964285Y-118932142D02*
X128392857Y-119503571D01*
X128392857Y-118503571D02*
X127821428Y-119075000D01*
X129035714Y-119503571D02*
X129035714Y-118003571D01*
X129678571Y-119503571D02*
X129678571Y-118717857D01*
X129607142Y-118575000D01*
X129464285Y-118503571D01*
X129249999Y-118503571D01*
X129107142Y-118575000D01*
X129035714Y-118646428D01*
X131035714Y-119503571D02*
X131035714Y-118717857D01*
X130964285Y-118575000D01*
X130821428Y-118503571D01*
X130535714Y-118503571D01*
X130392857Y-118575000D01*
X131035714Y-119432142D02*
X130892857Y-119503571D01*
X130535714Y-119503571D01*
X130392857Y-119432142D01*
X130321428Y-119289285D01*
X130321428Y-119146428D01*
X130392857Y-119003571D01*
X130535714Y-118932142D01*
X130892857Y-118932142D01*
X131035714Y-118860714D01*
X131749999Y-119503571D02*
X131749999Y-118503571D01*
X131749999Y-118646428D02*
X131821428Y-118575000D01*
X131964285Y-118503571D01*
X132178571Y-118503571D01*
X132321428Y-118575000D01*
X132392857Y-118717857D01*
X132392857Y-119503571D01*
X132392857Y-118717857D02*
X132464285Y-118575000D01*
X132607142Y-118503571D01*
X132821428Y-118503571D01*
X132964285Y-118575000D01*
X133035714Y-118717857D01*
X133035714Y-119503571D01*
X148857142Y-40750000D02*
X148714285Y-40678571D01*
X148500000Y-40678571D01*
X148285714Y-40750000D01*
X148142857Y-40892857D01*
X148071428Y-41035714D01*
X148000000Y-41321428D01*
X148000000Y-41535714D01*
X148071428Y-41821428D01*
X148142857Y-41964285D01*
X148285714Y-42107142D01*
X148500000Y-42178571D01*
X148642857Y-42178571D01*
X148857142Y-42107142D01*
X148928571Y-42035714D01*
X148928571Y-41535714D01*
X148642857Y-41535714D01*
X149571428Y-42178571D02*
X149571428Y-40678571D01*
X150428571Y-42178571D01*
X150428571Y-40678571D01*
X151142857Y-42178571D02*
X151142857Y-40678571D01*
X151500000Y-40678571D01*
X151714285Y-40750000D01*
X151857142Y-40892857D01*
X151928571Y-41035714D01*
X152000000Y-41321428D01*
X152000000Y-41535714D01*
X151928571Y-41821428D01*
X151857142Y-41964285D01*
X151714285Y-42107142D01*
X151500000Y-42178571D01*
X151142857Y-42178571D01*
X138357142Y-40678571D02*
X138857142Y-42178571D01*
X139357142Y-40678571D01*
X139857142Y-42178571D02*
X139857142Y-40678571D01*
X140571428Y-42178571D02*
X140571428Y-40678571D01*
X141428571Y-42178571D01*
X141428571Y-40678571D01*
X140642857Y-58178571D02*
X141571428Y-58178571D01*
X141071428Y-58750000D01*
X141285714Y-58750000D01*
X141428571Y-58821428D01*
X141500000Y-58892857D01*
X141571428Y-59035714D01*
X141571428Y-59392857D01*
X141500000Y-59535714D01*
X141428571Y-59607142D01*
X141285714Y-59678571D01*
X140857142Y-59678571D01*
X140714285Y-59607142D01*
X140642857Y-59535714D01*
X142000000Y-58178571D02*
X142500000Y-59678571D01*
X143000000Y-58178571D01*
X143357142Y-58178571D02*
X144285714Y-58178571D01*
X143785714Y-58750000D01*
X144000000Y-58750000D01*
X144142857Y-58821428D01*
X144214285Y-58892857D01*
X144285714Y-59035714D01*
X144285714Y-59392857D01*
X144214285Y-59535714D01*
X144142857Y-59607142D01*
X144000000Y-59678571D01*
X143571428Y-59678571D01*
X143428571Y-59607142D01*
X143357142Y-59535714D01*
X141357142Y-50250000D02*
X141214285Y-50178571D01*
X141000000Y-50178571D01*
X140785714Y-50250000D01*
X140642857Y-50392857D01*
X140571428Y-50535714D01*
X140500000Y-50821428D01*
X140500000Y-51035714D01*
X140571428Y-51321428D01*
X140642857Y-51464285D01*
X140785714Y-51607142D01*
X141000000Y-51678571D01*
X141142857Y-51678571D01*
X141357142Y-51607142D01*
X141428571Y-51535714D01*
X141428571Y-51035714D01*
X141142857Y-51035714D01*
X142071428Y-51678571D02*
X142071428Y-50178571D01*
X142928571Y-51678571D01*
X142928571Y-50178571D01*
X143642857Y-51678571D02*
X143642857Y-50178571D01*
X144000000Y-50178571D01*
X144214285Y-50250000D01*
X144357142Y-50392857D01*
X144428571Y-50535714D01*
X144500000Y-50821428D01*
X144500000Y-51035714D01*
X144428571Y-51321428D01*
X144357142Y-51464285D01*
X144214285Y-51607142D01*
X144000000Y-51678571D01*
X143642857Y-51678571D01*
X135678571Y-55678571D02*
X135178571Y-54964285D01*
X134821428Y-55678571D02*
X134821428Y-54178571D01*
X135392857Y-54178571D01*
X135535714Y-54250000D01*
X135607142Y-54321428D01*
X135678571Y-54464285D01*
X135678571Y-54678571D01*
X135607142Y-54821428D01*
X135535714Y-54892857D01*
X135392857Y-54964285D01*
X134821428Y-54964285D01*
X136250000Y-55607142D02*
X136464285Y-55678571D01*
X136821428Y-55678571D01*
X136964285Y-55607142D01*
X137035714Y-55535714D01*
X137107142Y-55392857D01*
X137107142Y-55250000D01*
X137035714Y-55107142D01*
X136964285Y-55035714D01*
X136821428Y-54964285D01*
X136535714Y-54892857D01*
X136392857Y-54821428D01*
X136321428Y-54750000D01*
X136250000Y-54607142D01*
X136250000Y-54464285D01*
X136321428Y-54321428D01*
X136392857Y-54250000D01*
X136535714Y-54178571D01*
X136892857Y-54178571D01*
X137107142Y-54250000D01*
X137535714Y-54178571D02*
X138392857Y-54178571D01*
X137964285Y-55678571D02*
X137964285Y-54178571D01*
X146892857Y-54892857D02*
X147392857Y-54892857D01*
X147607142Y-55678571D02*
X146892857Y-55678571D01*
X146892857Y-54178571D01*
X147607142Y-54178571D01*
X148250000Y-55678571D02*
X148250000Y-54178571D01*
X149107142Y-55678571D01*
X149107142Y-54178571D01*
D11*
G04 #@! TO.C,C1*
X144510000Y-81390000D02*
X144510000Y-84010000D01*
X139390000Y-81390000D02*
X139390000Y-84010000D01*
X139390000Y-84010000D02*
X144510000Y-84010000D01*
X139390000Y-81390000D02*
X144510000Y-81390000D01*
G04 #@! TO.C,C2*
X139290000Y-109390000D02*
X144410000Y-109390000D01*
X139290000Y-112010000D02*
X144410000Y-112010000D01*
X139290000Y-109390000D02*
X139290000Y-112010000D01*
X144410000Y-109390000D02*
X144410000Y-112010000D01*
G04 #@! TO.C,JP1*
X144700000Y-52950000D02*
X145300000Y-52950000D01*
X144000000Y-56400000D02*
X144000000Y-53600000D01*
X145300000Y-57050000D02*
X144700000Y-57050000D01*
X146000000Y-53600000D02*
X146000000Y-56400000D01*
X146000000Y-56350000D02*
G75*
G02X145300000Y-57050000I-700000J0D01*
G01*
X144700000Y-57050000D02*
G75*
G02X144000000Y-56350000I0J700000D01*
G01*
X144000000Y-53650000D02*
G75*
G02X144700000Y-52950000I700000J0D01*
G01*
X145300000Y-52950000D02*
G75*
G02X146000000Y-53650000I0J-700000D01*
G01*
G04 #@! TO.C,JP2*
X140300000Y-52950000D02*
G75*
G02X141000000Y-53650000I0J-700000D01*
G01*
X139000000Y-53650000D02*
G75*
G02X139700000Y-52950000I700000J0D01*
G01*
X139700000Y-57050000D02*
G75*
G02X139000000Y-56350000I0J700000D01*
G01*
X141000000Y-56350000D02*
G75*
G02X140300000Y-57050000I-700000J0D01*
G01*
X141000000Y-53600000D02*
X141000000Y-56400000D01*
X140300000Y-57050000D02*
X139700000Y-57050000D01*
X139000000Y-56400000D02*
X139000000Y-53600000D01*
X139700000Y-52950000D02*
X140300000Y-52950000D01*
G04 #@! TO.C,LED1*
X162210000Y-53580000D02*
X162210000Y-53736000D01*
X162210000Y-51264000D02*
X162210000Y-51420000D01*
X164811130Y-53579837D02*
G75*
G02X162729039Y-53580000I-1041130J1079837D01*
G01*
X164811130Y-51420163D02*
G75*
G03X162729039Y-51420000I-1041130J-1079837D01*
G01*
X165442335Y-53578608D02*
G75*
G02X162210000Y-53735516I-1672335J1078608D01*
G01*
X165442335Y-51421392D02*
G75*
G03X162210000Y-51264484I-1672335J-1078608D01*
G01*
G04 #@! TO.C,LED2*
X172170000Y-53580000D02*
X172170000Y-53736000D01*
X172170000Y-51264000D02*
X172170000Y-51420000D01*
X174771130Y-53579837D02*
G75*
G02X172689039Y-53580000I-1041130J1079837D01*
G01*
X174771130Y-51420163D02*
G75*
G03X172689039Y-51420000I-1041130J-1079837D01*
G01*
X175402335Y-53578608D02*
G75*
G02X172170000Y-53735516I-1672335J1078608D01*
G01*
X175402335Y-51421392D02*
G75*
G03X172170000Y-51264484I-1672335J-1078608D01*
G01*
G04 #@! TO.C,LED3*
X185442335Y-51421392D02*
G75*
G03X182210000Y-51264484I-1672335J-1078608D01*
G01*
X185442335Y-53578608D02*
G75*
G02X182210000Y-53735516I-1672335J1078608D01*
G01*
X184811130Y-51420163D02*
G75*
G03X182729039Y-51420000I-1041130J-1079837D01*
G01*
X184811130Y-53579837D02*
G75*
G02X182729039Y-53580000I-1041130J1079837D01*
G01*
X182210000Y-51264000D02*
X182210000Y-51420000D01*
X182210000Y-53580000D02*
X182210000Y-53736000D01*
G04 #@! TO.C,LED4*
X195478335Y-51421392D02*
G75*
G03X192246000Y-51264484I-1672335J-1078608D01*
G01*
X195478335Y-53578608D02*
G75*
G02X192246000Y-53735516I-1672335J1078608D01*
G01*
X194847130Y-51420163D02*
G75*
G03X192765039Y-51420000I-1041130J-1079837D01*
G01*
X194847130Y-53579837D02*
G75*
G02X192765039Y-53580000I-1041130J1079837D01*
G01*
X192246000Y-51264000D02*
X192246000Y-51420000D01*
X192246000Y-53580000D02*
X192246000Y-53736000D01*
G04 #@! TO.C,LED5*
X165442335Y-68921392D02*
G75*
G03X162210000Y-68764484I-1672335J-1078608D01*
G01*
X165442335Y-71078608D02*
G75*
G02X162210000Y-71235516I-1672335J1078608D01*
G01*
X164811130Y-68920163D02*
G75*
G03X162729039Y-68920000I-1041130J-1079837D01*
G01*
X164811130Y-71079837D02*
G75*
G02X162729039Y-71080000I-1041130J1079837D01*
G01*
X162210000Y-68764000D02*
X162210000Y-68920000D01*
X162210000Y-71080000D02*
X162210000Y-71236000D01*
G04 #@! TO.C,LED6*
X175442335Y-68921392D02*
G75*
G03X172210000Y-68764484I-1672335J-1078608D01*
G01*
X175442335Y-71078608D02*
G75*
G02X172210000Y-71235516I-1672335J1078608D01*
G01*
X174811130Y-68920163D02*
G75*
G03X172729039Y-68920000I-1041130J-1079837D01*
G01*
X174811130Y-71079837D02*
G75*
G02X172729039Y-71080000I-1041130J1079837D01*
G01*
X172210000Y-68764000D02*
X172210000Y-68920000D01*
X172210000Y-71080000D02*
X172210000Y-71236000D01*
G04 #@! TO.C,LED7*
X185442335Y-68921392D02*
G75*
G03X182210000Y-68764484I-1672335J-1078608D01*
G01*
X185442335Y-71078608D02*
G75*
G02X182210000Y-71235516I-1672335J1078608D01*
G01*
X184811130Y-68920163D02*
G75*
G03X182729039Y-68920000I-1041130J-1079837D01*
G01*
X184811130Y-71079837D02*
G75*
G02X182729039Y-71080000I-1041130J1079837D01*
G01*
X182210000Y-68764000D02*
X182210000Y-68920000D01*
X182210000Y-71080000D02*
X182210000Y-71236000D01*
G04 #@! TO.C,LED8*
X192210000Y-71080000D02*
X192210000Y-71236000D01*
X192210000Y-68764000D02*
X192210000Y-68920000D01*
X194811130Y-71079837D02*
G75*
G02X192729039Y-71080000I-1041130J1079837D01*
G01*
X194811130Y-68920163D02*
G75*
G03X192729039Y-68920000I-1041130J-1079837D01*
G01*
X195442335Y-71078608D02*
G75*
G02X192210000Y-71235516I-1672335J1078608D01*
G01*
X195442335Y-68921392D02*
G75*
G03X192210000Y-68764484I-1672335J-1078608D01*
G01*
G04 #@! TO.C,LED9*
X165442335Y-86421392D02*
G75*
G03X162210000Y-86264484I-1672335J-1078608D01*
G01*
X165442335Y-88578608D02*
G75*
G02X162210000Y-88735516I-1672335J1078608D01*
G01*
X164811130Y-86420163D02*
G75*
G03X162729039Y-86420000I-1041130J-1079837D01*
G01*
X164811130Y-88579837D02*
G75*
G02X162729039Y-88580000I-1041130J1079837D01*
G01*
X162210000Y-86264000D02*
X162210000Y-86420000D01*
X162210000Y-88580000D02*
X162210000Y-88736000D01*
G04 #@! TO.C,LED10*
X175442335Y-86421392D02*
G75*
G03X172210000Y-86264484I-1672335J-1078608D01*
G01*
X175442335Y-88578608D02*
G75*
G02X172210000Y-88735516I-1672335J1078608D01*
G01*
X174811130Y-86420163D02*
G75*
G03X172729039Y-86420000I-1041130J-1079837D01*
G01*
X174811130Y-88579837D02*
G75*
G02X172729039Y-88580000I-1041130J1079837D01*
G01*
X172210000Y-86264000D02*
X172210000Y-86420000D01*
X172210000Y-88580000D02*
X172210000Y-88736000D01*
G04 #@! TO.C,LED11*
X185402335Y-86421392D02*
G75*
G03X182170000Y-86264484I-1672335J-1078608D01*
G01*
X185402335Y-88578608D02*
G75*
G02X182170000Y-88735516I-1672335J1078608D01*
G01*
X184771130Y-86420163D02*
G75*
G03X182689039Y-86420000I-1041130J-1079837D01*
G01*
X184771130Y-88579837D02*
G75*
G02X182689039Y-88580000I-1041130J1079837D01*
G01*
X182170000Y-86264000D02*
X182170000Y-86420000D01*
X182170000Y-88580000D02*
X182170000Y-88736000D01*
G04 #@! TO.C,LED12*
X192210000Y-88580000D02*
X192210000Y-88736000D01*
X192210000Y-86264000D02*
X192210000Y-86420000D01*
X194811130Y-88579837D02*
G75*
G02X192729039Y-88580000I-1041130J1079837D01*
G01*
X194811130Y-86420163D02*
G75*
G03X192729039Y-86420000I-1041130J-1079837D01*
G01*
X195442335Y-88578608D02*
G75*
G02X192210000Y-88735516I-1672335J1078608D01*
G01*
X195442335Y-86421392D02*
G75*
G03X192210000Y-86264484I-1672335J-1078608D01*
G01*
G04 #@! TO.C,LED13*
X162210000Y-106080000D02*
X162210000Y-106236000D01*
X162210000Y-103764000D02*
X162210000Y-103920000D01*
X164811130Y-106079837D02*
G75*
G02X162729039Y-106080000I-1041130J1079837D01*
G01*
X164811130Y-103920163D02*
G75*
G03X162729039Y-103920000I-1041130J-1079837D01*
G01*
X165442335Y-106078608D02*
G75*
G02X162210000Y-106235516I-1672335J1078608D01*
G01*
X165442335Y-103921392D02*
G75*
G03X162210000Y-103764484I-1672335J-1078608D01*
G01*
G04 #@! TO.C,LED14*
X172210000Y-106080000D02*
X172210000Y-106236000D01*
X172210000Y-103764000D02*
X172210000Y-103920000D01*
X174811130Y-106079837D02*
G75*
G02X172729039Y-106080000I-1041130J1079837D01*
G01*
X174811130Y-103920163D02*
G75*
G03X172729039Y-103920000I-1041130J-1079837D01*
G01*
X175442335Y-106078608D02*
G75*
G02X172210000Y-106235516I-1672335J1078608D01*
G01*
X175442335Y-103921392D02*
G75*
G03X172210000Y-103764484I-1672335J-1078608D01*
G01*
G04 #@! TO.C,LED15*
X182170000Y-106080000D02*
X182170000Y-106236000D01*
X182170000Y-103764000D02*
X182170000Y-103920000D01*
X184771130Y-106079837D02*
G75*
G02X182689039Y-106080000I-1041130J1079837D01*
G01*
X184771130Y-103920163D02*
G75*
G03X182689039Y-103920000I-1041130J-1079837D01*
G01*
X185402335Y-106078608D02*
G75*
G02X182170000Y-106235516I-1672335J1078608D01*
G01*
X185402335Y-103921392D02*
G75*
G03X182170000Y-103764484I-1672335J-1078608D01*
G01*
G04 #@! TO.C,LED16*
X192210000Y-106080000D02*
X192210000Y-106236000D01*
X192210000Y-103764000D02*
X192210000Y-103920000D01*
X194811130Y-106079837D02*
G75*
G02X192729039Y-106080000I-1041130J1079837D01*
G01*
X194811130Y-103920163D02*
G75*
G03X192729039Y-103920000I-1041130J-1079837D01*
G01*
X195442335Y-106078608D02*
G75*
G02X192210000Y-106235516I-1672335J1078608D01*
G01*
X195442335Y-103921392D02*
G75*
G03X192210000Y-103764484I-1672335J-1078608D01*
G01*
G04 #@! TO.C,R1*
X114120000Y-101750000D02*
X114120000Y-100550000D01*
X115880000Y-100550000D02*
X115880000Y-101750000D01*
G04 #@! TO.C,R2*
X120880000Y-100550000D02*
X120880000Y-101750000D01*
X119120000Y-101750000D02*
X119120000Y-100550000D01*
G04 #@! TO.C,R3*
X125880000Y-100550000D02*
X125880000Y-101750000D01*
X124120000Y-101750000D02*
X124120000Y-100550000D01*
G04 #@! TO.C,R4*
X130880000Y-100550000D02*
X130880000Y-101750000D01*
X129120000Y-101750000D02*
X129120000Y-100550000D01*
G04 #@! TO.C,R5*
X166620000Y-53100000D02*
X166620000Y-51900000D01*
X168380000Y-51900000D02*
X168380000Y-53100000D01*
G04 #@! TO.C,R6*
X178380000Y-51900000D02*
X178380000Y-53100000D01*
X176620000Y-53100000D02*
X176620000Y-51900000D01*
G04 #@! TO.C,R7*
X188380000Y-51900000D02*
X188380000Y-53100000D01*
X186620000Y-53100000D02*
X186620000Y-51900000D01*
G04 #@! TO.C,R8*
X198380000Y-51900000D02*
X198380000Y-53100000D01*
X196620000Y-53100000D02*
X196620000Y-51900000D01*
G04 #@! TO.C,R9*
X166620000Y-70600000D02*
X166620000Y-69400000D01*
X168380000Y-69400000D02*
X168380000Y-70600000D01*
G04 #@! TO.C,R10*
X178380000Y-69400000D02*
X178380000Y-70600000D01*
X176620000Y-70600000D02*
X176620000Y-69400000D01*
G04 #@! TO.C,R11*
X186620000Y-70600000D02*
X186620000Y-69400000D01*
X188380000Y-69400000D02*
X188380000Y-70600000D01*
G04 #@! TO.C,R12*
X196620000Y-70600000D02*
X196620000Y-69400000D01*
X198380000Y-69400000D02*
X198380000Y-70600000D01*
G04 #@! TO.C,R13*
X168380000Y-86900000D02*
X168380000Y-88100000D01*
X166620000Y-88100000D02*
X166620000Y-86900000D01*
G04 #@! TO.C,R14*
X178380000Y-86900000D02*
X178380000Y-88100000D01*
X176620000Y-88100000D02*
X176620000Y-86900000D01*
G04 #@! TO.C,R15*
X188380000Y-86900000D02*
X188380000Y-88100000D01*
X186620000Y-88100000D02*
X186620000Y-86900000D01*
G04 #@! TO.C,R16*
X198380000Y-86900000D02*
X198380000Y-88100000D01*
X196620000Y-88100000D02*
X196620000Y-86900000D01*
G04 #@! TO.C,R17*
X166620000Y-105600000D02*
X166620000Y-104400000D01*
X168380000Y-104400000D02*
X168380000Y-105600000D01*
G04 #@! TO.C,R18*
X176620000Y-105600000D02*
X176620000Y-104400000D01*
X178380000Y-104400000D02*
X178380000Y-105600000D01*
G04 #@! TO.C,R19*
X186620000Y-105600000D02*
X186620000Y-104400000D01*
X188380000Y-104400000D02*
X188380000Y-105600000D01*
G04 #@! TO.C,R20*
X198380000Y-104400000D02*
X198380000Y-105600000D01*
X196620000Y-105600000D02*
X196620000Y-104400000D01*
D12*
G04 #@! TO.C,SW1*
X160250000Y-56750000D02*
X166250000Y-56750000D01*
X166250000Y-56750000D02*
X166250000Y-62750000D01*
X166250000Y-62750000D02*
X160250000Y-62750000D01*
X160250000Y-62750000D02*
X160250000Y-56750000D01*
G04 #@! TO.C,SW2*
X170250000Y-62750000D02*
X170250000Y-56750000D01*
X176250000Y-62750000D02*
X170250000Y-62750000D01*
X176250000Y-56750000D02*
X176250000Y-62750000D01*
X170250000Y-56750000D02*
X176250000Y-56750000D01*
G04 #@! TO.C,SW3*
X180250000Y-56750000D02*
X186250000Y-56750000D01*
X186250000Y-56750000D02*
X186250000Y-62750000D01*
X186250000Y-62750000D02*
X180250000Y-62750000D01*
X180250000Y-62750000D02*
X180250000Y-56750000D01*
G04 #@! TO.C,SW4*
X190250000Y-62750000D02*
X190250000Y-56750000D01*
X196250000Y-62750000D02*
X190250000Y-62750000D01*
X196250000Y-56750000D02*
X196250000Y-62750000D01*
X190250000Y-56750000D02*
X196250000Y-56750000D01*
G04 #@! TO.C,SW5*
X160250000Y-74250000D02*
X166250000Y-74250000D01*
X166250000Y-74250000D02*
X166250000Y-80250000D01*
X166250000Y-80250000D02*
X160250000Y-80250000D01*
X160250000Y-80250000D02*
X160250000Y-74250000D01*
G04 #@! TO.C,SW6*
X170250000Y-80250000D02*
X170250000Y-74250000D01*
X176250000Y-80250000D02*
X170250000Y-80250000D01*
X176250000Y-74250000D02*
X176250000Y-80250000D01*
X170250000Y-74250000D02*
X176250000Y-74250000D01*
G04 #@! TO.C,SW7*
X180250000Y-74250000D02*
X186250000Y-74250000D01*
X186250000Y-74250000D02*
X186250000Y-80250000D01*
X186250000Y-80250000D02*
X180250000Y-80250000D01*
X180250000Y-80250000D02*
X180250000Y-74250000D01*
G04 #@! TO.C,SW8*
X190032500Y-80250000D02*
X190032500Y-74250000D01*
X196032500Y-80250000D02*
X190032500Y-80250000D01*
X196032500Y-74250000D02*
X196032500Y-80250000D01*
X190032500Y-74250000D02*
X196032500Y-74250000D01*
G04 #@! TO.C,SW9*
X160250000Y-91750000D02*
X166250000Y-91750000D01*
X166250000Y-91750000D02*
X166250000Y-97750000D01*
X166250000Y-97750000D02*
X160250000Y-97750000D01*
X160250000Y-97750000D02*
X160250000Y-91750000D01*
G04 #@! TO.C,SW10*
X170250000Y-97750000D02*
X170250000Y-91750000D01*
X176250000Y-97750000D02*
X170250000Y-97750000D01*
X176250000Y-91750000D02*
X176250000Y-97750000D01*
X170250000Y-91750000D02*
X176250000Y-91750000D01*
G04 #@! TO.C,SW11*
X180250000Y-91750000D02*
X186250000Y-91750000D01*
X186250000Y-91750000D02*
X186250000Y-97750000D01*
X186250000Y-97750000D02*
X180250000Y-97750000D01*
X180250000Y-97750000D02*
X180250000Y-91750000D01*
G04 #@! TO.C,SW12*
X190250000Y-97750000D02*
X190250000Y-91750000D01*
X196250000Y-97750000D02*
X190250000Y-97750000D01*
X196250000Y-91750000D02*
X196250000Y-97750000D01*
X190250000Y-91750000D02*
X196250000Y-91750000D01*
G04 #@! TO.C,SW13*
X160250000Y-115250000D02*
X160250000Y-109250000D01*
X166250000Y-115250000D02*
X160250000Y-115250000D01*
X166250000Y-109250000D02*
X166250000Y-115250000D01*
X160250000Y-109250000D02*
X166250000Y-109250000D01*
G04 #@! TO.C,SW14*
X170250000Y-109250000D02*
X176250000Y-109250000D01*
X176250000Y-109250000D02*
X176250000Y-115250000D01*
X176250000Y-115250000D02*
X170250000Y-115250000D01*
X170250000Y-115250000D02*
X170250000Y-109250000D01*
G04 #@! TO.C,SW15*
X180250000Y-115250000D02*
X180250000Y-109250000D01*
X186250000Y-115250000D02*
X180250000Y-115250000D01*
X186250000Y-109250000D02*
X186250000Y-115250000D01*
X180250000Y-109250000D02*
X186250000Y-109250000D01*
G04 #@! TO.C,SW16*
X190250000Y-109250000D02*
X196250000Y-109250000D01*
X196250000Y-109250000D02*
X196250000Y-115250000D01*
X196250000Y-115250000D02*
X190250000Y-115250000D01*
X190250000Y-115250000D02*
X190250000Y-109250000D01*
D11*
G04 #@! TO.C,U2*
X141360000Y-80710000D02*
X143010000Y-80710000D01*
X141360000Y-60270000D02*
X141360000Y-80710000D01*
X146660000Y-60270000D02*
X141360000Y-60270000D01*
X146660000Y-80710000D02*
X146660000Y-60270000D01*
X145010000Y-80710000D02*
X146660000Y-80710000D01*
X143010000Y-80710000D02*
G75*
G02X145010000Y-80710000I1000000J0D01*
G01*
G04 #@! TO.C,U3*
X142810000Y-108790000D02*
G75*
G02X144810000Y-108790000I1000000J0D01*
G01*
X144810000Y-108790000D02*
X146460000Y-108790000D01*
X146460000Y-108790000D02*
X146460000Y-88350000D01*
X146460000Y-88350000D02*
X141160000Y-88350000D01*
X141160000Y-88350000D02*
X141160000Y-108790000D01*
X141160000Y-108790000D02*
X142810000Y-108790000D01*
D12*
G04 #@! TO.C,U1*
X131500000Y-94500000D02*
X102000000Y-94500000D01*
X131500000Y-94500000D02*
X131500000Y-45500000D01*
X102000000Y-94500000D02*
X102000000Y-45500000D01*
X131500000Y-45500000D02*
X102000000Y-45500000D01*
D11*
G04 #@! TO.C,D1*
X161750000Y-63940000D02*
X161750000Y-66060000D01*
X161750000Y-66060000D02*
X165870000Y-66060000D01*
X165870000Y-66060000D02*
X165870000Y-63940000D01*
X165870000Y-63940000D02*
X161750000Y-63940000D01*
X160980000Y-65000000D02*
X161750000Y-65000000D01*
X166640000Y-65000000D02*
X165870000Y-65000000D01*
X162410000Y-63940000D02*
X162410000Y-66060000D01*
G04 #@! TO.C,D2*
X172410000Y-63940000D02*
X172410000Y-66060000D01*
X176640000Y-65000000D02*
X175870000Y-65000000D01*
X170980000Y-65000000D02*
X171750000Y-65000000D01*
X175870000Y-63940000D02*
X171750000Y-63940000D01*
X175870000Y-66060000D02*
X175870000Y-63940000D01*
X171750000Y-66060000D02*
X175870000Y-66060000D01*
X171750000Y-63940000D02*
X171750000Y-66060000D01*
G04 #@! TO.C,D3*
X181750000Y-63940000D02*
X181750000Y-66060000D01*
X181750000Y-66060000D02*
X185870000Y-66060000D01*
X185870000Y-66060000D02*
X185870000Y-63940000D01*
X185870000Y-63940000D02*
X181750000Y-63940000D01*
X180980000Y-65000000D02*
X181750000Y-65000000D01*
X186640000Y-65000000D02*
X185870000Y-65000000D01*
X182410000Y-63940000D02*
X182410000Y-66060000D01*
G04 #@! TO.C,D4*
X191750000Y-63940000D02*
X191750000Y-66060000D01*
X191750000Y-66060000D02*
X195870000Y-66060000D01*
X195870000Y-66060000D02*
X195870000Y-63940000D01*
X195870000Y-63940000D02*
X191750000Y-63940000D01*
X190980000Y-65000000D02*
X191750000Y-65000000D01*
X196640000Y-65000000D02*
X195870000Y-65000000D01*
X192410000Y-63940000D02*
X192410000Y-66060000D01*
G04 #@! TO.C,D5*
X161750000Y-81440000D02*
X161750000Y-83560000D01*
X161750000Y-83560000D02*
X165870000Y-83560000D01*
X165870000Y-83560000D02*
X165870000Y-81440000D01*
X165870000Y-81440000D02*
X161750000Y-81440000D01*
X160980000Y-82500000D02*
X161750000Y-82500000D01*
X166640000Y-82500000D02*
X165870000Y-82500000D01*
X162410000Y-81440000D02*
X162410000Y-83560000D01*
G04 #@! TO.C,D6*
X172410000Y-81440000D02*
X172410000Y-83560000D01*
X176640000Y-82500000D02*
X175870000Y-82500000D01*
X170980000Y-82500000D02*
X171750000Y-82500000D01*
X175870000Y-81440000D02*
X171750000Y-81440000D01*
X175870000Y-83560000D02*
X175870000Y-81440000D01*
X171750000Y-83560000D02*
X175870000Y-83560000D01*
X171750000Y-81440000D02*
X171750000Y-83560000D01*
G04 #@! TO.C,D7*
X181750000Y-81440000D02*
X181750000Y-83560000D01*
X181750000Y-83560000D02*
X185870000Y-83560000D01*
X185870000Y-83560000D02*
X185870000Y-81440000D01*
X185870000Y-81440000D02*
X181750000Y-81440000D01*
X180980000Y-82500000D02*
X181750000Y-82500000D01*
X186640000Y-82500000D02*
X185870000Y-82500000D01*
X182410000Y-81440000D02*
X182410000Y-83560000D01*
G04 #@! TO.C,D8*
X192410000Y-81440000D02*
X192410000Y-83560000D01*
X196640000Y-82500000D02*
X195870000Y-82500000D01*
X190980000Y-82500000D02*
X191750000Y-82500000D01*
X195870000Y-81440000D02*
X191750000Y-81440000D01*
X195870000Y-83560000D02*
X195870000Y-81440000D01*
X191750000Y-83560000D02*
X195870000Y-83560000D01*
X191750000Y-81440000D02*
X191750000Y-83560000D01*
G04 #@! TO.C,D9*
X161750000Y-98940000D02*
X161750000Y-101060000D01*
X161750000Y-101060000D02*
X165870000Y-101060000D01*
X165870000Y-101060000D02*
X165870000Y-98940000D01*
X165870000Y-98940000D02*
X161750000Y-98940000D01*
X160980000Y-100000000D02*
X161750000Y-100000000D01*
X166640000Y-100000000D02*
X165870000Y-100000000D01*
X162410000Y-98940000D02*
X162410000Y-101060000D01*
G04 #@! TO.C,D10*
X172410000Y-98940000D02*
X172410000Y-101060000D01*
X176640000Y-100000000D02*
X175870000Y-100000000D01*
X170980000Y-100000000D02*
X171750000Y-100000000D01*
X175870000Y-98940000D02*
X171750000Y-98940000D01*
X175870000Y-101060000D02*
X175870000Y-98940000D01*
X171750000Y-101060000D02*
X175870000Y-101060000D01*
X171750000Y-98940000D02*
X171750000Y-101060000D01*
G04 #@! TO.C,D11*
X181750000Y-98940000D02*
X181750000Y-101060000D01*
X181750000Y-101060000D02*
X185870000Y-101060000D01*
X185870000Y-101060000D02*
X185870000Y-98940000D01*
X185870000Y-98940000D02*
X181750000Y-98940000D01*
X180980000Y-100000000D02*
X181750000Y-100000000D01*
X186640000Y-100000000D02*
X185870000Y-100000000D01*
X182410000Y-98940000D02*
X182410000Y-101060000D01*
G04 #@! TO.C,D12*
X192410000Y-98940000D02*
X192410000Y-101060000D01*
X196640000Y-100000000D02*
X195870000Y-100000000D01*
X190980000Y-100000000D02*
X191750000Y-100000000D01*
X195870000Y-98940000D02*
X191750000Y-98940000D01*
X195870000Y-101060000D02*
X195870000Y-98940000D01*
X191750000Y-101060000D02*
X195870000Y-101060000D01*
X191750000Y-98940000D02*
X191750000Y-101060000D01*
G04 #@! TO.C,D13*
X161750000Y-116440000D02*
X161750000Y-118560000D01*
X161750000Y-118560000D02*
X165870000Y-118560000D01*
X165870000Y-118560000D02*
X165870000Y-116440000D01*
X165870000Y-116440000D02*
X161750000Y-116440000D01*
X160980000Y-117500000D02*
X161750000Y-117500000D01*
X166640000Y-117500000D02*
X165870000Y-117500000D01*
X162410000Y-116440000D02*
X162410000Y-118560000D01*
G04 #@! TO.C,D14*
X172410000Y-116440000D02*
X172410000Y-118560000D01*
X176640000Y-117500000D02*
X175870000Y-117500000D01*
X170980000Y-117500000D02*
X171750000Y-117500000D01*
X175870000Y-116440000D02*
X171750000Y-116440000D01*
X175870000Y-118560000D02*
X175870000Y-116440000D01*
X171750000Y-118560000D02*
X175870000Y-118560000D01*
X171750000Y-116440000D02*
X171750000Y-118560000D01*
G04 #@! TO.C,D15*
X181750000Y-116440000D02*
X181750000Y-118560000D01*
X181750000Y-118560000D02*
X185870000Y-118560000D01*
X185870000Y-118560000D02*
X185870000Y-116440000D01*
X185870000Y-116440000D02*
X181750000Y-116440000D01*
X180980000Y-117500000D02*
X181750000Y-117500000D01*
X186640000Y-117500000D02*
X185870000Y-117500000D01*
X182410000Y-116440000D02*
X182410000Y-118560000D01*
G04 #@! TO.C,D16*
X192410000Y-116440000D02*
X192410000Y-118560000D01*
X196640000Y-117500000D02*
X195870000Y-117500000D01*
X190980000Y-117500000D02*
X191750000Y-117500000D01*
X195870000Y-116440000D02*
X191750000Y-116440000D01*
X195870000Y-118560000D02*
X195870000Y-116440000D01*
X191750000Y-118560000D02*
X195870000Y-118560000D01*
X191750000Y-116440000D02*
X191750000Y-118560000D01*
D13*
G04 #@! TO.C,REF\002A\002A*
G36*
X186451363Y-122042699D02*
X186473155Y-122049976D01*
X186491586Y-122066420D01*
X186506935Y-122095197D01*
X186519481Y-122139474D01*
X186529505Y-122202418D01*
X186537283Y-122287194D01*
X186543096Y-122396971D01*
X186547223Y-122534914D01*
X186549943Y-122704191D01*
X186551535Y-122907968D01*
X186552277Y-123149411D01*
X186552450Y-123431687D01*
X186552332Y-123757964D01*
X186552203Y-124131407D01*
X186552200Y-124190500D01*
X186552122Y-124565884D01*
X186551849Y-124893711D01*
X186551318Y-125177221D01*
X186550469Y-125419658D01*
X186549240Y-125624261D01*
X186547569Y-125794274D01*
X186545395Y-125932939D01*
X186542657Y-126043496D01*
X186539292Y-126129188D01*
X186535241Y-126193257D01*
X186530441Y-126238944D01*
X186524831Y-126269492D01*
X186518349Y-126288141D01*
X186512285Y-126296885D01*
X186501209Y-126303992D01*
X186481001Y-126310213D01*
X186448490Y-126315606D01*
X186400503Y-126320229D01*
X186333867Y-126324140D01*
X186245410Y-126327396D01*
X186131960Y-126330056D01*
X185990344Y-126332175D01*
X185817390Y-126333813D01*
X185609924Y-126335028D01*
X185364776Y-126335876D01*
X185078771Y-126336415D01*
X184748739Y-126336703D01*
X184371505Y-126336798D01*
X184316999Y-126336800D01*
X183933176Y-126336726D01*
X183596980Y-126336467D01*
X183305239Y-126335965D01*
X183054781Y-126335162D01*
X182842432Y-126334000D01*
X182665021Y-126332422D01*
X182519375Y-126330371D01*
X182402322Y-126327787D01*
X182310688Y-126324615D01*
X182241303Y-126320795D01*
X182190992Y-126316271D01*
X182156584Y-126310985D01*
X182134907Y-126304879D01*
X182122787Y-126297895D01*
X182121714Y-126296885D01*
X182114465Y-126285627D01*
X182108138Y-126265152D01*
X182102672Y-126232219D01*
X182098006Y-126183586D01*
X182094078Y-126116011D01*
X182090826Y-126026252D01*
X182088190Y-125911068D01*
X182086107Y-125767217D01*
X182084517Y-125591456D01*
X182083358Y-125380544D01*
X182082568Y-125131239D01*
X182082086Y-124840300D01*
X182081851Y-124504484D01*
X182081800Y-124190500D01*
X182081877Y-123815115D01*
X182082150Y-123487288D01*
X182082681Y-123203778D01*
X182083530Y-122961341D01*
X182084759Y-122756738D01*
X182085948Y-122635729D01*
X182361199Y-122635729D01*
X182371637Y-122660638D01*
X182397944Y-122714844D01*
X182411999Y-122742699D01*
X182422932Y-122765774D01*
X182432174Y-122791420D01*
X182439867Y-122823859D01*
X182446152Y-122867308D01*
X182451172Y-122925988D01*
X182455068Y-123004117D01*
X182457983Y-123105917D01*
X182460057Y-123235605D01*
X182461434Y-123397401D01*
X182462254Y-123595525D01*
X182462659Y-123834197D01*
X182462791Y-124117635D01*
X182462799Y-124254290D01*
X182462439Y-124517726D01*
X182461402Y-124766037D01*
X182459756Y-124994556D01*
X182457568Y-125198618D01*
X182454903Y-125373558D01*
X182451830Y-125514711D01*
X182448415Y-125617410D01*
X182444724Y-125676991D01*
X182442224Y-125690370D01*
X182417800Y-125730136D01*
X182391968Y-125784350D01*
X182362289Y-125854200D01*
X182888794Y-125853811D01*
X183043967Y-125852849D01*
X183178350Y-125850381D01*
X183284999Y-125846674D01*
X183356970Y-125841992D01*
X183387319Y-125836600D01*
X183387094Y-125834761D01*
X183357145Y-125800826D01*
X183321332Y-125742626D01*
X183317244Y-125734811D01*
X183302318Y-125697521D01*
X183291307Y-125647267D01*
X183283669Y-125576556D01*
X183278866Y-125477898D01*
X183276356Y-125343800D01*
X183275601Y-125166772D01*
X183275600Y-125156961D01*
X183276833Y-124979347D01*
X183280396Y-124836876D01*
X183286078Y-124733727D01*
X183293672Y-124674078D01*
X183300414Y-124660400D01*
X183329914Y-124679770D01*
X183367641Y-124726744D01*
X183369915Y-124730250D01*
X183410493Y-124787268D01*
X183444699Y-124825500D01*
X183475147Y-124862632D01*
X183515083Y-124924966D01*
X183528671Y-124948833D01*
X183570820Y-125015930D01*
X183633527Y-125104720D01*
X183704592Y-125198064D01*
X183718542Y-125215533D01*
X183826661Y-125358344D01*
X183917138Y-125494967D01*
X183985389Y-125617349D01*
X184026831Y-125717440D01*
X184037600Y-125775923D01*
X184037600Y-125854200D01*
X185164055Y-125854200D01*
X185151929Y-125840488D01*
X185307600Y-125840488D01*
X185331699Y-125844757D01*
X185398796Y-125848485D01*
X185501089Y-125851448D01*
X185630778Y-125853426D01*
X185780061Y-125854196D01*
X185790200Y-125854200D01*
X185966967Y-125853408D01*
X186098101Y-125850806D01*
X186188747Y-125846056D01*
X186244050Y-125838818D01*
X186269156Y-125828752D01*
X186271992Y-125822450D01*
X186257038Y-125778554D01*
X186233892Y-125741395D01*
X186224698Y-125722692D01*
X186217102Y-125690195D01*
X186210959Y-125639498D01*
X186206127Y-125566196D01*
X186202464Y-125465883D01*
X186199826Y-125334154D01*
X186198070Y-125166604D01*
X186197053Y-124958827D01*
X186196633Y-124706418D01*
X186196600Y-124592045D01*
X186196600Y-123492000D01*
X185331695Y-123492000D01*
X185370447Y-123566938D01*
X185380478Y-123592815D01*
X185388667Y-123631092D01*
X185395192Y-123686607D01*
X185400226Y-123764197D01*
X185403947Y-123868700D01*
X185406529Y-124004954D01*
X185408148Y-124177797D01*
X185408979Y-124392067D01*
X185409200Y-124634750D01*
X185409086Y-124886440D01*
X185408585Y-125092511D01*
X185407455Y-125258147D01*
X185405455Y-125388527D01*
X185402345Y-125488835D01*
X185397883Y-125564251D01*
X185391829Y-125619957D01*
X185383941Y-125661135D01*
X185373979Y-125692967D01*
X185361701Y-125720635D01*
X185358400Y-125727200D01*
X185327490Y-125790636D01*
X185309480Y-125833110D01*
X185307600Y-125840488D01*
X185151929Y-125840488D01*
X185102477Y-125784570D01*
X185058555Y-125735266D01*
X185030373Y-125704290D01*
X185028200Y-125702020D01*
X184970445Y-125638905D01*
X184898963Y-125554689D01*
X184823897Y-125462065D01*
X184755391Y-125373725D01*
X184703588Y-125302361D01*
X184683376Y-125270547D01*
X184643155Y-125206584D01*
X184579662Y-125115299D01*
X184501804Y-125008680D01*
X184418487Y-124898715D01*
X184338617Y-124797390D01*
X184276273Y-124722607D01*
X184215829Y-124645548D01*
X184159159Y-124561943D01*
X184154978Y-124555050D01*
X184027637Y-124356936D01*
X183931994Y-124226356D01*
X183862036Y-124135212D01*
X183943468Y-124047760D01*
X184013660Y-123968661D01*
X184103715Y-123861892D01*
X184203057Y-123740451D01*
X184301107Y-123617339D01*
X184387289Y-123505555D01*
X184416151Y-123466815D01*
X184720941Y-123086892D01*
X184960279Y-122829787D01*
X185159059Y-122628400D01*
X184613747Y-122628400D01*
X184428550Y-122628523D01*
X184287998Y-122629861D01*
X184185937Y-122633867D01*
X184116212Y-122641993D01*
X184072669Y-122655691D01*
X184049153Y-122676416D01*
X184039511Y-122705618D01*
X184037586Y-122744751D01*
X184037600Y-122764390D01*
X184022012Y-122817842D01*
X183982941Y-122885121D01*
X183965299Y-122908362D01*
X183906652Y-122985668D01*
X183843890Y-123076586D01*
X183821802Y-123111000D01*
X183778552Y-123177764D01*
X183744912Y-123224931D01*
X183733239Y-123238000D01*
X183703445Y-123267339D01*
X183654245Y-123323018D01*
X183594522Y-123394108D01*
X183533162Y-123469681D01*
X183479047Y-123538808D01*
X183441063Y-123590561D01*
X183428000Y-123613483D01*
X183411182Y-123642974D01*
X183369146Y-123690717D01*
X183351799Y-123707900D01*
X183275599Y-123780904D01*
X183275600Y-123361088D01*
X183277193Y-123178302D01*
X183282895Y-123035476D01*
X183294093Y-122921840D01*
X183312172Y-122826629D01*
X183338518Y-122739075D01*
X183364164Y-122672850D01*
X183367394Y-122657771D01*
X183358649Y-122646538D01*
X183331705Y-122638591D01*
X183280338Y-122633367D01*
X183198324Y-122630303D01*
X183079439Y-122628838D01*
X182917460Y-122628410D01*
X182871917Y-122628400D01*
X182717083Y-122628746D01*
X182581122Y-122629712D01*
X182471617Y-122631190D01*
X182396151Y-122633071D01*
X182362308Y-122635245D01*
X182361199Y-122635729D01*
X182085948Y-122635729D01*
X182086430Y-122586725D01*
X182088604Y-122448060D01*
X182091342Y-122337503D01*
X182094707Y-122251811D01*
X182098758Y-122187742D01*
X182103558Y-122142055D01*
X182109168Y-122111507D01*
X182115650Y-122092858D01*
X182121714Y-122084114D01*
X182134178Y-122075934D01*
X182156437Y-122068938D01*
X182192191Y-122063034D01*
X182245141Y-122058133D01*
X182318988Y-122054144D01*
X182417431Y-122050978D01*
X182544173Y-122048544D01*
X182702913Y-122046752D01*
X182897353Y-122045511D01*
X183131193Y-122044733D01*
X183408135Y-122044326D01*
X183731878Y-122044200D01*
X185358400Y-122044200D01*
X185358400Y-122140418D01*
X185378479Y-122256335D01*
X185431525Y-122375000D01*
X185506754Y-122475991D01*
X185559006Y-122520244D01*
X185672546Y-122567370D01*
X185803500Y-122577636D01*
X185937628Y-122553918D01*
X186060690Y-122499089D01*
X186158448Y-122416023D01*
X186173800Y-122396147D01*
X186220806Y-122295428D01*
X186242439Y-122179877D01*
X186253690Y-122044199D01*
X186363030Y-122044200D01*
X186396580Y-122042977D01*
X186425931Y-122041421D01*
X186451363Y-122042699D01*
X186451363Y-122042699D01*
G37*
X186451363Y-122042699D02*
X186473155Y-122049976D01*
X186491586Y-122066420D01*
X186506935Y-122095197D01*
X186519481Y-122139474D01*
X186529505Y-122202418D01*
X186537283Y-122287194D01*
X186543096Y-122396971D01*
X186547223Y-122534914D01*
X186549943Y-122704191D01*
X186551535Y-122907968D01*
X186552277Y-123149411D01*
X186552450Y-123431687D01*
X186552332Y-123757964D01*
X186552203Y-124131407D01*
X186552200Y-124190500D01*
X186552122Y-124565884D01*
X186551849Y-124893711D01*
X186551318Y-125177221D01*
X186550469Y-125419658D01*
X186549240Y-125624261D01*
X186547569Y-125794274D01*
X186545395Y-125932939D01*
X186542657Y-126043496D01*
X186539292Y-126129188D01*
X186535241Y-126193257D01*
X186530441Y-126238944D01*
X186524831Y-126269492D01*
X186518349Y-126288141D01*
X186512285Y-126296885D01*
X186501209Y-126303992D01*
X186481001Y-126310213D01*
X186448490Y-126315606D01*
X186400503Y-126320229D01*
X186333867Y-126324140D01*
X186245410Y-126327396D01*
X186131960Y-126330056D01*
X185990344Y-126332175D01*
X185817390Y-126333813D01*
X185609924Y-126335028D01*
X185364776Y-126335876D01*
X185078771Y-126336415D01*
X184748739Y-126336703D01*
X184371505Y-126336798D01*
X184316999Y-126336800D01*
X183933176Y-126336726D01*
X183596980Y-126336467D01*
X183305239Y-126335965D01*
X183054781Y-126335162D01*
X182842432Y-126334000D01*
X182665021Y-126332422D01*
X182519375Y-126330371D01*
X182402322Y-126327787D01*
X182310688Y-126324615D01*
X182241303Y-126320795D01*
X182190992Y-126316271D01*
X182156584Y-126310985D01*
X182134907Y-126304879D01*
X182122787Y-126297895D01*
X182121714Y-126296885D01*
X182114465Y-126285627D01*
X182108138Y-126265152D01*
X182102672Y-126232219D01*
X182098006Y-126183586D01*
X182094078Y-126116011D01*
X182090826Y-126026252D01*
X182088190Y-125911068D01*
X182086107Y-125767217D01*
X182084517Y-125591456D01*
X182083358Y-125380544D01*
X182082568Y-125131239D01*
X182082086Y-124840300D01*
X182081851Y-124504484D01*
X182081800Y-124190500D01*
X182081877Y-123815115D01*
X182082150Y-123487288D01*
X182082681Y-123203778D01*
X182083530Y-122961341D01*
X182084759Y-122756738D01*
X182085948Y-122635729D01*
X182361199Y-122635729D01*
X182371637Y-122660638D01*
X182397944Y-122714844D01*
X182411999Y-122742699D01*
X182422932Y-122765774D01*
X182432174Y-122791420D01*
X182439867Y-122823859D01*
X182446152Y-122867308D01*
X182451172Y-122925988D01*
X182455068Y-123004117D01*
X182457983Y-123105917D01*
X182460057Y-123235605D01*
X182461434Y-123397401D01*
X182462254Y-123595525D01*
X182462659Y-123834197D01*
X182462791Y-124117635D01*
X182462799Y-124254290D01*
X182462439Y-124517726D01*
X182461402Y-124766037D01*
X182459756Y-124994556D01*
X182457568Y-125198618D01*
X182454903Y-125373558D01*
X182451830Y-125514711D01*
X182448415Y-125617410D01*
X182444724Y-125676991D01*
X182442224Y-125690370D01*
X182417800Y-125730136D01*
X182391968Y-125784350D01*
X182362289Y-125854200D01*
X182888794Y-125853811D01*
X183043967Y-125852849D01*
X183178350Y-125850381D01*
X183284999Y-125846674D01*
X183356970Y-125841992D01*
X183387319Y-125836600D01*
X183387094Y-125834761D01*
X183357145Y-125800826D01*
X183321332Y-125742626D01*
X183317244Y-125734811D01*
X183302318Y-125697521D01*
X183291307Y-125647267D01*
X183283669Y-125576556D01*
X183278866Y-125477898D01*
X183276356Y-125343800D01*
X183275601Y-125166772D01*
X183275600Y-125156961D01*
X183276833Y-124979347D01*
X183280396Y-124836876D01*
X183286078Y-124733727D01*
X183293672Y-124674078D01*
X183300414Y-124660400D01*
X183329914Y-124679770D01*
X183367641Y-124726744D01*
X183369915Y-124730250D01*
X183410493Y-124787268D01*
X183444699Y-124825500D01*
X183475147Y-124862632D01*
X183515083Y-124924966D01*
X183528671Y-124948833D01*
X183570820Y-125015930D01*
X183633527Y-125104720D01*
X183704592Y-125198064D01*
X183718542Y-125215533D01*
X183826661Y-125358344D01*
X183917138Y-125494967D01*
X183985389Y-125617349D01*
X184026831Y-125717440D01*
X184037600Y-125775923D01*
X184037600Y-125854200D01*
X185164055Y-125854200D01*
X185151929Y-125840488D01*
X185307600Y-125840488D01*
X185331699Y-125844757D01*
X185398796Y-125848485D01*
X185501089Y-125851448D01*
X185630778Y-125853426D01*
X185780061Y-125854196D01*
X185790200Y-125854200D01*
X185966967Y-125853408D01*
X186098101Y-125850806D01*
X186188747Y-125846056D01*
X186244050Y-125838818D01*
X186269156Y-125828752D01*
X186271992Y-125822450D01*
X186257038Y-125778554D01*
X186233892Y-125741395D01*
X186224698Y-125722692D01*
X186217102Y-125690195D01*
X186210959Y-125639498D01*
X186206127Y-125566196D01*
X186202464Y-125465883D01*
X186199826Y-125334154D01*
X186198070Y-125166604D01*
X186197053Y-124958827D01*
X186196633Y-124706418D01*
X186196600Y-124592045D01*
X186196600Y-123492000D01*
X185331695Y-123492000D01*
X185370447Y-123566938D01*
X185380478Y-123592815D01*
X185388667Y-123631092D01*
X185395192Y-123686607D01*
X185400226Y-123764197D01*
X185403947Y-123868700D01*
X185406529Y-124004954D01*
X185408148Y-124177797D01*
X185408979Y-124392067D01*
X185409200Y-124634750D01*
X185409086Y-124886440D01*
X185408585Y-125092511D01*
X185407455Y-125258147D01*
X185405455Y-125388527D01*
X185402345Y-125488835D01*
X185397883Y-125564251D01*
X185391829Y-125619957D01*
X185383941Y-125661135D01*
X185373979Y-125692967D01*
X185361701Y-125720635D01*
X185358400Y-125727200D01*
X185327490Y-125790636D01*
X185309480Y-125833110D01*
X185307600Y-125840488D01*
X185151929Y-125840488D01*
X185102477Y-125784570D01*
X185058555Y-125735266D01*
X185030373Y-125704290D01*
X185028200Y-125702020D01*
X184970445Y-125638905D01*
X184898963Y-125554689D01*
X184823897Y-125462065D01*
X184755391Y-125373725D01*
X184703588Y-125302361D01*
X184683376Y-125270547D01*
X184643155Y-125206584D01*
X184579662Y-125115299D01*
X184501804Y-125008680D01*
X184418487Y-124898715D01*
X184338617Y-124797390D01*
X184276273Y-124722607D01*
X184215829Y-124645548D01*
X184159159Y-124561943D01*
X184154978Y-124555050D01*
X184027637Y-124356936D01*
X183931994Y-124226356D01*
X183862036Y-124135212D01*
X183943468Y-124047760D01*
X184013660Y-123968661D01*
X184103715Y-123861892D01*
X184203057Y-123740451D01*
X184301107Y-123617339D01*
X184387289Y-123505555D01*
X184416151Y-123466815D01*
X184720941Y-123086892D01*
X184960279Y-122829787D01*
X185159059Y-122628400D01*
X184613747Y-122628400D01*
X184428550Y-122628523D01*
X184287998Y-122629861D01*
X184185937Y-122633867D01*
X184116212Y-122641993D01*
X184072669Y-122655691D01*
X184049153Y-122676416D01*
X184039511Y-122705618D01*
X184037586Y-122744751D01*
X184037600Y-122764390D01*
X184022012Y-122817842D01*
X183982941Y-122885121D01*
X183965299Y-122908362D01*
X183906652Y-122985668D01*
X183843890Y-123076586D01*
X183821802Y-123111000D01*
X183778552Y-123177764D01*
X183744912Y-123224931D01*
X183733239Y-123238000D01*
X183703445Y-123267339D01*
X183654245Y-123323018D01*
X183594522Y-123394108D01*
X183533162Y-123469681D01*
X183479047Y-123538808D01*
X183441063Y-123590561D01*
X183428000Y-123613483D01*
X183411182Y-123642974D01*
X183369146Y-123690717D01*
X183351799Y-123707900D01*
X183275599Y-123780904D01*
X183275600Y-123361088D01*
X183277193Y-123178302D01*
X183282895Y-123035476D01*
X183294093Y-122921840D01*
X183312172Y-122826629D01*
X183338518Y-122739075D01*
X183364164Y-122672850D01*
X183367394Y-122657771D01*
X183358649Y-122646538D01*
X183331705Y-122638591D01*
X183280338Y-122633367D01*
X183198324Y-122630303D01*
X183079439Y-122628838D01*
X182917460Y-122628410D01*
X182871917Y-122628400D01*
X182717083Y-122628746D01*
X182581122Y-122629712D01*
X182471617Y-122631190D01*
X182396151Y-122633071D01*
X182362308Y-122635245D01*
X182361199Y-122635729D01*
X182085948Y-122635729D01*
X182086430Y-122586725D01*
X182088604Y-122448060D01*
X182091342Y-122337503D01*
X182094707Y-122251811D01*
X182098758Y-122187742D01*
X182103558Y-122142055D01*
X182109168Y-122111507D01*
X182115650Y-122092858D01*
X182121714Y-122084114D01*
X182134178Y-122075934D01*
X182156437Y-122068938D01*
X182192191Y-122063034D01*
X182245141Y-122058133D01*
X182318988Y-122054144D01*
X182417431Y-122050978D01*
X182544173Y-122048544D01*
X182702913Y-122046752D01*
X182897353Y-122045511D01*
X183131193Y-122044733D01*
X183408135Y-122044326D01*
X183731878Y-122044200D01*
X185358400Y-122044200D01*
X185358400Y-122140418D01*
X185378479Y-122256335D01*
X185431525Y-122375000D01*
X185506754Y-122475991D01*
X185559006Y-122520244D01*
X185672546Y-122567370D01*
X185803500Y-122577636D01*
X185937628Y-122553918D01*
X186060690Y-122499089D01*
X186158448Y-122416023D01*
X186173800Y-122396147D01*
X186220806Y-122295428D01*
X186242439Y-122179877D01*
X186253690Y-122044199D01*
X186363030Y-122044200D01*
X186396580Y-122042977D01*
X186425931Y-122041421D01*
X186451363Y-122042699D01*
G36*
X188544676Y-122606341D02*
X188585911Y-122616143D01*
X188656879Y-122638829D01*
X188752173Y-122674963D01*
X188859521Y-122719187D01*
X188966653Y-122766147D01*
X189061298Y-122810487D01*
X189131185Y-122846851D01*
X189162064Y-122867598D01*
X189152374Y-122890582D01*
X189120036Y-122945508D01*
X189071464Y-123022651D01*
X189013074Y-123112288D01*
X188951281Y-123204695D01*
X188892502Y-123290151D01*
X188843152Y-123358930D01*
X188810677Y-123400159D01*
X188782236Y-123397624D01*
X188730081Y-123367335D01*
X188686407Y-123333312D01*
X188541298Y-123241226D01*
X188376487Y-123195559D01*
X188218098Y-123194284D01*
X188047398Y-123234902D01*
X187903259Y-123318127D01*
X187786245Y-123442925D01*
X187696919Y-123608260D01*
X187635843Y-123813097D01*
X187603581Y-124056401D01*
X187600426Y-124330200D01*
X187621867Y-124577826D01*
X187666984Y-124783741D01*
X187737630Y-124952105D01*
X187835657Y-125087080D01*
X187962917Y-125192826D01*
X187992579Y-125211151D01*
X188069773Y-125251415D01*
X188141238Y-125272876D01*
X188229027Y-125280676D01*
X188292100Y-125281009D01*
X188451817Y-125265354D01*
X188590547Y-125217392D01*
X188724625Y-125130613D01*
X188774846Y-125088663D01*
X188829092Y-125044162D01*
X188865414Y-125020225D01*
X188873055Y-125018969D01*
X188895216Y-125052288D01*
X188934498Y-125116333D01*
X188985230Y-125201348D01*
X189041743Y-125297575D01*
X189098366Y-125395257D01*
X189149431Y-125484636D01*
X189189265Y-125555956D01*
X189212201Y-125599460D01*
X189215453Y-125608180D01*
X189190218Y-125621554D01*
X189132344Y-125652253D01*
X189054062Y-125693786D01*
X189049457Y-125696230D01*
X188887147Y-125776612D01*
X188744212Y-125831928D01*
X188602272Y-125866986D01*
X188442947Y-125886593D01*
X188292100Y-125894340D01*
X188099285Y-125895569D01*
X187947250Y-125886113D01*
X187856436Y-125870565D01*
X187624201Y-125785718D01*
X187411159Y-125656718D01*
X187221366Y-125487906D01*
X187058878Y-125283623D01*
X186927752Y-125048209D01*
X186832044Y-124786005D01*
X186827548Y-124769632D01*
X186791250Y-124583026D01*
X186772345Y-124368920D01*
X186770823Y-124145257D01*
X186786669Y-123929982D01*
X186819872Y-123741040D01*
X186828297Y-123709044D01*
X186930061Y-123435435D01*
X187072732Y-123189468D01*
X187253804Y-122974653D01*
X187470770Y-122794495D01*
X187492000Y-122780082D01*
X187669644Y-122687504D01*
X187877698Y-122621748D01*
X188102198Y-122584907D01*
X188329178Y-122579073D01*
X188544676Y-122606341D01*
X188544676Y-122606341D01*
G37*
X188544676Y-122606341D02*
X188585911Y-122616143D01*
X188656879Y-122638829D01*
X188752173Y-122674963D01*
X188859521Y-122719187D01*
X188966653Y-122766147D01*
X189061298Y-122810487D01*
X189131185Y-122846851D01*
X189162064Y-122867598D01*
X189152374Y-122890582D01*
X189120036Y-122945508D01*
X189071464Y-123022651D01*
X189013074Y-123112288D01*
X188951281Y-123204695D01*
X188892502Y-123290151D01*
X188843152Y-123358930D01*
X188810677Y-123400159D01*
X188782236Y-123397624D01*
X188730081Y-123367335D01*
X188686407Y-123333312D01*
X188541298Y-123241226D01*
X188376487Y-123195559D01*
X188218098Y-123194284D01*
X188047398Y-123234902D01*
X187903259Y-123318127D01*
X187786245Y-123442925D01*
X187696919Y-123608260D01*
X187635843Y-123813097D01*
X187603581Y-124056401D01*
X187600426Y-124330200D01*
X187621867Y-124577826D01*
X187666984Y-124783741D01*
X187737630Y-124952105D01*
X187835657Y-125087080D01*
X187962917Y-125192826D01*
X187992579Y-125211151D01*
X188069773Y-125251415D01*
X188141238Y-125272876D01*
X188229027Y-125280676D01*
X188292100Y-125281009D01*
X188451817Y-125265354D01*
X188590547Y-125217392D01*
X188724625Y-125130613D01*
X188774846Y-125088663D01*
X188829092Y-125044162D01*
X188865414Y-125020225D01*
X188873055Y-125018969D01*
X188895216Y-125052288D01*
X188934498Y-125116333D01*
X188985230Y-125201348D01*
X189041743Y-125297575D01*
X189098366Y-125395257D01*
X189149431Y-125484636D01*
X189189265Y-125555956D01*
X189212201Y-125599460D01*
X189215453Y-125608180D01*
X189190218Y-125621554D01*
X189132344Y-125652253D01*
X189054062Y-125693786D01*
X189049457Y-125696230D01*
X188887147Y-125776612D01*
X188744212Y-125831928D01*
X188602272Y-125866986D01*
X188442947Y-125886593D01*
X188292100Y-125894340D01*
X188099285Y-125895569D01*
X187947250Y-125886113D01*
X187856436Y-125870565D01*
X187624201Y-125785718D01*
X187411159Y-125656718D01*
X187221366Y-125487906D01*
X187058878Y-125283623D01*
X186927752Y-125048209D01*
X186832044Y-124786005D01*
X186827548Y-124769632D01*
X186791250Y-124583026D01*
X186772345Y-124368920D01*
X186770823Y-124145257D01*
X186786669Y-123929982D01*
X186819872Y-123741040D01*
X186828297Y-123709044D01*
X186930061Y-123435435D01*
X187072732Y-123189468D01*
X187253804Y-122974653D01*
X187470770Y-122794495D01*
X187492000Y-122780082D01*
X187669644Y-122687504D01*
X187877698Y-122621748D01*
X188102198Y-122584907D01*
X188329178Y-122579073D01*
X188544676Y-122606341D01*
G36*
X190627620Y-123452359D02*
X190803576Y-123492264D01*
X190922513Y-123536895D01*
X191015098Y-123592778D01*
X191097779Y-123666360D01*
X191150917Y-123721188D01*
X191194396Y-123772829D01*
X191229291Y-123826992D01*
X191256676Y-123889387D01*
X191277624Y-123965723D01*
X191293209Y-124061710D01*
X191304504Y-124183058D01*
X191312585Y-124335475D01*
X191318523Y-124524670D01*
X191323394Y-124756355D01*
X191325549Y-124877477D01*
X191329807Y-125109434D01*
X191333930Y-125296051D01*
X191338276Y-125442785D01*
X191343203Y-125555095D01*
X191349068Y-125638437D01*
X191356231Y-125698269D01*
X191365049Y-125740049D01*
X191375880Y-125769234D01*
X191385135Y-125785527D01*
X191430171Y-125854200D01*
X190619418Y-125854200D01*
X190603500Y-125700698D01*
X190504102Y-125768483D01*
X190347946Y-125847254D01*
X190167092Y-125893178D01*
X189977295Y-125904137D01*
X189794309Y-125878011D01*
X189760834Y-125868436D01*
X189574429Y-125786112D01*
X189423520Y-125668585D01*
X189310652Y-125519321D01*
X189238375Y-125341786D01*
X189209235Y-125139443D01*
X189208788Y-125117600D01*
X189209452Y-125088545D01*
X189937707Y-125088545D01*
X189941963Y-125177884D01*
X189952090Y-125208502D01*
X190014779Y-125289089D01*
X190109723Y-125343481D01*
X190223327Y-125367352D01*
X190341996Y-125356378D01*
X190379596Y-125344508D01*
X190466783Y-125302968D01*
X190522424Y-125250366D01*
X190552894Y-125175280D01*
X190564566Y-125066289D01*
X190565400Y-125011572D01*
X190565400Y-124812800D01*
X190399484Y-124812800D01*
X190235747Y-124827824D01*
X190097128Y-124870733D01*
X190001676Y-124931555D01*
X189959069Y-124998298D01*
X189937707Y-125088545D01*
X189209452Y-125088545D01*
X189211403Y-125003273D01*
X189225051Y-124915974D01*
X189254550Y-124832311D01*
X189277882Y-124782215D01*
X189382223Y-124625636D01*
X189526604Y-124499758D01*
X189710369Y-124404878D01*
X189932862Y-124341291D01*
X190193426Y-124309295D01*
X190333794Y-124305241D01*
X190572088Y-124304800D01*
X190558196Y-124201228D01*
X190522262Y-124087960D01*
X190450344Y-124009507D01*
X190343724Y-123966163D01*
X190203687Y-123958223D01*
X190031516Y-123985980D01*
X189854509Y-124040144D01*
X189770051Y-124067413D01*
X189705058Y-124082373D01*
X189673195Y-124081908D01*
X189672862Y-124081589D01*
X189655276Y-124049872D01*
X189625180Y-123983912D01*
X189587902Y-123896745D01*
X189548773Y-123801404D01*
X189513122Y-123710925D01*
X189486280Y-123638340D01*
X189473575Y-123596685D01*
X189473200Y-123593302D01*
X189494990Y-123574617D01*
X189538447Y-123568200D01*
X189590031Y-123562037D01*
X189676850Y-123545424D01*
X189785103Y-123521175D01*
X189862297Y-123502173D01*
X190128096Y-123451360D01*
X190386776Y-123434718D01*
X190627620Y-123452359D01*
X190627620Y-123452359D01*
G37*
X190627620Y-123452359D02*
X190803576Y-123492264D01*
X190922513Y-123536895D01*
X191015098Y-123592778D01*
X191097779Y-123666360D01*
X191150917Y-123721188D01*
X191194396Y-123772829D01*
X191229291Y-123826992D01*
X191256676Y-123889387D01*
X191277624Y-123965723D01*
X191293209Y-124061710D01*
X191304504Y-124183058D01*
X191312585Y-124335475D01*
X191318523Y-124524670D01*
X191323394Y-124756355D01*
X191325549Y-124877477D01*
X191329807Y-125109434D01*
X191333930Y-125296051D01*
X191338276Y-125442785D01*
X191343203Y-125555095D01*
X191349068Y-125638437D01*
X191356231Y-125698269D01*
X191365049Y-125740049D01*
X191375880Y-125769234D01*
X191385135Y-125785527D01*
X191430171Y-125854200D01*
X190619418Y-125854200D01*
X190603500Y-125700698D01*
X190504102Y-125768483D01*
X190347946Y-125847254D01*
X190167092Y-125893178D01*
X189977295Y-125904137D01*
X189794309Y-125878011D01*
X189760834Y-125868436D01*
X189574429Y-125786112D01*
X189423520Y-125668585D01*
X189310652Y-125519321D01*
X189238375Y-125341786D01*
X189209235Y-125139443D01*
X189208788Y-125117600D01*
X189209452Y-125088545D01*
X189937707Y-125088545D01*
X189941963Y-125177884D01*
X189952090Y-125208502D01*
X190014779Y-125289089D01*
X190109723Y-125343481D01*
X190223327Y-125367352D01*
X190341996Y-125356378D01*
X190379596Y-125344508D01*
X190466783Y-125302968D01*
X190522424Y-125250366D01*
X190552894Y-125175280D01*
X190564566Y-125066289D01*
X190565400Y-125011572D01*
X190565400Y-124812800D01*
X190399484Y-124812800D01*
X190235747Y-124827824D01*
X190097128Y-124870733D01*
X190001676Y-124931555D01*
X189959069Y-124998298D01*
X189937707Y-125088545D01*
X189209452Y-125088545D01*
X189211403Y-125003273D01*
X189225051Y-124915974D01*
X189254550Y-124832311D01*
X189277882Y-124782215D01*
X189382223Y-124625636D01*
X189526604Y-124499758D01*
X189710369Y-124404878D01*
X189932862Y-124341291D01*
X190193426Y-124309295D01*
X190333794Y-124305241D01*
X190572088Y-124304800D01*
X190558196Y-124201228D01*
X190522262Y-124087960D01*
X190450344Y-124009507D01*
X190343724Y-123966163D01*
X190203687Y-123958223D01*
X190031516Y-123985980D01*
X189854509Y-124040144D01*
X189770051Y-124067413D01*
X189705058Y-124082373D01*
X189673195Y-124081908D01*
X189672862Y-124081589D01*
X189655276Y-124049872D01*
X189625180Y-123983912D01*
X189587902Y-123896745D01*
X189548773Y-123801404D01*
X189513122Y-123710925D01*
X189486280Y-123638340D01*
X189473575Y-123596685D01*
X189473200Y-123593302D01*
X189494990Y-123574617D01*
X189538447Y-123568200D01*
X189590031Y-123562037D01*
X189676850Y-123545424D01*
X189785103Y-123521175D01*
X189862297Y-123502173D01*
X190128096Y-123451360D01*
X190386776Y-123434718D01*
X190627620Y-123452359D01*
G36*
X193847464Y-124057150D02*
X193849006Y-124387052D01*
X193850566Y-124669981D01*
X193852261Y-124909761D01*
X193854208Y-125110219D01*
X193856523Y-125275181D01*
X193859322Y-125408472D01*
X193862724Y-125513918D01*
X193866844Y-125595345D01*
X193871799Y-125656580D01*
X193877707Y-125701447D01*
X193884683Y-125733774D01*
X193892845Y-125757385D01*
X193899802Y-125771650D01*
X193944904Y-125854200D01*
X193130800Y-125854200D01*
X193130800Y-125778000D01*
X193127441Y-125724452D01*
X193119351Y-125701804D01*
X193119227Y-125701800D01*
X193093109Y-125714784D01*
X193040726Y-125747537D01*
X193013903Y-125765421D01*
X192881603Y-125832647D01*
X192721937Y-125879589D01*
X192553022Y-125903338D01*
X192392977Y-125900984D01*
X192292600Y-125881247D01*
X192108538Y-125799939D01*
X191943410Y-125678200D01*
X191808517Y-125525510D01*
X191747155Y-125423694D01*
X191679731Y-125266029D01*
X191635855Y-125099951D01*
X191612714Y-124911403D01*
X191607241Y-124724913D01*
X191608002Y-124711200D01*
X192408136Y-124711200D01*
X192412634Y-124886895D01*
X192426249Y-125020414D01*
X192451477Y-125119949D01*
X192490812Y-125193691D01*
X192546751Y-125249831D01*
X192579016Y-125272170D01*
X192685421Y-125310164D01*
X192811144Y-125307176D01*
X192946203Y-125263728D01*
X192970499Y-125251773D01*
X193067300Y-125201557D01*
X193074142Y-124652487D01*
X193080985Y-124103416D01*
X193013891Y-124059454D01*
X192950360Y-124032707D01*
X192860668Y-124012044D01*
X192802633Y-124005065D01*
X192714255Y-124001970D01*
X192655291Y-124012095D01*
X192604985Y-124040683D01*
X192578927Y-124061568D01*
X192511583Y-124135167D01*
X192462664Y-124230737D01*
X192430341Y-124355234D01*
X192412787Y-124515611D01*
X192408136Y-124711200D01*
X191608002Y-124711200D01*
X191623675Y-124428965D01*
X191671542Y-124169134D01*
X191750171Y-123946509D01*
X191858889Y-123762180D01*
X191997025Y-123617237D01*
X192163906Y-123512768D01*
X192358860Y-123449864D01*
X192398170Y-123442835D01*
X192513703Y-123434575D01*
X192641063Y-123441429D01*
X192767661Y-123460852D01*
X192880912Y-123490299D01*
X192968228Y-123527225D01*
X193016262Y-123567815D01*
X193037127Y-123592282D01*
X193053170Y-123587192D01*
X193064925Y-123548657D01*
X193072924Y-123472788D01*
X193077702Y-123355701D01*
X193079793Y-123193506D01*
X193080000Y-123103670D01*
X193079477Y-122929573D01*
X193077469Y-122798217D01*
X193073311Y-122701550D01*
X193066343Y-122631519D01*
X193055901Y-122580073D01*
X193041322Y-122539158D01*
X193031938Y-122519470D01*
X192983876Y-122425200D01*
X193840228Y-122425200D01*
X193847464Y-124057150D01*
X193847464Y-124057150D01*
G37*
X193847464Y-124057150D02*
X193849006Y-124387052D01*
X193850566Y-124669981D01*
X193852261Y-124909761D01*
X193854208Y-125110219D01*
X193856523Y-125275181D01*
X193859322Y-125408472D01*
X193862724Y-125513918D01*
X193866844Y-125595345D01*
X193871799Y-125656580D01*
X193877707Y-125701447D01*
X193884683Y-125733774D01*
X193892845Y-125757385D01*
X193899802Y-125771650D01*
X193944904Y-125854200D01*
X193130800Y-125854200D01*
X193130800Y-125778000D01*
X193127441Y-125724452D01*
X193119351Y-125701804D01*
X193119227Y-125701800D01*
X193093109Y-125714784D01*
X193040726Y-125747537D01*
X193013903Y-125765421D01*
X192881603Y-125832647D01*
X192721937Y-125879589D01*
X192553022Y-125903338D01*
X192392977Y-125900984D01*
X192292600Y-125881247D01*
X192108538Y-125799939D01*
X191943410Y-125678200D01*
X191808517Y-125525510D01*
X191747155Y-125423694D01*
X191679731Y-125266029D01*
X191635855Y-125099951D01*
X191612714Y-124911403D01*
X191607241Y-124724913D01*
X191608002Y-124711200D01*
X192408136Y-124711200D01*
X192412634Y-124886895D01*
X192426249Y-125020414D01*
X192451477Y-125119949D01*
X192490812Y-125193691D01*
X192546751Y-125249831D01*
X192579016Y-125272170D01*
X192685421Y-125310164D01*
X192811144Y-125307176D01*
X192946203Y-125263728D01*
X192970499Y-125251773D01*
X193067300Y-125201557D01*
X193074142Y-124652487D01*
X193080985Y-124103416D01*
X193013891Y-124059454D01*
X192950360Y-124032707D01*
X192860668Y-124012044D01*
X192802633Y-124005065D01*
X192714255Y-124001970D01*
X192655291Y-124012095D01*
X192604985Y-124040683D01*
X192578927Y-124061568D01*
X192511583Y-124135167D01*
X192462664Y-124230737D01*
X192430341Y-124355234D01*
X192412787Y-124515611D01*
X192408136Y-124711200D01*
X191608002Y-124711200D01*
X191623675Y-124428965D01*
X191671542Y-124169134D01*
X191750171Y-123946509D01*
X191858889Y-123762180D01*
X191997025Y-123617237D01*
X192163906Y-123512768D01*
X192358860Y-123449864D01*
X192398170Y-123442835D01*
X192513703Y-123434575D01*
X192641063Y-123441429D01*
X192767661Y-123460852D01*
X192880912Y-123490299D01*
X192968228Y-123527225D01*
X193016262Y-123567815D01*
X193037127Y-123592282D01*
X193053170Y-123587192D01*
X193064925Y-123548657D01*
X193072924Y-123472788D01*
X193077702Y-123355701D01*
X193079793Y-123193506D01*
X193080000Y-123103670D01*
X193079477Y-122929573D01*
X193077469Y-122798217D01*
X193073311Y-122701550D01*
X193066343Y-122631519D01*
X193055901Y-122580073D01*
X193041322Y-122539158D01*
X193031938Y-122519470D01*
X192983876Y-122425200D01*
X193840228Y-122425200D01*
X193847464Y-124057150D01*
D12*
X91666666Y-27452380D02*
X91333333Y-26976190D01*
X91095238Y-27452380D02*
X91095238Y-26452380D01*
X91476190Y-26452380D01*
X91571428Y-26500000D01*
X91619047Y-26547619D01*
X91666666Y-26642857D01*
X91666666Y-26785714D01*
X91619047Y-26880952D01*
X91571428Y-26928571D01*
X91476190Y-26976190D01*
X91095238Y-26976190D01*
X92095238Y-26928571D02*
X92428571Y-26928571D01*
X92571428Y-27452380D02*
X92095238Y-27452380D01*
X92095238Y-26452380D01*
X92571428Y-26452380D01*
X93333333Y-26928571D02*
X93000000Y-26928571D01*
X93000000Y-27452380D02*
X93000000Y-26452380D01*
X93476190Y-26452380D01*
X94000000Y-26452380D02*
X94000000Y-26690476D01*
X93761904Y-26595238D02*
X94000000Y-26690476D01*
X94238095Y-26595238D01*
X93857142Y-26880952D02*
X94000000Y-26690476D01*
X94142857Y-26880952D01*
X94761904Y-26452380D02*
X94761904Y-26690476D01*
X94523809Y-26595238D02*
X94761904Y-26690476D01*
X95000000Y-26595238D01*
X94619047Y-26880952D02*
X94761904Y-26690476D01*
X94904761Y-26880952D01*
X94666666Y-27452380D02*
X94333333Y-26976190D01*
X94095238Y-27452380D02*
X94095238Y-26452380D01*
X94476190Y-26452380D01*
X94571428Y-26500000D01*
X94619047Y-26547619D01*
X94666666Y-26642857D01*
X94666666Y-26785714D01*
X94619047Y-26880952D01*
X94571428Y-26928571D01*
X94476190Y-26976190D01*
X94095238Y-26976190D01*
X95095238Y-26928571D02*
X95428571Y-26928571D01*
X95571428Y-27452380D02*
X95095238Y-27452380D01*
X95095238Y-26452380D01*
X95571428Y-26452380D01*
X96333333Y-26928571D02*
X96000000Y-26928571D01*
X96000000Y-27452380D02*
X96000000Y-26452380D01*
X96476190Y-26452380D01*
X97000000Y-26452380D02*
X97000000Y-26690476D01*
X96761904Y-26595238D02*
X97000000Y-26690476D01*
X97238095Y-26595238D01*
X96857142Y-26880952D02*
X97000000Y-26690476D01*
X97142857Y-26880952D01*
X97761904Y-26452380D02*
X97761904Y-26690476D01*
X97523809Y-26595238D02*
X97761904Y-26690476D01*
X98000000Y-26595238D01*
X97619047Y-26880952D02*
X97761904Y-26690476D01*
X97904761Y-26880952D01*
X94666666Y-27452380D02*
X94333333Y-26976190D01*
X94095238Y-27452380D02*
X94095238Y-26452380D01*
X94476190Y-26452380D01*
X94571428Y-26500000D01*
X94619047Y-26547619D01*
X94666666Y-26642857D01*
X94666666Y-26785714D01*
X94619047Y-26880952D01*
X94571428Y-26928571D01*
X94476190Y-26976190D01*
X94095238Y-26976190D01*
X95095238Y-26928571D02*
X95428571Y-26928571D01*
X95571428Y-27452380D02*
X95095238Y-27452380D01*
X95095238Y-26452380D01*
X95571428Y-26452380D01*
X96333333Y-26928571D02*
X96000000Y-26928571D01*
X96000000Y-27452380D02*
X96000000Y-26452380D01*
X96476190Y-26452380D01*
X97000000Y-26452380D02*
X97000000Y-26690476D01*
X96761904Y-26595238D02*
X97000000Y-26690476D01*
X97238095Y-26595238D01*
X96857142Y-26880952D02*
X97000000Y-26690476D01*
X97142857Y-26880952D01*
X97761904Y-26452380D02*
X97761904Y-26690476D01*
X97523809Y-26595238D02*
X97761904Y-26690476D01*
X98000000Y-26595238D01*
X97619047Y-26880952D02*
X97761904Y-26690476D01*
X97904761Y-26880952D01*
X92666666Y-26452380D02*
X92333333Y-25976190D01*
X92095238Y-26452380D02*
X92095238Y-25452380D01*
X92476190Y-25452380D01*
X92571428Y-25500000D01*
X92619047Y-25547619D01*
X92666666Y-25642857D01*
X92666666Y-25785714D01*
X92619047Y-25880952D01*
X92571428Y-25928571D01*
X92476190Y-25976190D01*
X92095238Y-25976190D01*
X93095238Y-25928571D02*
X93428571Y-25928571D01*
X93571428Y-26452380D02*
X93095238Y-26452380D01*
X93095238Y-25452380D01*
X93571428Y-25452380D01*
X94333333Y-25928571D02*
X94000000Y-25928571D01*
X94000000Y-26452380D02*
X94000000Y-25452380D01*
X94476190Y-25452380D01*
X95000000Y-25452380D02*
X95000000Y-25690476D01*
X94761904Y-25595238D02*
X95000000Y-25690476D01*
X95238095Y-25595238D01*
X94857142Y-25880952D02*
X95000000Y-25690476D01*
X95142857Y-25880952D01*
X95761904Y-25452380D02*
X95761904Y-25690476D01*
X95523809Y-25595238D02*
X95761904Y-25690476D01*
X96000000Y-25595238D01*
X95619047Y-25880952D02*
X95761904Y-25690476D01*
X95904761Y-25880952D01*
G04 #@! TO.C,C1*
X141783333Y-85557142D02*
X141735714Y-85604761D01*
X141592857Y-85652380D01*
X141497619Y-85652380D01*
X141354761Y-85604761D01*
X141259523Y-85509523D01*
X141211904Y-85414285D01*
X141164285Y-85223809D01*
X141164285Y-85080952D01*
X141211904Y-84890476D01*
X141259523Y-84795238D01*
X141354761Y-84700000D01*
X141497619Y-84652380D01*
X141592857Y-84652380D01*
X141735714Y-84700000D01*
X141783333Y-84747619D01*
X142735714Y-85652380D02*
X142164285Y-85652380D01*
X142450000Y-85652380D02*
X142450000Y-84652380D01*
X142354761Y-84795238D01*
X142259523Y-84890476D01*
X142164285Y-84938095D01*
G04 #@! TO.C,C2*
X139433333Y-113657142D02*
X139385714Y-113704761D01*
X139242857Y-113752380D01*
X139147619Y-113752380D01*
X139004761Y-113704761D01*
X138909523Y-113609523D01*
X138861904Y-113514285D01*
X138814285Y-113323809D01*
X138814285Y-113180952D01*
X138861904Y-112990476D01*
X138909523Y-112895238D01*
X139004761Y-112800000D01*
X139147619Y-112752380D01*
X139242857Y-112752380D01*
X139385714Y-112800000D01*
X139433333Y-112847619D01*
X139814285Y-112847619D02*
X139861904Y-112800000D01*
X139957142Y-112752380D01*
X140195238Y-112752380D01*
X140290476Y-112800000D01*
X140338095Y-112847619D01*
X140385714Y-112942857D01*
X140385714Y-113038095D01*
X140338095Y-113180952D01*
X139766666Y-113752380D01*
X140385714Y-113752380D01*
G04 #@! TO.C,J1*
X144975266Y-44249180D02*
X144975266Y-44963466D01*
X144927647Y-45106323D01*
X144832409Y-45201561D01*
X144689552Y-45249180D01*
X144594314Y-45249180D01*
X145975266Y-45249180D02*
X145403838Y-45249180D01*
X145689552Y-45249180D02*
X145689552Y-44249180D01*
X145594314Y-44392038D01*
X145499076Y-44487276D01*
X145403838Y-44534895D01*
G04 #@! TO.C,JP1*
X147166666Y-52452380D02*
X147166666Y-53166666D01*
X147119047Y-53309523D01*
X147023809Y-53404761D01*
X146880952Y-53452380D01*
X146785714Y-53452380D01*
X147642857Y-53452380D02*
X147642857Y-52452380D01*
X148023809Y-52452380D01*
X148119047Y-52500000D01*
X148166666Y-52547619D01*
X148214285Y-52642857D01*
X148214285Y-52785714D01*
X148166666Y-52880952D01*
X148119047Y-52928571D01*
X148023809Y-52976190D01*
X147642857Y-52976190D01*
X149166666Y-53452380D02*
X148595238Y-53452380D01*
X148880952Y-53452380D02*
X148880952Y-52452380D01*
X148785714Y-52595238D01*
X148690476Y-52690476D01*
X148595238Y-52738095D01*
X144452380Y-57933333D02*
X144452380Y-57314285D01*
X144833333Y-57647619D01*
X144833333Y-57504761D01*
X144880952Y-57409523D01*
X144928571Y-57361904D01*
X145023809Y-57314285D01*
X145261904Y-57314285D01*
X145357142Y-57361904D01*
X145404761Y-57409523D01*
X145452380Y-57504761D01*
X145452380Y-57790476D01*
X145404761Y-57885714D01*
X145357142Y-57933333D01*
X145452380Y-52114285D02*
X145452380Y-52685714D01*
X145452380Y-52400000D02*
X144452380Y-52400000D01*
X144595238Y-52495238D01*
X144690476Y-52590476D01*
X144738095Y-52685714D01*
G04 #@! TO.C,JP2*
X136166666Y-52452380D02*
X136166666Y-53166666D01*
X136119047Y-53309523D01*
X136023809Y-53404761D01*
X135880952Y-53452380D01*
X135785714Y-53452380D01*
X136642857Y-53452380D02*
X136642857Y-52452380D01*
X137023809Y-52452380D01*
X137119047Y-52500000D01*
X137166666Y-52547619D01*
X137214285Y-52642857D01*
X137214285Y-52785714D01*
X137166666Y-52880952D01*
X137119047Y-52928571D01*
X137023809Y-52976190D01*
X136642857Y-52976190D01*
X137595238Y-52547619D02*
X137642857Y-52500000D01*
X137738095Y-52452380D01*
X137976190Y-52452380D01*
X138071428Y-52500000D01*
X138119047Y-52547619D01*
X138166666Y-52642857D01*
X138166666Y-52738095D01*
X138119047Y-52880952D01*
X137547619Y-53452380D01*
X138166666Y-53452380D01*
X140452380Y-52114285D02*
X140452380Y-52685714D01*
X140452380Y-52400000D02*
X139452380Y-52400000D01*
X139595238Y-52495238D01*
X139690476Y-52590476D01*
X139738095Y-52685714D01*
X139452380Y-57933333D02*
X139452380Y-57314285D01*
X139833333Y-57647619D01*
X139833333Y-57504761D01*
X139880952Y-57409523D01*
X139928571Y-57361904D01*
X140023809Y-57314285D01*
X140261904Y-57314285D01*
X140357142Y-57361904D01*
X140404761Y-57409523D01*
X140452380Y-57504761D01*
X140452380Y-57790476D01*
X140404761Y-57885714D01*
X140357142Y-57933333D01*
G04 #@! TO.C,LED1*
X162650952Y-49992380D02*
X162174761Y-49992380D01*
X162174761Y-48992380D01*
X162984285Y-49468571D02*
X163317619Y-49468571D01*
X163460476Y-49992380D02*
X162984285Y-49992380D01*
X162984285Y-48992380D01*
X163460476Y-48992380D01*
X163889047Y-49992380D02*
X163889047Y-48992380D01*
X164127142Y-48992380D01*
X164270000Y-49040000D01*
X164365238Y-49135238D01*
X164412857Y-49230476D01*
X164460476Y-49420952D01*
X164460476Y-49563809D01*
X164412857Y-49754285D01*
X164365238Y-49849523D01*
X164270000Y-49944761D01*
X164127142Y-49992380D01*
X163889047Y-49992380D01*
X165412857Y-49992380D02*
X164841428Y-49992380D01*
X165127142Y-49992380D02*
X165127142Y-48992380D01*
X165031904Y-49135238D01*
X164936666Y-49230476D01*
X164841428Y-49278095D01*
G04 #@! TO.C,LED2*
X172610952Y-49992380D02*
X172134761Y-49992380D01*
X172134761Y-48992380D01*
X172944285Y-49468571D02*
X173277619Y-49468571D01*
X173420476Y-49992380D02*
X172944285Y-49992380D01*
X172944285Y-48992380D01*
X173420476Y-48992380D01*
X173849047Y-49992380D02*
X173849047Y-48992380D01*
X174087142Y-48992380D01*
X174230000Y-49040000D01*
X174325238Y-49135238D01*
X174372857Y-49230476D01*
X174420476Y-49420952D01*
X174420476Y-49563809D01*
X174372857Y-49754285D01*
X174325238Y-49849523D01*
X174230000Y-49944761D01*
X174087142Y-49992380D01*
X173849047Y-49992380D01*
X174801428Y-49087619D02*
X174849047Y-49040000D01*
X174944285Y-48992380D01*
X175182380Y-48992380D01*
X175277619Y-49040000D01*
X175325238Y-49087619D01*
X175372857Y-49182857D01*
X175372857Y-49278095D01*
X175325238Y-49420952D01*
X174753809Y-49992380D01*
X175372857Y-49992380D01*
G04 #@! TO.C,LED3*
X182650952Y-49992380D02*
X182174761Y-49992380D01*
X182174761Y-48992380D01*
X182984285Y-49468571D02*
X183317619Y-49468571D01*
X183460476Y-49992380D02*
X182984285Y-49992380D01*
X182984285Y-48992380D01*
X183460476Y-48992380D01*
X183889047Y-49992380D02*
X183889047Y-48992380D01*
X184127142Y-48992380D01*
X184270000Y-49040000D01*
X184365238Y-49135238D01*
X184412857Y-49230476D01*
X184460476Y-49420952D01*
X184460476Y-49563809D01*
X184412857Y-49754285D01*
X184365238Y-49849523D01*
X184270000Y-49944761D01*
X184127142Y-49992380D01*
X183889047Y-49992380D01*
X184793809Y-48992380D02*
X185412857Y-48992380D01*
X185079523Y-49373333D01*
X185222380Y-49373333D01*
X185317619Y-49420952D01*
X185365238Y-49468571D01*
X185412857Y-49563809D01*
X185412857Y-49801904D01*
X185365238Y-49897142D01*
X185317619Y-49944761D01*
X185222380Y-49992380D01*
X184936666Y-49992380D01*
X184841428Y-49944761D01*
X184793809Y-49897142D01*
G04 #@! TO.C,LED4*
X192686952Y-49992380D02*
X192210761Y-49992380D01*
X192210761Y-48992380D01*
X193020285Y-49468571D02*
X193353619Y-49468571D01*
X193496476Y-49992380D02*
X193020285Y-49992380D01*
X193020285Y-48992380D01*
X193496476Y-48992380D01*
X193925047Y-49992380D02*
X193925047Y-48992380D01*
X194163142Y-48992380D01*
X194306000Y-49040000D01*
X194401238Y-49135238D01*
X194448857Y-49230476D01*
X194496476Y-49420952D01*
X194496476Y-49563809D01*
X194448857Y-49754285D01*
X194401238Y-49849523D01*
X194306000Y-49944761D01*
X194163142Y-49992380D01*
X193925047Y-49992380D01*
X195353619Y-49325714D02*
X195353619Y-49992380D01*
X195115523Y-48944761D02*
X194877428Y-49659047D01*
X195496476Y-49659047D01*
G04 #@! TO.C,LED5*
X162650952Y-67492380D02*
X162174761Y-67492380D01*
X162174761Y-66492380D01*
X162984285Y-66968571D02*
X163317619Y-66968571D01*
X163460476Y-67492380D02*
X162984285Y-67492380D01*
X162984285Y-66492380D01*
X163460476Y-66492380D01*
X163889047Y-67492380D02*
X163889047Y-66492380D01*
X164127142Y-66492380D01*
X164270000Y-66540000D01*
X164365238Y-66635238D01*
X164412857Y-66730476D01*
X164460476Y-66920952D01*
X164460476Y-67063809D01*
X164412857Y-67254285D01*
X164365238Y-67349523D01*
X164270000Y-67444761D01*
X164127142Y-67492380D01*
X163889047Y-67492380D01*
X165365238Y-66492380D02*
X164889047Y-66492380D01*
X164841428Y-66968571D01*
X164889047Y-66920952D01*
X164984285Y-66873333D01*
X165222380Y-66873333D01*
X165317619Y-66920952D01*
X165365238Y-66968571D01*
X165412857Y-67063809D01*
X165412857Y-67301904D01*
X165365238Y-67397142D01*
X165317619Y-67444761D01*
X165222380Y-67492380D01*
X164984285Y-67492380D01*
X164889047Y-67444761D01*
X164841428Y-67397142D01*
G04 #@! TO.C,LED6*
X172650952Y-67492380D02*
X172174761Y-67492380D01*
X172174761Y-66492380D01*
X172984285Y-66968571D02*
X173317619Y-66968571D01*
X173460476Y-67492380D02*
X172984285Y-67492380D01*
X172984285Y-66492380D01*
X173460476Y-66492380D01*
X173889047Y-67492380D02*
X173889047Y-66492380D01*
X174127142Y-66492380D01*
X174270000Y-66540000D01*
X174365238Y-66635238D01*
X174412857Y-66730476D01*
X174460476Y-66920952D01*
X174460476Y-67063809D01*
X174412857Y-67254285D01*
X174365238Y-67349523D01*
X174270000Y-67444761D01*
X174127142Y-67492380D01*
X173889047Y-67492380D01*
X175317619Y-66492380D02*
X175127142Y-66492380D01*
X175031904Y-66540000D01*
X174984285Y-66587619D01*
X174889047Y-66730476D01*
X174841428Y-66920952D01*
X174841428Y-67301904D01*
X174889047Y-67397142D01*
X174936666Y-67444761D01*
X175031904Y-67492380D01*
X175222380Y-67492380D01*
X175317619Y-67444761D01*
X175365238Y-67397142D01*
X175412857Y-67301904D01*
X175412857Y-67063809D01*
X175365238Y-66968571D01*
X175317619Y-66920952D01*
X175222380Y-66873333D01*
X175031904Y-66873333D01*
X174936666Y-66920952D01*
X174889047Y-66968571D01*
X174841428Y-67063809D01*
G04 #@! TO.C,LED7*
X182650952Y-67492380D02*
X182174761Y-67492380D01*
X182174761Y-66492380D01*
X182984285Y-66968571D02*
X183317619Y-66968571D01*
X183460476Y-67492380D02*
X182984285Y-67492380D01*
X182984285Y-66492380D01*
X183460476Y-66492380D01*
X183889047Y-67492380D02*
X183889047Y-66492380D01*
X184127142Y-66492380D01*
X184270000Y-66540000D01*
X184365238Y-66635238D01*
X184412857Y-66730476D01*
X184460476Y-66920952D01*
X184460476Y-67063809D01*
X184412857Y-67254285D01*
X184365238Y-67349523D01*
X184270000Y-67444761D01*
X184127142Y-67492380D01*
X183889047Y-67492380D01*
X184793809Y-66492380D02*
X185460476Y-66492380D01*
X185031904Y-67492380D01*
G04 #@! TO.C,LED8*
X192650952Y-67492380D02*
X192174761Y-67492380D01*
X192174761Y-66492380D01*
X192984285Y-66968571D02*
X193317619Y-66968571D01*
X193460476Y-67492380D02*
X192984285Y-67492380D01*
X192984285Y-66492380D01*
X193460476Y-66492380D01*
X193889047Y-67492380D02*
X193889047Y-66492380D01*
X194127142Y-66492380D01*
X194270000Y-66540000D01*
X194365238Y-66635238D01*
X194412857Y-66730476D01*
X194460476Y-66920952D01*
X194460476Y-67063809D01*
X194412857Y-67254285D01*
X194365238Y-67349523D01*
X194270000Y-67444761D01*
X194127142Y-67492380D01*
X193889047Y-67492380D01*
X195031904Y-66920952D02*
X194936666Y-66873333D01*
X194889047Y-66825714D01*
X194841428Y-66730476D01*
X194841428Y-66682857D01*
X194889047Y-66587619D01*
X194936666Y-66540000D01*
X195031904Y-66492380D01*
X195222380Y-66492380D01*
X195317619Y-66540000D01*
X195365238Y-66587619D01*
X195412857Y-66682857D01*
X195412857Y-66730476D01*
X195365238Y-66825714D01*
X195317619Y-66873333D01*
X195222380Y-66920952D01*
X195031904Y-66920952D01*
X194936666Y-66968571D01*
X194889047Y-67016190D01*
X194841428Y-67111428D01*
X194841428Y-67301904D01*
X194889047Y-67397142D01*
X194936666Y-67444761D01*
X195031904Y-67492380D01*
X195222380Y-67492380D01*
X195317619Y-67444761D01*
X195365238Y-67397142D01*
X195412857Y-67301904D01*
X195412857Y-67111428D01*
X195365238Y-67016190D01*
X195317619Y-66968571D01*
X195222380Y-66920952D01*
G04 #@! TO.C,LED9*
X162650952Y-84992380D02*
X162174761Y-84992380D01*
X162174761Y-83992380D01*
X162984285Y-84468571D02*
X163317619Y-84468571D01*
X163460476Y-84992380D02*
X162984285Y-84992380D01*
X162984285Y-83992380D01*
X163460476Y-83992380D01*
X163889047Y-84992380D02*
X163889047Y-83992380D01*
X164127142Y-83992380D01*
X164270000Y-84040000D01*
X164365238Y-84135238D01*
X164412857Y-84230476D01*
X164460476Y-84420952D01*
X164460476Y-84563809D01*
X164412857Y-84754285D01*
X164365238Y-84849523D01*
X164270000Y-84944761D01*
X164127142Y-84992380D01*
X163889047Y-84992380D01*
X164936666Y-84992380D02*
X165127142Y-84992380D01*
X165222380Y-84944761D01*
X165270000Y-84897142D01*
X165365238Y-84754285D01*
X165412857Y-84563809D01*
X165412857Y-84182857D01*
X165365238Y-84087619D01*
X165317619Y-84040000D01*
X165222380Y-83992380D01*
X165031904Y-83992380D01*
X164936666Y-84040000D01*
X164889047Y-84087619D01*
X164841428Y-84182857D01*
X164841428Y-84420952D01*
X164889047Y-84516190D01*
X164936666Y-84563809D01*
X165031904Y-84611428D01*
X165222380Y-84611428D01*
X165317619Y-84563809D01*
X165365238Y-84516190D01*
X165412857Y-84420952D01*
G04 #@! TO.C,LED10*
X172174761Y-84992380D02*
X171698571Y-84992380D01*
X171698571Y-83992380D01*
X172508095Y-84468571D02*
X172841428Y-84468571D01*
X172984285Y-84992380D02*
X172508095Y-84992380D01*
X172508095Y-83992380D01*
X172984285Y-83992380D01*
X173412857Y-84992380D02*
X173412857Y-83992380D01*
X173650952Y-83992380D01*
X173793809Y-84040000D01*
X173889047Y-84135238D01*
X173936666Y-84230476D01*
X173984285Y-84420952D01*
X173984285Y-84563809D01*
X173936666Y-84754285D01*
X173889047Y-84849523D01*
X173793809Y-84944761D01*
X173650952Y-84992380D01*
X173412857Y-84992380D01*
X174936666Y-84992380D02*
X174365238Y-84992380D01*
X174650952Y-84992380D02*
X174650952Y-83992380D01*
X174555714Y-84135238D01*
X174460476Y-84230476D01*
X174365238Y-84278095D01*
X175555714Y-83992380D02*
X175650952Y-83992380D01*
X175746190Y-84040000D01*
X175793809Y-84087619D01*
X175841428Y-84182857D01*
X175889047Y-84373333D01*
X175889047Y-84611428D01*
X175841428Y-84801904D01*
X175793809Y-84897142D01*
X175746190Y-84944761D01*
X175650952Y-84992380D01*
X175555714Y-84992380D01*
X175460476Y-84944761D01*
X175412857Y-84897142D01*
X175365238Y-84801904D01*
X175317619Y-84611428D01*
X175317619Y-84373333D01*
X175365238Y-84182857D01*
X175412857Y-84087619D01*
X175460476Y-84040000D01*
X175555714Y-83992380D01*
G04 #@! TO.C,LED11*
X182134761Y-84992380D02*
X181658571Y-84992380D01*
X181658571Y-83992380D01*
X182468095Y-84468571D02*
X182801428Y-84468571D01*
X182944285Y-84992380D02*
X182468095Y-84992380D01*
X182468095Y-83992380D01*
X182944285Y-83992380D01*
X183372857Y-84992380D02*
X183372857Y-83992380D01*
X183610952Y-83992380D01*
X183753809Y-84040000D01*
X183849047Y-84135238D01*
X183896666Y-84230476D01*
X183944285Y-84420952D01*
X183944285Y-84563809D01*
X183896666Y-84754285D01*
X183849047Y-84849523D01*
X183753809Y-84944761D01*
X183610952Y-84992380D01*
X183372857Y-84992380D01*
X184896666Y-84992380D02*
X184325238Y-84992380D01*
X184610952Y-84992380D02*
X184610952Y-83992380D01*
X184515714Y-84135238D01*
X184420476Y-84230476D01*
X184325238Y-84278095D01*
X185849047Y-84992380D02*
X185277619Y-84992380D01*
X185563333Y-84992380D02*
X185563333Y-83992380D01*
X185468095Y-84135238D01*
X185372857Y-84230476D01*
X185277619Y-84278095D01*
G04 #@! TO.C,LED12*
X192174761Y-84992380D02*
X191698571Y-84992380D01*
X191698571Y-83992380D01*
X192508095Y-84468571D02*
X192841428Y-84468571D01*
X192984285Y-84992380D02*
X192508095Y-84992380D01*
X192508095Y-83992380D01*
X192984285Y-83992380D01*
X193412857Y-84992380D02*
X193412857Y-83992380D01*
X193650952Y-83992380D01*
X193793809Y-84040000D01*
X193889047Y-84135238D01*
X193936666Y-84230476D01*
X193984285Y-84420952D01*
X193984285Y-84563809D01*
X193936666Y-84754285D01*
X193889047Y-84849523D01*
X193793809Y-84944761D01*
X193650952Y-84992380D01*
X193412857Y-84992380D01*
X194936666Y-84992380D02*
X194365238Y-84992380D01*
X194650952Y-84992380D02*
X194650952Y-83992380D01*
X194555714Y-84135238D01*
X194460476Y-84230476D01*
X194365238Y-84278095D01*
X195317619Y-84087619D02*
X195365238Y-84040000D01*
X195460476Y-83992380D01*
X195698571Y-83992380D01*
X195793809Y-84040000D01*
X195841428Y-84087619D01*
X195889047Y-84182857D01*
X195889047Y-84278095D01*
X195841428Y-84420952D01*
X195270000Y-84992380D01*
X195889047Y-84992380D01*
G04 #@! TO.C,LED13*
X162174761Y-102492380D02*
X161698571Y-102492380D01*
X161698571Y-101492380D01*
X162508095Y-101968571D02*
X162841428Y-101968571D01*
X162984285Y-102492380D02*
X162508095Y-102492380D01*
X162508095Y-101492380D01*
X162984285Y-101492380D01*
X163412857Y-102492380D02*
X163412857Y-101492380D01*
X163650952Y-101492380D01*
X163793809Y-101540000D01*
X163889047Y-101635238D01*
X163936666Y-101730476D01*
X163984285Y-101920952D01*
X163984285Y-102063809D01*
X163936666Y-102254285D01*
X163889047Y-102349523D01*
X163793809Y-102444761D01*
X163650952Y-102492380D01*
X163412857Y-102492380D01*
X164936666Y-102492380D02*
X164365238Y-102492380D01*
X164650952Y-102492380D02*
X164650952Y-101492380D01*
X164555714Y-101635238D01*
X164460476Y-101730476D01*
X164365238Y-101778095D01*
X165270000Y-101492380D02*
X165889047Y-101492380D01*
X165555714Y-101873333D01*
X165698571Y-101873333D01*
X165793809Y-101920952D01*
X165841428Y-101968571D01*
X165889047Y-102063809D01*
X165889047Y-102301904D01*
X165841428Y-102397142D01*
X165793809Y-102444761D01*
X165698571Y-102492380D01*
X165412857Y-102492380D01*
X165317619Y-102444761D01*
X165270000Y-102397142D01*
G04 #@! TO.C,LED14*
X172174761Y-102492380D02*
X171698571Y-102492380D01*
X171698571Y-101492380D01*
X172508095Y-101968571D02*
X172841428Y-101968571D01*
X172984285Y-102492380D02*
X172508095Y-102492380D01*
X172508095Y-101492380D01*
X172984285Y-101492380D01*
X173412857Y-102492380D02*
X173412857Y-101492380D01*
X173650952Y-101492380D01*
X173793809Y-101540000D01*
X173889047Y-101635238D01*
X173936666Y-101730476D01*
X173984285Y-101920952D01*
X173984285Y-102063809D01*
X173936666Y-102254285D01*
X173889047Y-102349523D01*
X173793809Y-102444761D01*
X173650952Y-102492380D01*
X173412857Y-102492380D01*
X174936666Y-102492380D02*
X174365238Y-102492380D01*
X174650952Y-102492380D02*
X174650952Y-101492380D01*
X174555714Y-101635238D01*
X174460476Y-101730476D01*
X174365238Y-101778095D01*
X175793809Y-101825714D02*
X175793809Y-102492380D01*
X175555714Y-101444761D02*
X175317619Y-102159047D01*
X175936666Y-102159047D01*
G04 #@! TO.C,LED15*
X182134761Y-102492380D02*
X181658571Y-102492380D01*
X181658571Y-101492380D01*
X182468095Y-101968571D02*
X182801428Y-101968571D01*
X182944285Y-102492380D02*
X182468095Y-102492380D01*
X182468095Y-101492380D01*
X182944285Y-101492380D01*
X183372857Y-102492380D02*
X183372857Y-101492380D01*
X183610952Y-101492380D01*
X183753809Y-101540000D01*
X183849047Y-101635238D01*
X183896666Y-101730476D01*
X183944285Y-101920952D01*
X183944285Y-102063809D01*
X183896666Y-102254285D01*
X183849047Y-102349523D01*
X183753809Y-102444761D01*
X183610952Y-102492380D01*
X183372857Y-102492380D01*
X184896666Y-102492380D02*
X184325238Y-102492380D01*
X184610952Y-102492380D02*
X184610952Y-101492380D01*
X184515714Y-101635238D01*
X184420476Y-101730476D01*
X184325238Y-101778095D01*
X185801428Y-101492380D02*
X185325238Y-101492380D01*
X185277619Y-101968571D01*
X185325238Y-101920952D01*
X185420476Y-101873333D01*
X185658571Y-101873333D01*
X185753809Y-101920952D01*
X185801428Y-101968571D01*
X185849047Y-102063809D01*
X185849047Y-102301904D01*
X185801428Y-102397142D01*
X185753809Y-102444761D01*
X185658571Y-102492380D01*
X185420476Y-102492380D01*
X185325238Y-102444761D01*
X185277619Y-102397142D01*
G04 #@! TO.C,LED16*
X192174761Y-102492380D02*
X191698571Y-102492380D01*
X191698571Y-101492380D01*
X192508095Y-101968571D02*
X192841428Y-101968571D01*
X192984285Y-102492380D02*
X192508095Y-102492380D01*
X192508095Y-101492380D01*
X192984285Y-101492380D01*
X193412857Y-102492380D02*
X193412857Y-101492380D01*
X193650952Y-101492380D01*
X193793809Y-101540000D01*
X193889047Y-101635238D01*
X193936666Y-101730476D01*
X193984285Y-101920952D01*
X193984285Y-102063809D01*
X193936666Y-102254285D01*
X193889047Y-102349523D01*
X193793809Y-102444761D01*
X193650952Y-102492380D01*
X193412857Y-102492380D01*
X194936666Y-102492380D02*
X194365238Y-102492380D01*
X194650952Y-102492380D02*
X194650952Y-101492380D01*
X194555714Y-101635238D01*
X194460476Y-101730476D01*
X194365238Y-101778095D01*
X195793809Y-101492380D02*
X195603333Y-101492380D01*
X195508095Y-101540000D01*
X195460476Y-101587619D01*
X195365238Y-101730476D01*
X195317619Y-101920952D01*
X195317619Y-102301904D01*
X195365238Y-102397142D01*
X195412857Y-102444761D01*
X195508095Y-102492380D01*
X195698571Y-102492380D01*
X195793809Y-102444761D01*
X195841428Y-102397142D01*
X195889047Y-102301904D01*
X195889047Y-102063809D01*
X195841428Y-101968571D01*
X195793809Y-101920952D01*
X195698571Y-101873333D01*
X195508095Y-101873333D01*
X195412857Y-101920952D01*
X195365238Y-101968571D01*
X195317619Y-102063809D01*
G04 #@! TO.C,R1*
X113752380Y-101316666D02*
X113276190Y-101650000D01*
X113752380Y-101888095D02*
X112752380Y-101888095D01*
X112752380Y-101507142D01*
X112800000Y-101411904D01*
X112847619Y-101364285D01*
X112942857Y-101316666D01*
X113085714Y-101316666D01*
X113180952Y-101364285D01*
X113228571Y-101411904D01*
X113276190Y-101507142D01*
X113276190Y-101888095D01*
X113752380Y-100364285D02*
X113752380Y-100935714D01*
X113752380Y-100650000D02*
X112752380Y-100650000D01*
X112895238Y-100745238D01*
X112990476Y-100840476D01*
X113038095Y-100935714D01*
G04 #@! TO.C,R2*
X118752380Y-101316666D02*
X118276190Y-101650000D01*
X118752380Y-101888095D02*
X117752380Y-101888095D01*
X117752380Y-101507142D01*
X117800000Y-101411904D01*
X117847619Y-101364285D01*
X117942857Y-101316666D01*
X118085714Y-101316666D01*
X118180952Y-101364285D01*
X118228571Y-101411904D01*
X118276190Y-101507142D01*
X118276190Y-101888095D01*
X117847619Y-100935714D02*
X117800000Y-100888095D01*
X117752380Y-100792857D01*
X117752380Y-100554761D01*
X117800000Y-100459523D01*
X117847619Y-100411904D01*
X117942857Y-100364285D01*
X118038095Y-100364285D01*
X118180952Y-100411904D01*
X118752380Y-100983333D01*
X118752380Y-100364285D01*
G04 #@! TO.C,R3*
X123752380Y-101316666D02*
X123276190Y-101650000D01*
X123752380Y-101888095D02*
X122752380Y-101888095D01*
X122752380Y-101507142D01*
X122800000Y-101411904D01*
X122847619Y-101364285D01*
X122942857Y-101316666D01*
X123085714Y-101316666D01*
X123180952Y-101364285D01*
X123228571Y-101411904D01*
X123276190Y-101507142D01*
X123276190Y-101888095D01*
X122752380Y-100983333D02*
X122752380Y-100364285D01*
X123133333Y-100697619D01*
X123133333Y-100554761D01*
X123180952Y-100459523D01*
X123228571Y-100411904D01*
X123323809Y-100364285D01*
X123561904Y-100364285D01*
X123657142Y-100411904D01*
X123704761Y-100459523D01*
X123752380Y-100554761D01*
X123752380Y-100840476D01*
X123704761Y-100935714D01*
X123657142Y-100983333D01*
G04 #@! TO.C,R4*
X128752380Y-101316666D02*
X128276190Y-101650000D01*
X128752380Y-101888095D02*
X127752380Y-101888095D01*
X127752380Y-101507142D01*
X127800000Y-101411904D01*
X127847619Y-101364285D01*
X127942857Y-101316666D01*
X128085714Y-101316666D01*
X128180952Y-101364285D01*
X128228571Y-101411904D01*
X128276190Y-101507142D01*
X128276190Y-101888095D01*
X128085714Y-100459523D02*
X128752380Y-100459523D01*
X127704761Y-100697619D02*
X128419047Y-100935714D01*
X128419047Y-100316666D01*
G04 #@! TO.C,R5*
X169652380Y-52666666D02*
X169176190Y-53000000D01*
X169652380Y-53238095D02*
X168652380Y-53238095D01*
X168652380Y-52857142D01*
X168700000Y-52761904D01*
X168747619Y-52714285D01*
X168842857Y-52666666D01*
X168985714Y-52666666D01*
X169080952Y-52714285D01*
X169128571Y-52761904D01*
X169176190Y-52857142D01*
X169176190Y-53238095D01*
X168652380Y-51761904D02*
X168652380Y-52238095D01*
X169128571Y-52285714D01*
X169080952Y-52238095D01*
X169033333Y-52142857D01*
X169033333Y-51904761D01*
X169080952Y-51809523D01*
X169128571Y-51761904D01*
X169223809Y-51714285D01*
X169461904Y-51714285D01*
X169557142Y-51761904D01*
X169604761Y-51809523D01*
X169652380Y-51904761D01*
X169652380Y-52142857D01*
X169604761Y-52238095D01*
X169557142Y-52285714D01*
G04 #@! TO.C,R6*
X179652380Y-52666666D02*
X179176190Y-53000000D01*
X179652380Y-53238095D02*
X178652380Y-53238095D01*
X178652380Y-52857142D01*
X178700000Y-52761904D01*
X178747619Y-52714285D01*
X178842857Y-52666666D01*
X178985714Y-52666666D01*
X179080952Y-52714285D01*
X179128571Y-52761904D01*
X179176190Y-52857142D01*
X179176190Y-53238095D01*
X178652380Y-51809523D02*
X178652380Y-52000000D01*
X178700000Y-52095238D01*
X178747619Y-52142857D01*
X178890476Y-52238095D01*
X179080952Y-52285714D01*
X179461904Y-52285714D01*
X179557142Y-52238095D01*
X179604761Y-52190476D01*
X179652380Y-52095238D01*
X179652380Y-51904761D01*
X179604761Y-51809523D01*
X179557142Y-51761904D01*
X179461904Y-51714285D01*
X179223809Y-51714285D01*
X179128571Y-51761904D01*
X179080952Y-51809523D01*
X179033333Y-51904761D01*
X179033333Y-52095238D01*
X179080952Y-52190476D01*
X179128571Y-52238095D01*
X179223809Y-52285714D01*
G04 #@! TO.C,R7*
X189652380Y-52666666D02*
X189176190Y-53000000D01*
X189652380Y-53238095D02*
X188652380Y-53238095D01*
X188652380Y-52857142D01*
X188700000Y-52761904D01*
X188747619Y-52714285D01*
X188842857Y-52666666D01*
X188985714Y-52666666D01*
X189080952Y-52714285D01*
X189128571Y-52761904D01*
X189176190Y-52857142D01*
X189176190Y-53238095D01*
X188652380Y-52333333D02*
X188652380Y-51666666D01*
X189652380Y-52095238D01*
G04 #@! TO.C,R8*
X199652380Y-52666666D02*
X199176190Y-53000000D01*
X199652380Y-53238095D02*
X198652380Y-53238095D01*
X198652380Y-52857142D01*
X198700000Y-52761904D01*
X198747619Y-52714285D01*
X198842857Y-52666666D01*
X198985714Y-52666666D01*
X199080952Y-52714285D01*
X199128571Y-52761904D01*
X199176190Y-52857142D01*
X199176190Y-53238095D01*
X199080952Y-52095238D02*
X199033333Y-52190476D01*
X198985714Y-52238095D01*
X198890476Y-52285714D01*
X198842857Y-52285714D01*
X198747619Y-52238095D01*
X198700000Y-52190476D01*
X198652380Y-52095238D01*
X198652380Y-51904761D01*
X198700000Y-51809523D01*
X198747619Y-51761904D01*
X198842857Y-51714285D01*
X198890476Y-51714285D01*
X198985714Y-51761904D01*
X199033333Y-51809523D01*
X199080952Y-51904761D01*
X199080952Y-52095238D01*
X199128571Y-52190476D01*
X199176190Y-52238095D01*
X199271428Y-52285714D01*
X199461904Y-52285714D01*
X199557142Y-52238095D01*
X199604761Y-52190476D01*
X199652380Y-52095238D01*
X199652380Y-51904761D01*
X199604761Y-51809523D01*
X199557142Y-51761904D01*
X199461904Y-51714285D01*
X199271428Y-51714285D01*
X199176190Y-51761904D01*
X199128571Y-51809523D01*
X199080952Y-51904761D01*
G04 #@! TO.C,R9*
X169652380Y-70166666D02*
X169176190Y-70500000D01*
X169652380Y-70738095D02*
X168652380Y-70738095D01*
X168652380Y-70357142D01*
X168700000Y-70261904D01*
X168747619Y-70214285D01*
X168842857Y-70166666D01*
X168985714Y-70166666D01*
X169080952Y-70214285D01*
X169128571Y-70261904D01*
X169176190Y-70357142D01*
X169176190Y-70738095D01*
X169652380Y-69690476D02*
X169652380Y-69500000D01*
X169604761Y-69404761D01*
X169557142Y-69357142D01*
X169414285Y-69261904D01*
X169223809Y-69214285D01*
X168842857Y-69214285D01*
X168747619Y-69261904D01*
X168700000Y-69309523D01*
X168652380Y-69404761D01*
X168652380Y-69595238D01*
X168700000Y-69690476D01*
X168747619Y-69738095D01*
X168842857Y-69785714D01*
X169080952Y-69785714D01*
X169176190Y-69738095D01*
X169223809Y-69690476D01*
X169271428Y-69595238D01*
X169271428Y-69404761D01*
X169223809Y-69309523D01*
X169176190Y-69261904D01*
X169080952Y-69214285D01*
G04 #@! TO.C,R10*
X179652380Y-70642857D02*
X179176190Y-70976190D01*
X179652380Y-71214285D02*
X178652380Y-71214285D01*
X178652380Y-70833333D01*
X178700000Y-70738095D01*
X178747619Y-70690476D01*
X178842857Y-70642857D01*
X178985714Y-70642857D01*
X179080952Y-70690476D01*
X179128571Y-70738095D01*
X179176190Y-70833333D01*
X179176190Y-71214285D01*
X179652380Y-69690476D02*
X179652380Y-70261904D01*
X179652380Y-69976190D02*
X178652380Y-69976190D01*
X178795238Y-70071428D01*
X178890476Y-70166666D01*
X178938095Y-70261904D01*
X178652380Y-69071428D02*
X178652380Y-68976190D01*
X178700000Y-68880952D01*
X178747619Y-68833333D01*
X178842857Y-68785714D01*
X179033333Y-68738095D01*
X179271428Y-68738095D01*
X179461904Y-68785714D01*
X179557142Y-68833333D01*
X179604761Y-68880952D01*
X179652380Y-68976190D01*
X179652380Y-69071428D01*
X179604761Y-69166666D01*
X179557142Y-69214285D01*
X179461904Y-69261904D01*
X179271428Y-69309523D01*
X179033333Y-69309523D01*
X178842857Y-69261904D01*
X178747619Y-69214285D01*
X178700000Y-69166666D01*
X178652380Y-69071428D01*
G04 #@! TO.C,R11*
X189652380Y-70642857D02*
X189176190Y-70976190D01*
X189652380Y-71214285D02*
X188652380Y-71214285D01*
X188652380Y-70833333D01*
X188700000Y-70738095D01*
X188747619Y-70690476D01*
X188842857Y-70642857D01*
X188985714Y-70642857D01*
X189080952Y-70690476D01*
X189128571Y-70738095D01*
X189176190Y-70833333D01*
X189176190Y-71214285D01*
X189652380Y-69690476D02*
X189652380Y-70261904D01*
X189652380Y-69976190D02*
X188652380Y-69976190D01*
X188795238Y-70071428D01*
X188890476Y-70166666D01*
X188938095Y-70261904D01*
X189652380Y-68738095D02*
X189652380Y-69309523D01*
X189652380Y-69023809D02*
X188652380Y-69023809D01*
X188795238Y-69119047D01*
X188890476Y-69214285D01*
X188938095Y-69309523D01*
G04 #@! TO.C,R12*
X199652380Y-70642857D02*
X199176190Y-70976190D01*
X199652380Y-71214285D02*
X198652380Y-71214285D01*
X198652380Y-70833333D01*
X198700000Y-70738095D01*
X198747619Y-70690476D01*
X198842857Y-70642857D01*
X198985714Y-70642857D01*
X199080952Y-70690476D01*
X199128571Y-70738095D01*
X199176190Y-70833333D01*
X199176190Y-71214285D01*
X199652380Y-69690476D02*
X199652380Y-70261904D01*
X199652380Y-69976190D02*
X198652380Y-69976190D01*
X198795238Y-70071428D01*
X198890476Y-70166666D01*
X198938095Y-70261904D01*
X198747619Y-69309523D02*
X198700000Y-69261904D01*
X198652380Y-69166666D01*
X198652380Y-68928571D01*
X198700000Y-68833333D01*
X198747619Y-68785714D01*
X198842857Y-68738095D01*
X198938095Y-68738095D01*
X199080952Y-68785714D01*
X199652380Y-69357142D01*
X199652380Y-68738095D01*
G04 #@! TO.C,R13*
X169652380Y-88142857D02*
X169176190Y-88476190D01*
X169652380Y-88714285D02*
X168652380Y-88714285D01*
X168652380Y-88333333D01*
X168700000Y-88238095D01*
X168747619Y-88190476D01*
X168842857Y-88142857D01*
X168985714Y-88142857D01*
X169080952Y-88190476D01*
X169128571Y-88238095D01*
X169176190Y-88333333D01*
X169176190Y-88714285D01*
X169652380Y-87190476D02*
X169652380Y-87761904D01*
X169652380Y-87476190D02*
X168652380Y-87476190D01*
X168795238Y-87571428D01*
X168890476Y-87666666D01*
X168938095Y-87761904D01*
X168652380Y-86857142D02*
X168652380Y-86238095D01*
X169033333Y-86571428D01*
X169033333Y-86428571D01*
X169080952Y-86333333D01*
X169128571Y-86285714D01*
X169223809Y-86238095D01*
X169461904Y-86238095D01*
X169557142Y-86285714D01*
X169604761Y-86333333D01*
X169652380Y-86428571D01*
X169652380Y-86714285D01*
X169604761Y-86809523D01*
X169557142Y-86857142D01*
G04 #@! TO.C,R14*
X179652380Y-88142857D02*
X179176190Y-88476190D01*
X179652380Y-88714285D02*
X178652380Y-88714285D01*
X178652380Y-88333333D01*
X178700000Y-88238095D01*
X178747619Y-88190476D01*
X178842857Y-88142857D01*
X178985714Y-88142857D01*
X179080952Y-88190476D01*
X179128571Y-88238095D01*
X179176190Y-88333333D01*
X179176190Y-88714285D01*
X179652380Y-87190476D02*
X179652380Y-87761904D01*
X179652380Y-87476190D02*
X178652380Y-87476190D01*
X178795238Y-87571428D01*
X178890476Y-87666666D01*
X178938095Y-87761904D01*
X178985714Y-86333333D02*
X179652380Y-86333333D01*
X178604761Y-86571428D02*
X179319047Y-86809523D01*
X179319047Y-86190476D01*
G04 #@! TO.C,R15*
X189652380Y-88142857D02*
X189176190Y-88476190D01*
X189652380Y-88714285D02*
X188652380Y-88714285D01*
X188652380Y-88333333D01*
X188700000Y-88238095D01*
X188747619Y-88190476D01*
X188842857Y-88142857D01*
X188985714Y-88142857D01*
X189080952Y-88190476D01*
X189128571Y-88238095D01*
X189176190Y-88333333D01*
X189176190Y-88714285D01*
X189652380Y-87190476D02*
X189652380Y-87761904D01*
X189652380Y-87476190D02*
X188652380Y-87476190D01*
X188795238Y-87571428D01*
X188890476Y-87666666D01*
X188938095Y-87761904D01*
X188652380Y-86285714D02*
X188652380Y-86761904D01*
X189128571Y-86809523D01*
X189080952Y-86761904D01*
X189033333Y-86666666D01*
X189033333Y-86428571D01*
X189080952Y-86333333D01*
X189128571Y-86285714D01*
X189223809Y-86238095D01*
X189461904Y-86238095D01*
X189557142Y-86285714D01*
X189604761Y-86333333D01*
X189652380Y-86428571D01*
X189652380Y-86666666D01*
X189604761Y-86761904D01*
X189557142Y-86809523D01*
G04 #@! TO.C,R16*
X199652380Y-88142857D02*
X199176190Y-88476190D01*
X199652380Y-88714285D02*
X198652380Y-88714285D01*
X198652380Y-88333333D01*
X198700000Y-88238095D01*
X198747619Y-88190476D01*
X198842857Y-88142857D01*
X198985714Y-88142857D01*
X199080952Y-88190476D01*
X199128571Y-88238095D01*
X199176190Y-88333333D01*
X199176190Y-88714285D01*
X199652380Y-87190476D02*
X199652380Y-87761904D01*
X199652380Y-87476190D02*
X198652380Y-87476190D01*
X198795238Y-87571428D01*
X198890476Y-87666666D01*
X198938095Y-87761904D01*
X198652380Y-86333333D02*
X198652380Y-86523809D01*
X198700000Y-86619047D01*
X198747619Y-86666666D01*
X198890476Y-86761904D01*
X199080952Y-86809523D01*
X199461904Y-86809523D01*
X199557142Y-86761904D01*
X199604761Y-86714285D01*
X199652380Y-86619047D01*
X199652380Y-86428571D01*
X199604761Y-86333333D01*
X199557142Y-86285714D01*
X199461904Y-86238095D01*
X199223809Y-86238095D01*
X199128571Y-86285714D01*
X199080952Y-86333333D01*
X199033333Y-86428571D01*
X199033333Y-86619047D01*
X199080952Y-86714285D01*
X199128571Y-86761904D01*
X199223809Y-86809523D01*
G04 #@! TO.C,R17*
X169652380Y-105642857D02*
X169176190Y-105976190D01*
X169652380Y-106214285D02*
X168652380Y-106214285D01*
X168652380Y-105833333D01*
X168700000Y-105738095D01*
X168747619Y-105690476D01*
X168842857Y-105642857D01*
X168985714Y-105642857D01*
X169080952Y-105690476D01*
X169128571Y-105738095D01*
X169176190Y-105833333D01*
X169176190Y-106214285D01*
X169652380Y-104690476D02*
X169652380Y-105261904D01*
X169652380Y-104976190D02*
X168652380Y-104976190D01*
X168795238Y-105071428D01*
X168890476Y-105166666D01*
X168938095Y-105261904D01*
X168652380Y-104357142D02*
X168652380Y-103690476D01*
X169652380Y-104119047D01*
G04 #@! TO.C,R18*
X179652380Y-105642857D02*
X179176190Y-105976190D01*
X179652380Y-106214285D02*
X178652380Y-106214285D01*
X178652380Y-105833333D01*
X178700000Y-105738095D01*
X178747619Y-105690476D01*
X178842857Y-105642857D01*
X178985714Y-105642857D01*
X179080952Y-105690476D01*
X179128571Y-105738095D01*
X179176190Y-105833333D01*
X179176190Y-106214285D01*
X179652380Y-104690476D02*
X179652380Y-105261904D01*
X179652380Y-104976190D02*
X178652380Y-104976190D01*
X178795238Y-105071428D01*
X178890476Y-105166666D01*
X178938095Y-105261904D01*
X179080952Y-104119047D02*
X179033333Y-104214285D01*
X178985714Y-104261904D01*
X178890476Y-104309523D01*
X178842857Y-104309523D01*
X178747619Y-104261904D01*
X178700000Y-104214285D01*
X178652380Y-104119047D01*
X178652380Y-103928571D01*
X178700000Y-103833333D01*
X178747619Y-103785714D01*
X178842857Y-103738095D01*
X178890476Y-103738095D01*
X178985714Y-103785714D01*
X179033333Y-103833333D01*
X179080952Y-103928571D01*
X179080952Y-104119047D01*
X179128571Y-104214285D01*
X179176190Y-104261904D01*
X179271428Y-104309523D01*
X179461904Y-104309523D01*
X179557142Y-104261904D01*
X179604761Y-104214285D01*
X179652380Y-104119047D01*
X179652380Y-103928571D01*
X179604761Y-103833333D01*
X179557142Y-103785714D01*
X179461904Y-103738095D01*
X179271428Y-103738095D01*
X179176190Y-103785714D01*
X179128571Y-103833333D01*
X179080952Y-103928571D01*
G04 #@! TO.C,R19*
X189652380Y-105642857D02*
X189176190Y-105976190D01*
X189652380Y-106214285D02*
X188652380Y-106214285D01*
X188652380Y-105833333D01*
X188700000Y-105738095D01*
X188747619Y-105690476D01*
X188842857Y-105642857D01*
X188985714Y-105642857D01*
X189080952Y-105690476D01*
X189128571Y-105738095D01*
X189176190Y-105833333D01*
X189176190Y-106214285D01*
X189652380Y-104690476D02*
X189652380Y-105261904D01*
X189652380Y-104976190D02*
X188652380Y-104976190D01*
X188795238Y-105071428D01*
X188890476Y-105166666D01*
X188938095Y-105261904D01*
X189652380Y-104214285D02*
X189652380Y-104023809D01*
X189604761Y-103928571D01*
X189557142Y-103880952D01*
X189414285Y-103785714D01*
X189223809Y-103738095D01*
X188842857Y-103738095D01*
X188747619Y-103785714D01*
X188700000Y-103833333D01*
X188652380Y-103928571D01*
X188652380Y-104119047D01*
X188700000Y-104214285D01*
X188747619Y-104261904D01*
X188842857Y-104309523D01*
X189080952Y-104309523D01*
X189176190Y-104261904D01*
X189223809Y-104214285D01*
X189271428Y-104119047D01*
X189271428Y-103928571D01*
X189223809Y-103833333D01*
X189176190Y-103785714D01*
X189080952Y-103738095D01*
G04 #@! TO.C,R20*
X199652380Y-105642857D02*
X199176190Y-105976190D01*
X199652380Y-106214285D02*
X198652380Y-106214285D01*
X198652380Y-105833333D01*
X198700000Y-105738095D01*
X198747619Y-105690476D01*
X198842857Y-105642857D01*
X198985714Y-105642857D01*
X199080952Y-105690476D01*
X199128571Y-105738095D01*
X199176190Y-105833333D01*
X199176190Y-106214285D01*
X198747619Y-105261904D02*
X198700000Y-105214285D01*
X198652380Y-105119047D01*
X198652380Y-104880952D01*
X198700000Y-104785714D01*
X198747619Y-104738095D01*
X198842857Y-104690476D01*
X198938095Y-104690476D01*
X199080952Y-104738095D01*
X199652380Y-105309523D01*
X199652380Y-104690476D01*
X198652380Y-104071428D02*
X198652380Y-103976190D01*
X198700000Y-103880952D01*
X198747619Y-103833333D01*
X198842857Y-103785714D01*
X199033333Y-103738095D01*
X199271428Y-103738095D01*
X199461904Y-103785714D01*
X199557142Y-103833333D01*
X199604761Y-103880952D01*
X199652380Y-103976190D01*
X199652380Y-104071428D01*
X199604761Y-104166666D01*
X199557142Y-104214285D01*
X199461904Y-104261904D01*
X199271428Y-104309523D01*
X199033333Y-104309523D01*
X198842857Y-104261904D01*
X198747619Y-104214285D01*
X198700000Y-104166666D01*
X198652380Y-104071428D01*
G04 #@! TO.C,SW1*
X162416666Y-56404761D02*
X162559523Y-56452380D01*
X162797619Y-56452380D01*
X162892857Y-56404761D01*
X162940476Y-56357142D01*
X162988095Y-56261904D01*
X162988095Y-56166666D01*
X162940476Y-56071428D01*
X162892857Y-56023809D01*
X162797619Y-55976190D01*
X162607142Y-55928571D01*
X162511904Y-55880952D01*
X162464285Y-55833333D01*
X162416666Y-55738095D01*
X162416666Y-55642857D01*
X162464285Y-55547619D01*
X162511904Y-55500000D01*
X162607142Y-55452380D01*
X162845238Y-55452380D01*
X162988095Y-55500000D01*
X163321428Y-55452380D02*
X163559523Y-56452380D01*
X163750000Y-55738095D01*
X163940476Y-56452380D01*
X164178571Y-55452380D01*
X165083333Y-56452380D02*
X164511904Y-56452380D01*
X164797619Y-56452380D02*
X164797619Y-55452380D01*
X164702380Y-55595238D01*
X164607142Y-55690476D01*
X164511904Y-55738095D01*
G04 #@! TO.C,SW2*
X172416666Y-56404761D02*
X172559523Y-56452380D01*
X172797619Y-56452380D01*
X172892857Y-56404761D01*
X172940476Y-56357142D01*
X172988095Y-56261904D01*
X172988095Y-56166666D01*
X172940476Y-56071428D01*
X172892857Y-56023809D01*
X172797619Y-55976190D01*
X172607142Y-55928571D01*
X172511904Y-55880952D01*
X172464285Y-55833333D01*
X172416666Y-55738095D01*
X172416666Y-55642857D01*
X172464285Y-55547619D01*
X172511904Y-55500000D01*
X172607142Y-55452380D01*
X172845238Y-55452380D01*
X172988095Y-55500000D01*
X173321428Y-55452380D02*
X173559523Y-56452380D01*
X173750000Y-55738095D01*
X173940476Y-56452380D01*
X174178571Y-55452380D01*
X174511904Y-55547619D02*
X174559523Y-55500000D01*
X174654761Y-55452380D01*
X174892857Y-55452380D01*
X174988095Y-55500000D01*
X175035714Y-55547619D01*
X175083333Y-55642857D01*
X175083333Y-55738095D01*
X175035714Y-55880952D01*
X174464285Y-56452380D01*
X175083333Y-56452380D01*
G04 #@! TO.C,SW3*
X182416666Y-56404761D02*
X182559523Y-56452380D01*
X182797619Y-56452380D01*
X182892857Y-56404761D01*
X182940476Y-56357142D01*
X182988095Y-56261904D01*
X182988095Y-56166666D01*
X182940476Y-56071428D01*
X182892857Y-56023809D01*
X182797619Y-55976190D01*
X182607142Y-55928571D01*
X182511904Y-55880952D01*
X182464285Y-55833333D01*
X182416666Y-55738095D01*
X182416666Y-55642857D01*
X182464285Y-55547619D01*
X182511904Y-55500000D01*
X182607142Y-55452380D01*
X182845238Y-55452380D01*
X182988095Y-55500000D01*
X183321428Y-55452380D02*
X183559523Y-56452380D01*
X183750000Y-55738095D01*
X183940476Y-56452380D01*
X184178571Y-55452380D01*
X184464285Y-55452380D02*
X185083333Y-55452380D01*
X184750000Y-55833333D01*
X184892857Y-55833333D01*
X184988095Y-55880952D01*
X185035714Y-55928571D01*
X185083333Y-56023809D01*
X185083333Y-56261904D01*
X185035714Y-56357142D01*
X184988095Y-56404761D01*
X184892857Y-56452380D01*
X184607142Y-56452380D01*
X184511904Y-56404761D01*
X184464285Y-56357142D01*
G04 #@! TO.C,SW4*
X192416666Y-56404761D02*
X192559523Y-56452380D01*
X192797619Y-56452380D01*
X192892857Y-56404761D01*
X192940476Y-56357142D01*
X192988095Y-56261904D01*
X192988095Y-56166666D01*
X192940476Y-56071428D01*
X192892857Y-56023809D01*
X192797619Y-55976190D01*
X192607142Y-55928571D01*
X192511904Y-55880952D01*
X192464285Y-55833333D01*
X192416666Y-55738095D01*
X192416666Y-55642857D01*
X192464285Y-55547619D01*
X192511904Y-55500000D01*
X192607142Y-55452380D01*
X192845238Y-55452380D01*
X192988095Y-55500000D01*
X193321428Y-55452380D02*
X193559523Y-56452380D01*
X193750000Y-55738095D01*
X193940476Y-56452380D01*
X194178571Y-55452380D01*
X194988095Y-55785714D02*
X194988095Y-56452380D01*
X194750000Y-55404761D02*
X194511904Y-56119047D01*
X195130952Y-56119047D01*
G04 #@! TO.C,SW5*
X162416666Y-73904761D02*
X162559523Y-73952380D01*
X162797619Y-73952380D01*
X162892857Y-73904761D01*
X162940476Y-73857142D01*
X162988095Y-73761904D01*
X162988095Y-73666666D01*
X162940476Y-73571428D01*
X162892857Y-73523809D01*
X162797619Y-73476190D01*
X162607142Y-73428571D01*
X162511904Y-73380952D01*
X162464285Y-73333333D01*
X162416666Y-73238095D01*
X162416666Y-73142857D01*
X162464285Y-73047619D01*
X162511904Y-73000000D01*
X162607142Y-72952380D01*
X162845238Y-72952380D01*
X162988095Y-73000000D01*
X163321428Y-72952380D02*
X163559523Y-73952380D01*
X163750000Y-73238095D01*
X163940476Y-73952380D01*
X164178571Y-72952380D01*
X165035714Y-72952380D02*
X164559523Y-72952380D01*
X164511904Y-73428571D01*
X164559523Y-73380952D01*
X164654761Y-73333333D01*
X164892857Y-73333333D01*
X164988095Y-73380952D01*
X165035714Y-73428571D01*
X165083333Y-73523809D01*
X165083333Y-73761904D01*
X165035714Y-73857142D01*
X164988095Y-73904761D01*
X164892857Y-73952380D01*
X164654761Y-73952380D01*
X164559523Y-73904761D01*
X164511904Y-73857142D01*
G04 #@! TO.C,SW6*
X172416666Y-73904761D02*
X172559523Y-73952380D01*
X172797619Y-73952380D01*
X172892857Y-73904761D01*
X172940476Y-73857142D01*
X172988095Y-73761904D01*
X172988095Y-73666666D01*
X172940476Y-73571428D01*
X172892857Y-73523809D01*
X172797619Y-73476190D01*
X172607142Y-73428571D01*
X172511904Y-73380952D01*
X172464285Y-73333333D01*
X172416666Y-73238095D01*
X172416666Y-73142857D01*
X172464285Y-73047619D01*
X172511904Y-73000000D01*
X172607142Y-72952380D01*
X172845238Y-72952380D01*
X172988095Y-73000000D01*
X173321428Y-72952380D02*
X173559523Y-73952380D01*
X173750000Y-73238095D01*
X173940476Y-73952380D01*
X174178571Y-72952380D01*
X174988095Y-72952380D02*
X174797619Y-72952380D01*
X174702380Y-73000000D01*
X174654761Y-73047619D01*
X174559523Y-73190476D01*
X174511904Y-73380952D01*
X174511904Y-73761904D01*
X174559523Y-73857142D01*
X174607142Y-73904761D01*
X174702380Y-73952380D01*
X174892857Y-73952380D01*
X174988095Y-73904761D01*
X175035714Y-73857142D01*
X175083333Y-73761904D01*
X175083333Y-73523809D01*
X175035714Y-73428571D01*
X174988095Y-73380952D01*
X174892857Y-73333333D01*
X174702380Y-73333333D01*
X174607142Y-73380952D01*
X174559523Y-73428571D01*
X174511904Y-73523809D01*
G04 #@! TO.C,SW7*
X182416666Y-73904761D02*
X182559523Y-73952380D01*
X182797619Y-73952380D01*
X182892857Y-73904761D01*
X182940476Y-73857142D01*
X182988095Y-73761904D01*
X182988095Y-73666666D01*
X182940476Y-73571428D01*
X182892857Y-73523809D01*
X182797619Y-73476190D01*
X182607142Y-73428571D01*
X182511904Y-73380952D01*
X182464285Y-73333333D01*
X182416666Y-73238095D01*
X182416666Y-73142857D01*
X182464285Y-73047619D01*
X182511904Y-73000000D01*
X182607142Y-72952380D01*
X182845238Y-72952380D01*
X182988095Y-73000000D01*
X183321428Y-72952380D02*
X183559523Y-73952380D01*
X183750000Y-73238095D01*
X183940476Y-73952380D01*
X184178571Y-72952380D01*
X184464285Y-72952380D02*
X185130952Y-72952380D01*
X184702380Y-73952380D01*
G04 #@! TO.C,SW8*
X192199166Y-73904761D02*
X192342023Y-73952380D01*
X192580119Y-73952380D01*
X192675357Y-73904761D01*
X192722976Y-73857142D01*
X192770595Y-73761904D01*
X192770595Y-73666666D01*
X192722976Y-73571428D01*
X192675357Y-73523809D01*
X192580119Y-73476190D01*
X192389642Y-73428571D01*
X192294404Y-73380952D01*
X192246785Y-73333333D01*
X192199166Y-73238095D01*
X192199166Y-73142857D01*
X192246785Y-73047619D01*
X192294404Y-73000000D01*
X192389642Y-72952380D01*
X192627738Y-72952380D01*
X192770595Y-73000000D01*
X193103928Y-72952380D02*
X193342023Y-73952380D01*
X193532500Y-73238095D01*
X193722976Y-73952380D01*
X193961071Y-72952380D01*
X194484880Y-73380952D02*
X194389642Y-73333333D01*
X194342023Y-73285714D01*
X194294404Y-73190476D01*
X194294404Y-73142857D01*
X194342023Y-73047619D01*
X194389642Y-73000000D01*
X194484880Y-72952380D01*
X194675357Y-72952380D01*
X194770595Y-73000000D01*
X194818214Y-73047619D01*
X194865833Y-73142857D01*
X194865833Y-73190476D01*
X194818214Y-73285714D01*
X194770595Y-73333333D01*
X194675357Y-73380952D01*
X194484880Y-73380952D01*
X194389642Y-73428571D01*
X194342023Y-73476190D01*
X194294404Y-73571428D01*
X194294404Y-73761904D01*
X194342023Y-73857142D01*
X194389642Y-73904761D01*
X194484880Y-73952380D01*
X194675357Y-73952380D01*
X194770595Y-73904761D01*
X194818214Y-73857142D01*
X194865833Y-73761904D01*
X194865833Y-73571428D01*
X194818214Y-73476190D01*
X194770595Y-73428571D01*
X194675357Y-73380952D01*
G04 #@! TO.C,SW9*
X162416666Y-91404761D02*
X162559523Y-91452380D01*
X162797619Y-91452380D01*
X162892857Y-91404761D01*
X162940476Y-91357142D01*
X162988095Y-91261904D01*
X162988095Y-91166666D01*
X162940476Y-91071428D01*
X162892857Y-91023809D01*
X162797619Y-90976190D01*
X162607142Y-90928571D01*
X162511904Y-90880952D01*
X162464285Y-90833333D01*
X162416666Y-90738095D01*
X162416666Y-90642857D01*
X162464285Y-90547619D01*
X162511904Y-90500000D01*
X162607142Y-90452380D01*
X162845238Y-90452380D01*
X162988095Y-90500000D01*
X163321428Y-90452380D02*
X163559523Y-91452380D01*
X163750000Y-90738095D01*
X163940476Y-91452380D01*
X164178571Y-90452380D01*
X164607142Y-91452380D02*
X164797619Y-91452380D01*
X164892857Y-91404761D01*
X164940476Y-91357142D01*
X165035714Y-91214285D01*
X165083333Y-91023809D01*
X165083333Y-90642857D01*
X165035714Y-90547619D01*
X164988095Y-90500000D01*
X164892857Y-90452380D01*
X164702380Y-90452380D01*
X164607142Y-90500000D01*
X164559523Y-90547619D01*
X164511904Y-90642857D01*
X164511904Y-90880952D01*
X164559523Y-90976190D01*
X164607142Y-91023809D01*
X164702380Y-91071428D01*
X164892857Y-91071428D01*
X164988095Y-91023809D01*
X165035714Y-90976190D01*
X165083333Y-90880952D01*
G04 #@! TO.C,SW10*
X171940476Y-91404761D02*
X172083333Y-91452380D01*
X172321428Y-91452380D01*
X172416666Y-91404761D01*
X172464285Y-91357142D01*
X172511904Y-91261904D01*
X172511904Y-91166666D01*
X172464285Y-91071428D01*
X172416666Y-91023809D01*
X172321428Y-90976190D01*
X172130952Y-90928571D01*
X172035714Y-90880952D01*
X171988095Y-90833333D01*
X171940476Y-90738095D01*
X171940476Y-90642857D01*
X171988095Y-90547619D01*
X172035714Y-90500000D01*
X172130952Y-90452380D01*
X172369047Y-90452380D01*
X172511904Y-90500000D01*
X172845238Y-90452380D02*
X173083333Y-91452380D01*
X173273809Y-90738095D01*
X173464285Y-91452380D01*
X173702380Y-90452380D01*
X174607142Y-91452380D02*
X174035714Y-91452380D01*
X174321428Y-91452380D02*
X174321428Y-90452380D01*
X174226190Y-90595238D01*
X174130952Y-90690476D01*
X174035714Y-90738095D01*
X175226190Y-90452380D02*
X175321428Y-90452380D01*
X175416666Y-90500000D01*
X175464285Y-90547619D01*
X175511904Y-90642857D01*
X175559523Y-90833333D01*
X175559523Y-91071428D01*
X175511904Y-91261904D01*
X175464285Y-91357142D01*
X175416666Y-91404761D01*
X175321428Y-91452380D01*
X175226190Y-91452380D01*
X175130952Y-91404761D01*
X175083333Y-91357142D01*
X175035714Y-91261904D01*
X174988095Y-91071428D01*
X174988095Y-90833333D01*
X175035714Y-90642857D01*
X175083333Y-90547619D01*
X175130952Y-90500000D01*
X175226190Y-90452380D01*
G04 #@! TO.C,SW11*
X181940476Y-91404761D02*
X182083333Y-91452380D01*
X182321428Y-91452380D01*
X182416666Y-91404761D01*
X182464285Y-91357142D01*
X182511904Y-91261904D01*
X182511904Y-91166666D01*
X182464285Y-91071428D01*
X182416666Y-91023809D01*
X182321428Y-90976190D01*
X182130952Y-90928571D01*
X182035714Y-90880952D01*
X181988095Y-90833333D01*
X181940476Y-90738095D01*
X181940476Y-90642857D01*
X181988095Y-90547619D01*
X182035714Y-90500000D01*
X182130952Y-90452380D01*
X182369047Y-90452380D01*
X182511904Y-90500000D01*
X182845238Y-90452380D02*
X183083333Y-91452380D01*
X183273809Y-90738095D01*
X183464285Y-91452380D01*
X183702380Y-90452380D01*
X184607142Y-91452380D02*
X184035714Y-91452380D01*
X184321428Y-91452380D02*
X184321428Y-90452380D01*
X184226190Y-90595238D01*
X184130952Y-90690476D01*
X184035714Y-90738095D01*
X185559523Y-91452380D02*
X184988095Y-91452380D01*
X185273809Y-91452380D02*
X185273809Y-90452380D01*
X185178571Y-90595238D01*
X185083333Y-90690476D01*
X184988095Y-90738095D01*
G04 #@! TO.C,SW12*
X191940476Y-91404761D02*
X192083333Y-91452380D01*
X192321428Y-91452380D01*
X192416666Y-91404761D01*
X192464285Y-91357142D01*
X192511904Y-91261904D01*
X192511904Y-91166666D01*
X192464285Y-91071428D01*
X192416666Y-91023809D01*
X192321428Y-90976190D01*
X192130952Y-90928571D01*
X192035714Y-90880952D01*
X191988095Y-90833333D01*
X191940476Y-90738095D01*
X191940476Y-90642857D01*
X191988095Y-90547619D01*
X192035714Y-90500000D01*
X192130952Y-90452380D01*
X192369047Y-90452380D01*
X192511904Y-90500000D01*
X192845238Y-90452380D02*
X193083333Y-91452380D01*
X193273809Y-90738095D01*
X193464285Y-91452380D01*
X193702380Y-90452380D01*
X194607142Y-91452380D02*
X194035714Y-91452380D01*
X194321428Y-91452380D02*
X194321428Y-90452380D01*
X194226190Y-90595238D01*
X194130952Y-90690476D01*
X194035714Y-90738095D01*
X194988095Y-90547619D02*
X195035714Y-90500000D01*
X195130952Y-90452380D01*
X195369047Y-90452380D01*
X195464285Y-90500000D01*
X195511904Y-90547619D01*
X195559523Y-90642857D01*
X195559523Y-90738095D01*
X195511904Y-90880952D01*
X194940476Y-91452380D01*
X195559523Y-91452380D01*
G04 #@! TO.C,SW13*
X161940476Y-108904761D02*
X162083333Y-108952380D01*
X162321428Y-108952380D01*
X162416666Y-108904761D01*
X162464285Y-108857142D01*
X162511904Y-108761904D01*
X162511904Y-108666666D01*
X162464285Y-108571428D01*
X162416666Y-108523809D01*
X162321428Y-108476190D01*
X162130952Y-108428571D01*
X162035714Y-108380952D01*
X161988095Y-108333333D01*
X161940476Y-108238095D01*
X161940476Y-108142857D01*
X161988095Y-108047619D01*
X162035714Y-108000000D01*
X162130952Y-107952380D01*
X162369047Y-107952380D01*
X162511904Y-108000000D01*
X162845238Y-107952380D02*
X163083333Y-108952380D01*
X163273809Y-108238095D01*
X163464285Y-108952380D01*
X163702380Y-107952380D01*
X164607142Y-108952380D02*
X164035714Y-108952380D01*
X164321428Y-108952380D02*
X164321428Y-107952380D01*
X164226190Y-108095238D01*
X164130952Y-108190476D01*
X164035714Y-108238095D01*
X164940476Y-107952380D02*
X165559523Y-107952380D01*
X165226190Y-108333333D01*
X165369047Y-108333333D01*
X165464285Y-108380952D01*
X165511904Y-108428571D01*
X165559523Y-108523809D01*
X165559523Y-108761904D01*
X165511904Y-108857142D01*
X165464285Y-108904761D01*
X165369047Y-108952380D01*
X165083333Y-108952380D01*
X164988095Y-108904761D01*
X164940476Y-108857142D01*
G04 #@! TO.C,SW14*
X171940476Y-108904761D02*
X172083333Y-108952380D01*
X172321428Y-108952380D01*
X172416666Y-108904761D01*
X172464285Y-108857142D01*
X172511904Y-108761904D01*
X172511904Y-108666666D01*
X172464285Y-108571428D01*
X172416666Y-108523809D01*
X172321428Y-108476190D01*
X172130952Y-108428571D01*
X172035714Y-108380952D01*
X171988095Y-108333333D01*
X171940476Y-108238095D01*
X171940476Y-108142857D01*
X171988095Y-108047619D01*
X172035714Y-108000000D01*
X172130952Y-107952380D01*
X172369047Y-107952380D01*
X172511904Y-108000000D01*
X172845238Y-107952380D02*
X173083333Y-108952380D01*
X173273809Y-108238095D01*
X173464285Y-108952380D01*
X173702380Y-107952380D01*
X174607142Y-108952380D02*
X174035714Y-108952380D01*
X174321428Y-108952380D02*
X174321428Y-107952380D01*
X174226190Y-108095238D01*
X174130952Y-108190476D01*
X174035714Y-108238095D01*
X175464285Y-108285714D02*
X175464285Y-108952380D01*
X175226190Y-107904761D02*
X174988095Y-108619047D01*
X175607142Y-108619047D01*
G04 #@! TO.C,SW15*
X181940476Y-108904761D02*
X182083333Y-108952380D01*
X182321428Y-108952380D01*
X182416666Y-108904761D01*
X182464285Y-108857142D01*
X182511904Y-108761904D01*
X182511904Y-108666666D01*
X182464285Y-108571428D01*
X182416666Y-108523809D01*
X182321428Y-108476190D01*
X182130952Y-108428571D01*
X182035714Y-108380952D01*
X181988095Y-108333333D01*
X181940476Y-108238095D01*
X181940476Y-108142857D01*
X181988095Y-108047619D01*
X182035714Y-108000000D01*
X182130952Y-107952380D01*
X182369047Y-107952380D01*
X182511904Y-108000000D01*
X182845238Y-107952380D02*
X183083333Y-108952380D01*
X183273809Y-108238095D01*
X183464285Y-108952380D01*
X183702380Y-107952380D01*
X184607142Y-108952380D02*
X184035714Y-108952380D01*
X184321428Y-108952380D02*
X184321428Y-107952380D01*
X184226190Y-108095238D01*
X184130952Y-108190476D01*
X184035714Y-108238095D01*
X185511904Y-107952380D02*
X185035714Y-107952380D01*
X184988095Y-108428571D01*
X185035714Y-108380952D01*
X185130952Y-108333333D01*
X185369047Y-108333333D01*
X185464285Y-108380952D01*
X185511904Y-108428571D01*
X185559523Y-108523809D01*
X185559523Y-108761904D01*
X185511904Y-108857142D01*
X185464285Y-108904761D01*
X185369047Y-108952380D01*
X185130952Y-108952380D01*
X185035714Y-108904761D01*
X184988095Y-108857142D01*
G04 #@! TO.C,SW16*
X191940476Y-108904761D02*
X192083333Y-108952380D01*
X192321428Y-108952380D01*
X192416666Y-108904761D01*
X192464285Y-108857142D01*
X192511904Y-108761904D01*
X192511904Y-108666666D01*
X192464285Y-108571428D01*
X192416666Y-108523809D01*
X192321428Y-108476190D01*
X192130952Y-108428571D01*
X192035714Y-108380952D01*
X191988095Y-108333333D01*
X191940476Y-108238095D01*
X191940476Y-108142857D01*
X191988095Y-108047619D01*
X192035714Y-108000000D01*
X192130952Y-107952380D01*
X192369047Y-107952380D01*
X192511904Y-108000000D01*
X192845238Y-107952380D02*
X193083333Y-108952380D01*
X193273809Y-108238095D01*
X193464285Y-108952380D01*
X193702380Y-107952380D01*
X194607142Y-108952380D02*
X194035714Y-108952380D01*
X194321428Y-108952380D02*
X194321428Y-107952380D01*
X194226190Y-108095238D01*
X194130952Y-108190476D01*
X194035714Y-108238095D01*
X195464285Y-107952380D02*
X195273809Y-107952380D01*
X195178571Y-108000000D01*
X195130952Y-108047619D01*
X195035714Y-108190476D01*
X194988095Y-108380952D01*
X194988095Y-108761904D01*
X195035714Y-108857142D01*
X195083333Y-108904761D01*
X195178571Y-108952380D01*
X195369047Y-108952380D01*
X195464285Y-108904761D01*
X195511904Y-108857142D01*
X195559523Y-108761904D01*
X195559523Y-108523809D01*
X195511904Y-108428571D01*
X195464285Y-108380952D01*
X195369047Y-108333333D01*
X195178571Y-108333333D01*
X195083333Y-108380952D01*
X195035714Y-108428571D01*
X194988095Y-108523809D01*
G04 #@! TO.C,U2*
X146338095Y-81162380D02*
X146338095Y-81971904D01*
X146385714Y-82067142D01*
X146433333Y-82114761D01*
X146528571Y-82162380D01*
X146719047Y-82162380D01*
X146814285Y-82114761D01*
X146861904Y-82067142D01*
X146909523Y-81971904D01*
X146909523Y-81162380D01*
X147338095Y-81257619D02*
X147385714Y-81210000D01*
X147480952Y-81162380D01*
X147719047Y-81162380D01*
X147814285Y-81210000D01*
X147861904Y-81257619D01*
X147909523Y-81352857D01*
X147909523Y-81448095D01*
X147861904Y-81590952D01*
X147290476Y-82162380D01*
X147909523Y-82162380D01*
G04 #@! TO.C,U3*
X146238095Y-109352380D02*
X146238095Y-110161904D01*
X146285714Y-110257142D01*
X146333333Y-110304761D01*
X146428571Y-110352380D01*
X146619047Y-110352380D01*
X146714285Y-110304761D01*
X146761904Y-110257142D01*
X146809523Y-110161904D01*
X146809523Y-109352380D01*
X147190476Y-109352380D02*
X147809523Y-109352380D01*
X147476190Y-109733333D01*
X147619047Y-109733333D01*
X147714285Y-109780952D01*
X147761904Y-109828571D01*
X147809523Y-109923809D01*
X147809523Y-110161904D01*
X147761904Y-110257142D01*
X147714285Y-110304761D01*
X147619047Y-110352380D01*
X147333333Y-110352380D01*
X147238095Y-110304761D01*
X147190476Y-110257142D01*
G04 #@! TO.C,U1*
X128738095Y-94952380D02*
X128738095Y-95761904D01*
X128785714Y-95857142D01*
X128833333Y-95904761D01*
X128928571Y-95952380D01*
X129119047Y-95952380D01*
X129214285Y-95904761D01*
X129261904Y-95857142D01*
X129309523Y-95761904D01*
X129309523Y-94952380D01*
X130309523Y-95952380D02*
X129738095Y-95952380D01*
X130023809Y-95952380D02*
X130023809Y-94952380D01*
X129928571Y-95095238D01*
X129833333Y-95190476D01*
X129738095Y-95238095D01*
G04 #@! TO.C,D1*
X163071904Y-63392380D02*
X163071904Y-62392380D01*
X163310000Y-62392380D01*
X163452857Y-62440000D01*
X163548095Y-62535238D01*
X163595714Y-62630476D01*
X163643333Y-62820952D01*
X163643333Y-62963809D01*
X163595714Y-63154285D01*
X163548095Y-63249523D01*
X163452857Y-63344761D01*
X163310000Y-63392380D01*
X163071904Y-63392380D01*
X164595714Y-63392380D02*
X164024285Y-63392380D01*
X164310000Y-63392380D02*
X164310000Y-62392380D01*
X164214761Y-62535238D01*
X164119523Y-62630476D01*
X164024285Y-62678095D01*
G04 #@! TO.C,D2*
X173071904Y-63392380D02*
X173071904Y-62392380D01*
X173310000Y-62392380D01*
X173452857Y-62440000D01*
X173548095Y-62535238D01*
X173595714Y-62630476D01*
X173643333Y-62820952D01*
X173643333Y-62963809D01*
X173595714Y-63154285D01*
X173548095Y-63249523D01*
X173452857Y-63344761D01*
X173310000Y-63392380D01*
X173071904Y-63392380D01*
X174024285Y-62487619D02*
X174071904Y-62440000D01*
X174167142Y-62392380D01*
X174405238Y-62392380D01*
X174500476Y-62440000D01*
X174548095Y-62487619D01*
X174595714Y-62582857D01*
X174595714Y-62678095D01*
X174548095Y-62820952D01*
X173976666Y-63392380D01*
X174595714Y-63392380D01*
G04 #@! TO.C,D3*
X183071904Y-63392380D02*
X183071904Y-62392380D01*
X183310000Y-62392380D01*
X183452857Y-62440000D01*
X183548095Y-62535238D01*
X183595714Y-62630476D01*
X183643333Y-62820952D01*
X183643333Y-62963809D01*
X183595714Y-63154285D01*
X183548095Y-63249523D01*
X183452857Y-63344761D01*
X183310000Y-63392380D01*
X183071904Y-63392380D01*
X183976666Y-62392380D02*
X184595714Y-62392380D01*
X184262380Y-62773333D01*
X184405238Y-62773333D01*
X184500476Y-62820952D01*
X184548095Y-62868571D01*
X184595714Y-62963809D01*
X184595714Y-63201904D01*
X184548095Y-63297142D01*
X184500476Y-63344761D01*
X184405238Y-63392380D01*
X184119523Y-63392380D01*
X184024285Y-63344761D01*
X183976666Y-63297142D01*
G04 #@! TO.C,D4*
X193071904Y-63392380D02*
X193071904Y-62392380D01*
X193310000Y-62392380D01*
X193452857Y-62440000D01*
X193548095Y-62535238D01*
X193595714Y-62630476D01*
X193643333Y-62820952D01*
X193643333Y-62963809D01*
X193595714Y-63154285D01*
X193548095Y-63249523D01*
X193452857Y-63344761D01*
X193310000Y-63392380D01*
X193071904Y-63392380D01*
X194500476Y-62725714D02*
X194500476Y-63392380D01*
X194262380Y-62344761D02*
X194024285Y-63059047D01*
X194643333Y-63059047D01*
G04 #@! TO.C,D5*
X163071904Y-80892380D02*
X163071904Y-79892380D01*
X163310000Y-79892380D01*
X163452857Y-79940000D01*
X163548095Y-80035238D01*
X163595714Y-80130476D01*
X163643333Y-80320952D01*
X163643333Y-80463809D01*
X163595714Y-80654285D01*
X163548095Y-80749523D01*
X163452857Y-80844761D01*
X163310000Y-80892380D01*
X163071904Y-80892380D01*
X164548095Y-79892380D02*
X164071904Y-79892380D01*
X164024285Y-80368571D01*
X164071904Y-80320952D01*
X164167142Y-80273333D01*
X164405238Y-80273333D01*
X164500476Y-80320952D01*
X164548095Y-80368571D01*
X164595714Y-80463809D01*
X164595714Y-80701904D01*
X164548095Y-80797142D01*
X164500476Y-80844761D01*
X164405238Y-80892380D01*
X164167142Y-80892380D01*
X164071904Y-80844761D01*
X164024285Y-80797142D01*
G04 #@! TO.C,D6*
X173071904Y-80892380D02*
X173071904Y-79892380D01*
X173310000Y-79892380D01*
X173452857Y-79940000D01*
X173548095Y-80035238D01*
X173595714Y-80130476D01*
X173643333Y-80320952D01*
X173643333Y-80463809D01*
X173595714Y-80654285D01*
X173548095Y-80749523D01*
X173452857Y-80844761D01*
X173310000Y-80892380D01*
X173071904Y-80892380D01*
X174500476Y-79892380D02*
X174310000Y-79892380D01*
X174214761Y-79940000D01*
X174167142Y-79987619D01*
X174071904Y-80130476D01*
X174024285Y-80320952D01*
X174024285Y-80701904D01*
X174071904Y-80797142D01*
X174119523Y-80844761D01*
X174214761Y-80892380D01*
X174405238Y-80892380D01*
X174500476Y-80844761D01*
X174548095Y-80797142D01*
X174595714Y-80701904D01*
X174595714Y-80463809D01*
X174548095Y-80368571D01*
X174500476Y-80320952D01*
X174405238Y-80273333D01*
X174214761Y-80273333D01*
X174119523Y-80320952D01*
X174071904Y-80368571D01*
X174024285Y-80463809D01*
G04 #@! TO.C,D7*
X183071904Y-80892380D02*
X183071904Y-79892380D01*
X183310000Y-79892380D01*
X183452857Y-79940000D01*
X183548095Y-80035238D01*
X183595714Y-80130476D01*
X183643333Y-80320952D01*
X183643333Y-80463809D01*
X183595714Y-80654285D01*
X183548095Y-80749523D01*
X183452857Y-80844761D01*
X183310000Y-80892380D01*
X183071904Y-80892380D01*
X183976666Y-79892380D02*
X184643333Y-79892380D01*
X184214761Y-80892380D01*
G04 #@! TO.C,D8*
X193071904Y-80892380D02*
X193071904Y-79892380D01*
X193310000Y-79892380D01*
X193452857Y-79940000D01*
X193548095Y-80035238D01*
X193595714Y-80130476D01*
X193643333Y-80320952D01*
X193643333Y-80463809D01*
X193595714Y-80654285D01*
X193548095Y-80749523D01*
X193452857Y-80844761D01*
X193310000Y-80892380D01*
X193071904Y-80892380D01*
X194214761Y-80320952D02*
X194119523Y-80273333D01*
X194071904Y-80225714D01*
X194024285Y-80130476D01*
X194024285Y-80082857D01*
X194071904Y-79987619D01*
X194119523Y-79940000D01*
X194214761Y-79892380D01*
X194405238Y-79892380D01*
X194500476Y-79940000D01*
X194548095Y-79987619D01*
X194595714Y-80082857D01*
X194595714Y-80130476D01*
X194548095Y-80225714D01*
X194500476Y-80273333D01*
X194405238Y-80320952D01*
X194214761Y-80320952D01*
X194119523Y-80368571D01*
X194071904Y-80416190D01*
X194024285Y-80511428D01*
X194024285Y-80701904D01*
X194071904Y-80797142D01*
X194119523Y-80844761D01*
X194214761Y-80892380D01*
X194405238Y-80892380D01*
X194500476Y-80844761D01*
X194548095Y-80797142D01*
X194595714Y-80701904D01*
X194595714Y-80511428D01*
X194548095Y-80416190D01*
X194500476Y-80368571D01*
X194405238Y-80320952D01*
G04 #@! TO.C,D9*
X163071904Y-98392380D02*
X163071904Y-97392380D01*
X163310000Y-97392380D01*
X163452857Y-97440000D01*
X163548095Y-97535238D01*
X163595714Y-97630476D01*
X163643333Y-97820952D01*
X163643333Y-97963809D01*
X163595714Y-98154285D01*
X163548095Y-98249523D01*
X163452857Y-98344761D01*
X163310000Y-98392380D01*
X163071904Y-98392380D01*
X164119523Y-98392380D02*
X164310000Y-98392380D01*
X164405238Y-98344761D01*
X164452857Y-98297142D01*
X164548095Y-98154285D01*
X164595714Y-97963809D01*
X164595714Y-97582857D01*
X164548095Y-97487619D01*
X164500476Y-97440000D01*
X164405238Y-97392380D01*
X164214761Y-97392380D01*
X164119523Y-97440000D01*
X164071904Y-97487619D01*
X164024285Y-97582857D01*
X164024285Y-97820952D01*
X164071904Y-97916190D01*
X164119523Y-97963809D01*
X164214761Y-98011428D01*
X164405238Y-98011428D01*
X164500476Y-97963809D01*
X164548095Y-97916190D01*
X164595714Y-97820952D01*
G04 #@! TO.C,D10*
X172595714Y-98392380D02*
X172595714Y-97392380D01*
X172833809Y-97392380D01*
X172976666Y-97440000D01*
X173071904Y-97535238D01*
X173119523Y-97630476D01*
X173167142Y-97820952D01*
X173167142Y-97963809D01*
X173119523Y-98154285D01*
X173071904Y-98249523D01*
X172976666Y-98344761D01*
X172833809Y-98392380D01*
X172595714Y-98392380D01*
X174119523Y-98392380D02*
X173548095Y-98392380D01*
X173833809Y-98392380D02*
X173833809Y-97392380D01*
X173738571Y-97535238D01*
X173643333Y-97630476D01*
X173548095Y-97678095D01*
X174738571Y-97392380D02*
X174833809Y-97392380D01*
X174929047Y-97440000D01*
X174976666Y-97487619D01*
X175024285Y-97582857D01*
X175071904Y-97773333D01*
X175071904Y-98011428D01*
X175024285Y-98201904D01*
X174976666Y-98297142D01*
X174929047Y-98344761D01*
X174833809Y-98392380D01*
X174738571Y-98392380D01*
X174643333Y-98344761D01*
X174595714Y-98297142D01*
X174548095Y-98201904D01*
X174500476Y-98011428D01*
X174500476Y-97773333D01*
X174548095Y-97582857D01*
X174595714Y-97487619D01*
X174643333Y-97440000D01*
X174738571Y-97392380D01*
G04 #@! TO.C,D11*
X182595714Y-98392380D02*
X182595714Y-97392380D01*
X182833809Y-97392380D01*
X182976666Y-97440000D01*
X183071904Y-97535238D01*
X183119523Y-97630476D01*
X183167142Y-97820952D01*
X183167142Y-97963809D01*
X183119523Y-98154285D01*
X183071904Y-98249523D01*
X182976666Y-98344761D01*
X182833809Y-98392380D01*
X182595714Y-98392380D01*
X184119523Y-98392380D02*
X183548095Y-98392380D01*
X183833809Y-98392380D02*
X183833809Y-97392380D01*
X183738571Y-97535238D01*
X183643333Y-97630476D01*
X183548095Y-97678095D01*
X185071904Y-98392380D02*
X184500476Y-98392380D01*
X184786190Y-98392380D02*
X184786190Y-97392380D01*
X184690952Y-97535238D01*
X184595714Y-97630476D01*
X184500476Y-97678095D01*
G04 #@! TO.C,D12*
X192595714Y-98392380D02*
X192595714Y-97392380D01*
X192833809Y-97392380D01*
X192976666Y-97440000D01*
X193071904Y-97535238D01*
X193119523Y-97630476D01*
X193167142Y-97820952D01*
X193167142Y-97963809D01*
X193119523Y-98154285D01*
X193071904Y-98249523D01*
X192976666Y-98344761D01*
X192833809Y-98392380D01*
X192595714Y-98392380D01*
X194119523Y-98392380D02*
X193548095Y-98392380D01*
X193833809Y-98392380D02*
X193833809Y-97392380D01*
X193738571Y-97535238D01*
X193643333Y-97630476D01*
X193548095Y-97678095D01*
X194500476Y-97487619D02*
X194548095Y-97440000D01*
X194643333Y-97392380D01*
X194881428Y-97392380D01*
X194976666Y-97440000D01*
X195024285Y-97487619D01*
X195071904Y-97582857D01*
X195071904Y-97678095D01*
X195024285Y-97820952D01*
X194452857Y-98392380D01*
X195071904Y-98392380D01*
G04 #@! TO.C,D13*
X162595714Y-115892380D02*
X162595714Y-114892380D01*
X162833809Y-114892380D01*
X162976666Y-114940000D01*
X163071904Y-115035238D01*
X163119523Y-115130476D01*
X163167142Y-115320952D01*
X163167142Y-115463809D01*
X163119523Y-115654285D01*
X163071904Y-115749523D01*
X162976666Y-115844761D01*
X162833809Y-115892380D01*
X162595714Y-115892380D01*
X164119523Y-115892380D02*
X163548095Y-115892380D01*
X163833809Y-115892380D02*
X163833809Y-114892380D01*
X163738571Y-115035238D01*
X163643333Y-115130476D01*
X163548095Y-115178095D01*
X164452857Y-114892380D02*
X165071904Y-114892380D01*
X164738571Y-115273333D01*
X164881428Y-115273333D01*
X164976666Y-115320952D01*
X165024285Y-115368571D01*
X165071904Y-115463809D01*
X165071904Y-115701904D01*
X165024285Y-115797142D01*
X164976666Y-115844761D01*
X164881428Y-115892380D01*
X164595714Y-115892380D01*
X164500476Y-115844761D01*
X164452857Y-115797142D01*
G04 #@! TO.C,D14*
X172595714Y-115892380D02*
X172595714Y-114892380D01*
X172833809Y-114892380D01*
X172976666Y-114940000D01*
X173071904Y-115035238D01*
X173119523Y-115130476D01*
X173167142Y-115320952D01*
X173167142Y-115463809D01*
X173119523Y-115654285D01*
X173071904Y-115749523D01*
X172976666Y-115844761D01*
X172833809Y-115892380D01*
X172595714Y-115892380D01*
X174119523Y-115892380D02*
X173548095Y-115892380D01*
X173833809Y-115892380D02*
X173833809Y-114892380D01*
X173738571Y-115035238D01*
X173643333Y-115130476D01*
X173548095Y-115178095D01*
X174976666Y-115225714D02*
X174976666Y-115892380D01*
X174738571Y-114844761D02*
X174500476Y-115559047D01*
X175119523Y-115559047D01*
G04 #@! TO.C,D15*
X182595714Y-115892380D02*
X182595714Y-114892380D01*
X182833809Y-114892380D01*
X182976666Y-114940000D01*
X183071904Y-115035238D01*
X183119523Y-115130476D01*
X183167142Y-115320952D01*
X183167142Y-115463809D01*
X183119523Y-115654285D01*
X183071904Y-115749523D01*
X182976666Y-115844761D01*
X182833809Y-115892380D01*
X182595714Y-115892380D01*
X184119523Y-115892380D02*
X183548095Y-115892380D01*
X183833809Y-115892380D02*
X183833809Y-114892380D01*
X183738571Y-115035238D01*
X183643333Y-115130476D01*
X183548095Y-115178095D01*
X185024285Y-114892380D02*
X184548095Y-114892380D01*
X184500476Y-115368571D01*
X184548095Y-115320952D01*
X184643333Y-115273333D01*
X184881428Y-115273333D01*
X184976666Y-115320952D01*
X185024285Y-115368571D01*
X185071904Y-115463809D01*
X185071904Y-115701904D01*
X185024285Y-115797142D01*
X184976666Y-115844761D01*
X184881428Y-115892380D01*
X184643333Y-115892380D01*
X184548095Y-115844761D01*
X184500476Y-115797142D01*
G04 #@! TO.C,D16*
X192595714Y-115892380D02*
X192595714Y-114892380D01*
X192833809Y-114892380D01*
X192976666Y-114940000D01*
X193071904Y-115035238D01*
X193119523Y-115130476D01*
X193167142Y-115320952D01*
X193167142Y-115463809D01*
X193119523Y-115654285D01*
X193071904Y-115749523D01*
X192976666Y-115844761D01*
X192833809Y-115892380D01*
X192595714Y-115892380D01*
X194119523Y-115892380D02*
X193548095Y-115892380D01*
X193833809Y-115892380D02*
X193833809Y-114892380D01*
X193738571Y-115035238D01*
X193643333Y-115130476D01*
X193548095Y-115178095D01*
X194976666Y-114892380D02*
X194786190Y-114892380D01*
X194690952Y-114940000D01*
X194643333Y-114987619D01*
X194548095Y-115130476D01*
X194500476Y-115320952D01*
X194500476Y-115701904D01*
X194548095Y-115797142D01*
X194595714Y-115844761D01*
X194690952Y-115892380D01*
X194881428Y-115892380D01*
X194976666Y-115844761D01*
X195024285Y-115797142D01*
X195071904Y-115701904D01*
X195071904Y-115463809D01*
X195024285Y-115368571D01*
X194976666Y-115320952D01*
X194881428Y-115273333D01*
X194690952Y-115273333D01*
X194595714Y-115320952D01*
X194548095Y-115368571D01*
X194500476Y-115463809D01*
G04 #@! TD*
M02*
